<?xml version="1.0" encoding="UTF-8" standalone="no"?>
<svg
   xmlns:dc="http://purl.org/dc/elements/1.1/"
   xmlns:cc="http://creativecommons.org/ns#"
   xmlns:rdf="http://www.w3.org/1999/02/22-rdf-syntax-ns#"
   xmlns:svg="http://www.w3.org/2000/svg"
   xmlns="http://www.w3.org/2000/svg"
   xmlns:sodipodi="http://sodipodi.sourceforge.net/DTD/sodipodi-0.dtd"
   xmlns:inkscape="http://www.inkscape.org/namespaces/inkscape"
   version="1.1"
   width="400"
   height="400"
   id="svg4875"
   viewBox="0 0 400 400"
   sodipodi:docname="cric_icon.svg"
   inkscape:version="0.92.4 5da689c313, 2019-01-14">
  <metadata
     id="metadata4881">
    <rdf:RDF>
      <cc:Work
         rdf:about="">
        <dc:format>image/svg+xml</dc:format>
        <dc:type
           rdf:resource="http://purl.org/dc/dcmitype/StillImage" />
        <dc:title></dc:title>
      </cc:Work>
    </rdf:RDF>
  </metadata>
  <defs
     id="defs4879" />
  <sodipodi:namedview
     pagecolor="#ffffff"
     bordercolor="#666666"
     borderopacity="1"
     objecttolerance="10"
     gridtolerance="10"
     guidetolerance="10"
     inkscape:pageopacity="0"
     inkscape:pageshadow="2"
     inkscape:window-width="3200"
     inkscape:window-height="1688"
     id="namedview4877"
     showgrid="false"
     inkscape:zoom="1.2262602"
     inkscape:cx="252.05588"
     inkscape:cy="413.54051"
     inkscape:window-x="0"
     inkscape:window-y="38"
     inkscape:window-maximized="1"
     inkscape:current-layer="svg4875" />
  <g
     id="Layer1001"
     transform="matrix(1.2468039,0,0,1.2468039,20.751314,-464.64185)">
    <g
       id="Layer1002">
      <path
         d="m 182.1563,485.8634 a 7.6212,7.6212 0 0 1 7.6212,7.6212 7.6212,7.6212 0 1 1 -7.6212,-7.6212 z"
         style="fill:#339fad;fill-rule:evenodd;stroke:#339fad;stroke-width:0.56690001;stroke-linecap:butt;stroke-linejoin:miter;stroke-dasharray:none"
         id="path4789"
         inkscape:connector-curvature="0" />
      <path
         d="m 135.6477,416.2742 a 10.4808,10.4808 0 0 1 10.4808,10.4809 10.4808,10.4808 0 1 1 -10.4808,-10.4809 z"
         style="fill:#339fad;fill-rule:evenodd;stroke:#339fad;stroke-width:0.56690001;stroke-linecap:butt;stroke-linejoin:miter;stroke-dasharray:none"
         id="path4791"
         inkscape:connector-curvature="0" />
      <path
         d="m 168.6756,419.7115 a 10.4139,10.4139 0 0 1 10.4139,10.4139 10.4139,10.4139 0 1 1 -10.4139,-10.4139 z"
         style="fill:#339fad;fill-rule:evenodd;stroke:#339fad;stroke-width:0.56690001;stroke-linecap:butt;stroke-linejoin:miter;stroke-dasharray:none"
         id="path4793"
         inkscape:connector-curvature="0" />
      <path
         d="m 196.9849,427.9697 a 10.9179,10.9179 0 0 1 10.9179,10.9179 10.9179,10.9179 0 1 1 -10.9179,-10.9179 z"
         style="fill:#339fad;fill-rule:evenodd;stroke:#339fad;stroke-width:0.56690001;stroke-linecap:butt;stroke-linejoin:miter;stroke-dasharray:none"
         id="path4795"
         inkscape:connector-curvature="0" />
      <path
         d="m 225.2948,453.1005 a 10.7266,10.7266 0 0 1 10.7266,10.7266 10.7266,10.7266 0 1 1 -10.7266,-10.7266 z"
         style="fill:#339fad;fill-rule:evenodd;stroke:#339fad;stroke-width:0.56690001;stroke-linecap:butt;stroke-linejoin:miter;stroke-dasharray:none"
         id="path4797"
         inkscape:connector-curvature="0" />
      <path
         d="m 240.1234,482.5633 a 12.2695,12.2695 0 0 1 12.2695,12.2695 12.2695,12.2695 0 1 1 -12.2695,-12.2695 z"
         style="fill:#339fad;fill-rule:evenodd;stroke:#339fad;stroke-width:0.56690001;stroke-linecap:butt;stroke-linejoin:miter;stroke-dasharray:none"
         id="path4799"
         inkscape:connector-curvature="0" />
      <path
         d="m 214.5101,482.6999 a 5.3923,5.3923 0 0 1 5.3924,5.3924 5.3923,5.3923 0 1 1 -5.3924,-5.3924 z"
         style="fill:#339fad;fill-rule:evenodd;stroke:#339fad;stroke-width:0.56690001;stroke-linecap:butt;stroke-linejoin:miter;stroke-dasharray:none"
         id="path4801"
         inkscape:connector-curvature="0" />
      <path
         d="m 193.6148,460.3986 a 8.1468,8.1468 0 0 1 8.1468,8.1468 8.1468,8.1468 0 1 1 -8.1468,-8.1468 z"
         style="fill:#339fad;fill-rule:evenodd;stroke:#339fad;stroke-width:0.56690001;stroke-linecap:butt;stroke-linejoin:miter;stroke-dasharray:none"
         id="path4803"
         inkscape:connector-curvature="0" />
      <path
         d="m 160.5869,453.6822 a 10.819,10.819 0 0 1 10.819,10.819 10.819,10.819 0 1 1 -10.819,-10.819 z"
         style="fill:#339fad;fill-rule:evenodd;stroke:#339fad;stroke-width:0.56690001;stroke-linecap:butt;stroke-linejoin:miter;stroke-dasharray:none"
         id="path4805"
         inkscape:connector-curvature="0" />
      <path
         d="m 126.885,447.3437 a 10.417,10.417 0 0 1 10.417,10.417 10.417,10.417 0 1 1 -10.417,-10.417 z"
         style="fill:#339fad;fill-rule:evenodd;stroke:#339fad;stroke-width:0.56690001;stroke-linecap:butt;stroke-linejoin:miter;stroke-dasharray:none"
         id="path4807"
         inkscape:connector-curvature="0" />
      <path
         d="m 105.0673,422.4121 a 10.6495,10.6495 0 0 1 10.6495,10.6495 10.6495,10.6495 0 1 1 -10.6495,-10.6495 z"
         style="fill:#339fad;fill-rule:evenodd;stroke:#339fad;stroke-width:0.56690001;stroke-linecap:butt;stroke-linejoin:miter;stroke-dasharray:none"
         id="path4809"
         inkscape:connector-curvature="0" />
      <path
         d="M 75.6584,436.841 A 10.8094,10.8094 0 0 1 86.4677,447.6504 10.8094,10.8094 0 1 1 75.6584,436.841 Z"
         style="fill:#339fad;fill-rule:evenodd;stroke:#339fad;stroke-width:0.56690001;stroke-linecap:butt;stroke-linejoin:miter;stroke-dasharray:none"
         id="path4811"
         inkscape:connector-curvature="0" />
      <path
         d="M 95.8793,462.7247 A 10.5386,10.5386 0 0 1 106.418,473.2634 10.5386,10.5386 0 1 1 95.8793,462.7247 Z"
         style="fill:#339fad;fill-rule:evenodd;stroke:#339fad;stroke-width:0.56690001;stroke-linecap:butt;stroke-linejoin:miter;stroke-dasharray:none"
         id="path4813"
         inkscape:connector-curvature="0" />
      <path
         d="m 111.3823,489.8971 a 4.9357,4.9357 0 0 1 4.9357,4.9357 4.9357,4.9357 0 1 1 -4.9357,-4.9357 z"
         style="fill:#339fad;fill-rule:evenodd;stroke:#339fad;stroke-width:0.56690001;stroke-linecap:butt;stroke-linejoin:miter;stroke-dasharray:none"
         id="path4815"
         inkscape:connector-curvature="0" />
      <path
         d="M 52.7409,462.3131 A 10.9502,10.9502 0 0 1 63.6911,473.2634 10.9502,10.9502 0 1 1 52.7409,462.3131 Z"
         style="fill:#339fad;fill-rule:evenodd;stroke:#339fad;stroke-width:0.56690001;stroke-linecap:butt;stroke-linejoin:miter;stroke-dasharray:none"
         id="path4817"
         inkscape:connector-curvature="0" />
      <path
         d="m 72.288,486.7444 a 6.0661,6.0661 0 0 1 6.0661,6.0661 6.0661,6.0661 0 1 1 -6.0661,-6.0661 z"
         style="fill:#339fad;fill-rule:evenodd;stroke:#339fad;stroke-width:0.56690001;stroke-linecap:butt;stroke-linejoin:miter;stroke-dasharray:none"
         id="path4819"
         inkscape:connector-curvature="0" />
      <path
         d="m 36.5641,495.3132 a 6.9338,6.9338 0 0 1 6.9338,6.9339 6.9338,6.9338 0 1 1 -6.9338,-6.9339 z"
         style="fill:#339fad;fill-rule:evenodd;stroke:#339fad;stroke-width:0.56690001;stroke-linecap:butt;stroke-linejoin:miter;stroke-dasharray:none"
         id="path4821"
         inkscape:connector-curvature="0" />
      <path
         d="M 34.5419,525.1686 A 10.7802,10.7802 0 0 1 45.322,535.9487 10.7802,10.7802 0 1 1 34.5419,525.1686 Z"
         style="fill:#339fad;fill-rule:evenodd;stroke:#339fad;stroke-width:0.56690001;stroke-linecap:butt;stroke-linejoin:miter;stroke-dasharray:none"
         id="path4823"
         inkscape:connector-curvature="0" />
      <path
         d="M 41.9564,553.6687 A 11.9375,11.9375 0 0 1 53.894,565.6062 11.9375,11.9375 0 1 1 41.9564,553.6687 Z"
         style="fill:#339fad;fill-rule:evenodd;stroke:#339fad;stroke-width:0.56690001;stroke-linecap:butt;stroke-linejoin:miter;stroke-dasharray:none"
         id="path4825"
         inkscape:connector-curvature="0" />
      <path
         d="m 52.0668,585.7342 a 9.5298,9.5298 0 0 1 9.5298,9.5298 9.5298,9.5298 0 1 1 -9.5298,-9.5298 z"
         style="fill:#339fad;fill-rule:evenodd;stroke:#339fad;stroke-width:0.56690001;stroke-linecap:butt;stroke-linejoin:miter;stroke-dasharray:none"
         id="path4827"
         inkscape:connector-curvature="0" />
      <path
         d="m 75.6584,572.6755 a 7.0855,7.0855 0 0 1 7.0855,7.0855 7.0855,7.0855 0 1 1 -7.0855,-7.0855 z"
         style="fill:#339fad;fill-rule:evenodd;stroke:#339fad;stroke-width:0.56690001;stroke-linecap:butt;stroke-linejoin:miter;stroke-dasharray:none"
         id="path4829"
         inkscape:connector-curvature="0" />
      <path
         d="M 99.2497,587.454 A 10.506,10.506 0 0 1 109.7558,597.96 10.506,10.506 0 1 1 99.2497,587.454 Z"
         style="fill:#339fad;fill-rule:evenodd;stroke:#339fad;stroke-width:0.56690001;stroke-linecap:butt;stroke-linejoin:miter;stroke-dasharray:none"
         id="path4831"
         inkscape:connector-curvature="0" />
      <path
         d="M 75.6584,606.6717 A 10.8354,10.8354 0 0 1 86.4938,617.5071 10.8354,10.8354 0 1 1 75.6584,606.6717 Z"
         style="fill:#339fad;fill-rule:evenodd;stroke:#339fad;stroke-width:0.56690001;stroke-linecap:butt;stroke-linejoin:miter;stroke-dasharray:none"
         id="path4833"
         inkscape:connector-curvature="0" />
      <path
         d="m 132.9514,577.1092 a 12.0883,12.0883 0 0 1 12.0883,12.0883 12.0883,12.0883 0 1 1 -12.0883,-12.0883 z"
         style="fill:#339fad;fill-rule:evenodd;stroke:#339fad;stroke-width:0.56690001;stroke-linecap:butt;stroke-linejoin:miter;stroke-dasharray:none"
         id="path4835"
         inkscape:connector-curvature="0" />
      <path
         d="m 120.8188,610.734 a 6.099,6.099 0 0 1 6.0991,6.0991 6.099,6.099 0 1 1 -6.0991,-6.0991 z"
         style="fill:#339fad;fill-rule:evenodd;stroke:#339fad;stroke-width:0.56690001;stroke-linecap:butt;stroke-linejoin:miter;stroke-dasharray:none"
         id="path4837"
         inkscape:connector-curvature="0" />
      <path
         d="m 102.6198,626.9437 a 6.7405,6.7405 0 0 1 6.7405,6.7405 6.7405,6.7405 0 1 1 -6.7405,-6.7405 z"
         style="fill:#339fad;fill-rule:evenodd;stroke:#339fad;stroke-width:0.56690001;stroke-linecap:butt;stroke-linejoin:miter;stroke-dasharray:none"
         id="path4839"
         inkscape:connector-curvature="0" />
      <path
         d="m 129.5813,629.6397 a 10.1106,10.1106 0 0 1 10.1106,10.1106 10.1106,10.1106 0 1 1 -10.1106,-10.1106 z"
         style="fill:#339fad;fill-rule:evenodd;stroke:#339fad;stroke-width:0.56690001;stroke-linecap:butt;stroke-linejoin:miter;stroke-dasharray:none"
         id="path4841"
         inkscape:connector-curvature="0" />
      <path
         d="m 153.8464,608.4842 a 8.3489,8.3489 0 0 1 8.3489,8.3489 8.3489,8.3489 0 1 1 -8.3489,-8.3489 z"
         style="fill:#339fad;fill-rule:evenodd;stroke:#339fad;stroke-width:0.56690001;stroke-linecap:butt;stroke-linejoin:miter;stroke-dasharray:none"
         id="path4843"
         inkscape:connector-curvature="0" />
      <path
         d="m 162.6092,630.1091 a 9.6412,9.6412 0 0 1 9.6412,9.6412 9.6412,9.6412 0 1 1 -9.6412,-9.6412 z"
         style="fill:#339fad;fill-rule:evenodd;stroke:#339fad;stroke-width:0.56690001;stroke-linecap:butt;stroke-linejoin:miter;stroke-dasharray:none"
         id="path4845"
         inkscape:connector-curvature="0" />
      <path
         d="m 172.7198,580.8591 a 12.3829,12.3829 0 0 1 12.3828,12.3829 12.3829,12.3829 0 1 1 -12.3828,-12.3829 z"
         style="fill:#339fad;fill-rule:evenodd;stroke:#339fad;stroke-width:0.56690001;stroke-linecap:butt;stroke-linejoin:miter;stroke-dasharray:none"
         id="path4847"
         inkscape:connector-curvature="0" />
      <path
         d="m 194.2889,614.6093 a 10.3124,10.3124 0 0 1 10.3124,10.3124 10.3124,10.3124 0 1 1 -10.3124,-10.3124 z"
         style="fill:#339fad;fill-rule:evenodd;stroke:#339fad;stroke-width:0.56690001;stroke-linecap:butt;stroke-linejoin:miter;stroke-dasharray:none"
         id="path4849"
         inkscape:connector-curvature="0" />
      <path
         d="m 220.5765,591.4843 a 11.8681,11.8681 0 0 1 11.8681,11.868 11.8681,11.8681 0 1 1 -11.8681,-11.868 z"
         style="fill:#339fad;fill-rule:evenodd;stroke:#339fad;stroke-width:0.56690001;stroke-linecap:butt;stroke-linejoin:miter;stroke-dasharray:none"
         id="path4851"
         inkscape:connector-curvature="0" />
      <path
         d="m 203.0516,573.984 a 6.4511,6.4511 0 0 1 6.4511,6.4511 6.4511,6.4511 0 1 1 -6.4511,-6.4511 z"
         style="fill:#339fad;fill-rule:evenodd;stroke:#339fad;stroke-width:0.56690001;stroke-linecap:butt;stroke-linejoin:miter;stroke-dasharray:none"
         id="path4853"
         inkscape:connector-curvature="0" />
      <path
         d="m 244.1679,566.2803 a 5.3926,5.3926 0 0 1 5.3926,5.3926 5.3926,5.3926 0 1 1 -5.3926,-5.3926 z"
         style="fill:#339fad;fill-rule:evenodd;stroke:#339fad;stroke-width:0.56690001;stroke-linecap:butt;stroke-linejoin:miter;stroke-dasharray:none"
         id="path4855"
         inkscape:connector-curvature="0" />
      <path
         d="m 52.7409,508.3132 a 5.3926,5.3926 0 0 1 5.3926,5.3926 5.3926,5.3926 0 1 1 -5.3926,-5.3926 z"
         style="fill:#339fad;fill-rule:evenodd;stroke:#339fad;stroke-width:0.56690001;stroke-linecap:butt;stroke-linejoin:miter;stroke-dasharray:none"
         id="path4857"
         inkscape:connector-curvature="0" />
      <path
         d="m 249.5599,519.0219 a 14.2308,14.2308 0 0 1 14.2308,14.2308 14.2308,14.2308 0 1 1 -14.2308,-14.2308 z"
         style="fill:#f04e4d;fill-rule:evenodd;stroke:#f04e4d;stroke-width:0.56690001;stroke-linecap:butt;stroke-linejoin:miter;stroke-dasharray:none"
         id="path4859"
         inkscape:connector-curvature="0" />
      <path
         d="m 139.0178,480.6473 a 8.7931,8.7931 0 0 1 8.7931,8.7931 8.7931,8.7931 0 1 1 -8.7931,-8.7931 z"
         style="fill:#339fad;fill-rule:evenodd;stroke:#339fad;stroke-width:0.56690001;stroke-linecap:butt;stroke-linejoin:miter;stroke-dasharray:none"
         id="path4861"
         inkscape:connector-curvature="0" />
    </g>
    <g
       id="Layer1003">
      <path
         d="m 105.9101,556.2166 c 0,0.7861 -0.0241,1.4559 -0.0715,2.0057 -0.0465,0.5505 -0.118,1.0229 -0.2119,1.4156 -0.0943,0.3939 -0.221,0.731 -0.3773,1.0143 -0.1579,0.2834 -0.4093,0.6058 -0.755,0.9678 -0.3469,0.3623 -1.0151,0.826 -2.0057,1.3916 -0.991,0.5667 -2.2022,1.1094 -3.6333,1.6287 -1.4319,0.5186 -3.0674,0.9508 -4.9085,1.2973 -1.8399,0.3461 -3.8298,0.519 -5.9693,0.519 -4.1839,0 -7.9585,-0.6445 -11.3242,-1.9354 -3.3673,-1.2886 -6.2294,-3.215 -8.5883,-5.7799 -2.3605,-2.5634 -4.1701,-5.7642 -5.4267,-9.6027 -1.259,-3.8373 -1.8877,-8.3046 -1.8877,-13.4013 0,-5.1906 0.6919,-9.7988 2.076,-13.826 1.3844,-4.0267 3.3183,-7.4086 5.8039,-10.1457 2.4852,-2.7374 5.4662,-4.8133 8.9428,-6.2294 3.4754,-1.4145 7.3057,-2.1229 11.4903,-2.1229 1.6979,0 3.3334,0.1417 4.9073,0.4247 1.5727,0.2837 3.0279,0.6527 4.365,1.1094 1.3364,0.4554 2.5401,0.9831 3.6096,1.5802 1.0688,0.5975 1.8171,1.1098 2.2413,1.5329 0.4251,0.4247 0.7156,0.7799 0.8734,1.0625 0.1571,0.2825 0.283,0.646 0.3777,1.0861 0.0944,0.4396 0.1646,0.959 0.2124,1.5565 0.0465,0.5988 0.0702,1.3376 0.0702,2.2181 0,0.9432 -0.0316,1.746 -0.0939,2.4066 -0.0636,0.6595 -0.1733,1.1951 -0.3303,1.604 -0.1575,0.4088 -0.347,0.7076 -0.5668,0.8967 -0.2202,0.1882 -0.4716,0.2833 -0.7546,0.2833 -0.4716,0 -1.0699,-0.2754 -1.7934,-0.826 -0.7238,-0.5498 -1.6591,-1.1635 -2.808,-1.8399 -1.1485,-0.6761 -2.5168,-1.2894 -4.1049,-1.8412 -1.5886,-0.5497 -3.4846,-0.8256 -5.686,-0.8256 -2.4225,0 -4.586,0.4957 -6.4883,1.4867 -1.9035,0.9906 -3.5244,2.4063 -4.8611,4.2474 -1.3368,1.8399 -2.3511,4.0659 -3.0437,6.6766 -0.6923,2.6111 -1.0376,5.5533 -1.0376,8.8243 0,3.5868 0.369,6.6928 1.109,9.3189 0.7392,2.6277 1.793,4.7905 3.1613,6.4891 1.3683,1.6991 3.02,2.9656 4.9554,3.7983 1.9343,0.8343 4.1121,1.2511 6.5349,1.2511 2.2023,0 4.1058,-0.2601 5.7101,-0.7791 1.6039,-0.5182 2.9797,-1.0928 4.1286,-1.7219 1.1485,-0.6287 2.0917,-1.1955 2.8313,-1.6994 0.7392,-0.5021 1.3135,-0.755 1.7224,-0.755 0.3145,0 0.5667,0.0635 0.7553,0.1894 0.1891,0.1263 0.3454,0.3773 0.4721,0.7546 0.1251,0.3777 0.2198,0.9046 0.2833,1.5806 0.0616,0.6765 0.0944,1.5811 0.0944,2.7134 z"
         style="fill:#159da9;fill-rule:evenodd"
         id="path4864"
         inkscape:connector-curvature="0" />
      <path
         d="m 158.1963,563.8617 c 0,0.3461 -0.0639,0.637 -0.1894,0.873 -0.1263,0.236 -0.4247,0.4321 -0.8963,0.5896 -0.472,0.1563 -1.1639,0.2668 -2.076,0.3303 -0.9132,0.062 -2.156,0.0948 -3.7284,0.0948 -1.3213,0 -2.3747,-0.0328 -3.1613,-0.0948 -0.7865,-0.0635 -1.4085,-0.1811 -1.8636,-0.3544 -0.4566,-0.1717 -0.7791,-0.3927 -0.9681,-0.6599 -0.1883,-0.2675 -0.3461,-0.5904 -0.4716,-0.9677 l -5.4741,-13.6369 c -0.6602,-1.5416 -1.3059,-2.9099 -1.9338,-4.1065 -0.6307,-1.1947 -1.3304,-2.1932 -2.1004,-2.9955 -0.7712,-0.8028 -1.6596,-1.4074 -2.6668,-1.8171 -1.0068,-0.4085 -2.1707,-0.6133 -3.4916,-0.6133 h -3.8697 v 23.2632 c 0,0.3154 -0.1015,0.5984 -0.3063,0.8502 -0.2052,0.2518 -0.5427,0.4562 -1.0147,0.6133 -0.4716,0.1578 -1.1019,0.2833 -1.8873,0.3777 -0.7873,0.0939 -1.7929,0.1417 -3.02,0.1417 -1.1958,0 -2.1943,-0.0478 -2.9967,-0.1417 -0.8015,-0.0944 -1.4389,-0.2199 -1.9117,-0.3777 -0.4717,-0.1571 -0.8016,-0.3615 -0.9903,-0.6133 -0.1886,-0.2518 -0.2833,-0.5348 -0.2833,-0.8502 V 508.321 c 0,-1.3841 0.3544,-2.3838 1.062,-2.9963 0.7073,-0.6141 1.5811,-0.9204 2.6182,-0.9204 h 15.808 c 1.6055,0 2.9261,0.0324 3.9645,0.0947 1.0379,0.0628 1.982,0.1409 2.8317,0.2353 2.4532,0.3469 4.6626,0.944 6.6292,1.7933 1.9662,0.8493 3.6341,1.9576 5.0024,3.3263 1.3683,1.3687 2.4142,2.9892 3.1376,4.8607 0.7238,1.8727 1.0861,4.0193 1.0861,6.4417 0,2.0448 -0.2593,3.9088 -0.7786,5.5913 -0.5194,1.6836 -1.2827,3.1857 -2.2887,4.5067 -1.008,1.3213 -2.25,2.4702 -3.7284,3.4446 -1.4785,0.9761 -3.1621,1.7622 -5.049,2.3594 0.9121,0.4412 1.7697,0.9752 2.5716,1.6051 0.802,0.6291 1.5578,1.3916 2.2654,2.2882 0.7077,0.8971 1.3762,1.9189 2.0053,3.0666 0.6287,1.1497 1.2428,2.4469 1.8412,3.8942 l 5.1425,12.033 c 0.472,1.1946 0.7861,2.0688 0.9436,2.6186 0.1579,0.5506 0.2368,0.9827 0.2368,1.2977 z m -15.9974,-41.4318 c 0,-2.0128 -0.4562,-3.7114 -1.3683,-5.0963 -0.9125,-1.3837 -2.4067,-2.3589 -4.483,-2.9257 -0.6295,-0.157 -1.3447,-0.2825 -2.1474,-0.3773 -0.8024,-0.0947 -1.911,-0.142 -3.3267,-0.142 h -5.5683 v 17.3187 h 6.3233 c 1.7618,0 3.3034,-0.2123 4.6247,-0.6366 1.3214,-0.4254 2.4221,-1.0226 3.3038,-1.7937 0.8801,-0.77 1.54,-1.6904 1.9812,-2.7603 0.4405,-1.0696 0.6607,-2.265 0.6607,-3.5868 z"
         style="fill:#159da9;fill-rule:evenodd"
         id="path4866"
         inkscape:connector-curvature="0" />
      <path
         d="m 175.8951,563.7665 c 0,0.3154 -0.103,0.5984 -0.3062,0.8502 -0.2045,0.2518 -0.5415,0.4562 -1.0147,0.6133 -0.472,0.1578 -1.1015,0.2833 -1.8869,0.3777 -0.7866,0.0939 -1.793,0.1417 -3.0212,0.1417 -1.1958,0 -2.1927,-0.0478 -2.9947,-0.1417 -0.8036,-0.0944 -1.4398,-0.2199 -1.9118,-0.3777 -0.472,-0.1571 -0.8102,-0.3615 -1.0147,-0.6133 -0.2048,-0.2518 -0.3066,-0.5348 -0.3066,-0.8502 V 506.103 c 0,-0.313 0.1018,-0.5972 0.3066,-0.8494 0.2045,-0.2518 0.5498,-0.4566 1.0384,-0.6137 0.4874,-0.1574 1.1236,-0.2829 1.9118,-0.3773 0.7854,-0.0947 1.7752,-0.1409 2.971,-0.1409 1.2282,0 2.2346,0.0462 3.0212,0.1409 0.7854,0.0944 1.4149,0.2199 1.8869,0.3773 0.4732,0.1571 0.8102,0.3619 1.0147,0.6137 0.2032,0.2522 0.3062,0.5364 0.3062,0.8494 z"
         style="fill:#159da9;fill-rule:evenodd"
         id="path4868"
         inkscape:connector-curvature="0" />
      <path
         d="m 227.5705,556.2166 c 0,0.7861 -0.0237,1.4559 -0.0711,2.0057 -0.0473,0.5505 -0.1184,1.0229 -0.2115,1.4156 -0.0947,0.3939 -0.2214,0.731 -0.3773,1.0143 -0.1587,0.2834 -0.4093,0.6058 -0.7562,0.9678 -0.3465,0.3623 -1.0151,0.826 -2.0049,1.3916 -0.9914,0.5667 -2.2027,1.1094 -3.6337,1.6287 -1.4315,0.5186 -3.0674,0.9508 -4.9081,1.2973 -1.8403,0.3461 -3.8302,0.519 -5.9701,0.519 -4.1823,0 -7.9585,-0.6445 -11.3234,-1.9354 -3.3681,-1.2886 -6.2294,-3.215 -8.5891,-5.7799 -2.3586,-2.5634 -4.1685,-5.7642 -5.4259,-9.6027 -1.2586,-3.8373 -1.8881,-8.3046 -1.8881,-13.4013 0,-5.1906 0.6922,-9.7988 2.0759,-13.826 1.3857,-4.0267 3.3196,-7.4086 5.8048,-10.1457 2.4852,-2.7374 5.4661,-4.8133 8.9428,-6.2294 3.475,-1.4145 7.3052,-2.1229 11.4903,-2.1229 1.6974,0 3.3333,0.1417 4.9065,0.4247 1.5735,0.2837 3.0283,0.6527 4.3662,1.1094 1.3351,0.4554 2.5397,0.9831 3.6088,1.5802 1.068,0.5975 1.8171,1.1098 2.2417,1.5329 0.4247,0.4247 0.7156,0.7799 0.873,1.0625 0.1575,0.2825 0.2826,0.646 0.3773,1.0861 0.0948,0.4396 0.1642,0.959 0.2116,1.5565 0.0473,0.5988 0.071,1.3376 0.071,2.2181 0,0.9432 -0.0304,1.746 -0.0931,2.4066 -0.064,0.6595 -0.1741,1.1951 -0.33,1.604 -0.1586,0.4088 -0.3481,0.7076 -0.5683,0.8967 -0.2198,0.1882 -0.4704,0.2833 -0.7546,0.2833 -0.4704,0 -1.0691,-0.2754 -1.793,-0.826 -0.7242,-0.5498 -1.6584,-1.1635 -2.8068,-1.8399 -1.1489,-0.6761 -2.5176,-1.2894 -4.1061,-1.8412 -1.5886,-0.5497 -3.485,-0.8256 -5.686,-0.8256 -2.4229,0 -4.5864,0.4957 -6.4883,1.4867 -1.9031,0.9906 -3.524,2.4063 -4.8604,4.2474 -1.3379,1.8399 -2.3518,4.0659 -3.0436,6.6766 -0.6935,2.6111 -1.0372,5.5533 -1.0372,8.8243 0,3.5868 0.369,6.6928 1.1082,9.3189 0.7392,2.6277 1.7934,4.7905 3.1621,6.4891 1.3671,1.6991 3.0196,2.9656 4.955,3.7983 1.9339,0.8343 4.1113,1.2511 6.5341,1.2511 2.2027,0 4.1057,-0.2601 5.7097,-0.7791 1.6039,-0.5182 2.9809,-1.0928 4.1298,-1.7219 1.1484,-0.6287 2.0909,-1.1955 2.8317,-1.6994 0.738,-0.5021 1.3131,-0.755 1.7207,-0.755 0.3162,0 0.5668,0.0635 0.7562,0.1894 0.1895,0.1263 0.3454,0.3773 0.4721,0.7546 0.1251,0.3777 0.2198,0.9046 0.2841,1.5806 0.0612,0.6765 0.0932,1.5811 0.0932,2.7134 z"
         style="fill:#159da9;fill-rule:evenodd"
         id="path4870"
         inkscape:connector-curvature="0" />
    </g>
  </g>
  <g
     id="Layer1004"
     transform="translate(0,-441.88977)" />
</svg>
