<?xml version="1.0" encoding="UTF-8" standalone="no"?>
<svg
   xmlns:dc="http://purl.org/dc/elements/1.1/"
   xmlns:cc="http://creativecommons.org/ns#"
   xmlns:rdf="http://www.w3.org/1999/02/22-rdf-syntax-ns#"
   xmlns:svg="http://www.w3.org/2000/svg"
   xmlns="http://www.w3.org/2000/svg"
   xmlns:sodipodi="http://sodipodi.sourceforge.net/DTD/sodipodi-0.dtd"
   xmlns:inkscape="http://www.inkscape.org/namespaces/inkscape"
   viewBox="0 0 599.99999 300"
   id="svg4875"
   height="300"
   width="600"
   version="1.1"
   sodipodi:docname="cric_horizontal_black.svg"
   inkscape:version="0.92.4 5da689c313, 2019-01-14">
  <sodipodi:namedview
     pagecolor="#ffffff"
     bordercolor="#666666"
     borderopacity="1"
     objecttolerance="10"
     gridtolerance="10"
     guidetolerance="10"
     inkscape:pageopacity="0"
     inkscape:pageshadow="2"
     inkscape:window-width="3200"
     inkscape:window-height="1688"
     id="namedview5095"
     showgrid="false"
     inkscape:zoom="3.1714784"
     inkscape:cx="307.39742"
     inkscape:cy="122.73953"
     inkscape:window-x="0"
     inkscape:window-y="38"
     inkscape:window-maximized="1"
     inkscape:current-layer="svg4875" />
  <metadata
     id="metadata4881">
    <rdf:RDF>
      <cc:Work
         rdf:about="">
        <dc:format>image/svg+xml</dc:format>
        <dc:type
           rdf:resource="http://purl.org/dc/dcmitype/StillImage" />
        <dc:title></dc:title>
      </cc:Work>
    </rdf:RDF>
  </metadata>
  <defs
     id="defs4879" />
  <g
     id="g15828">
    <g
       style="fill:#000000"
       transform="translate(1.3109824,-383.0765)"
       id="Layer1000">
      <path
         inkscape:connector-curvature="0"
         d="m 298.7073,524.9344 c 0,0.2104 -0.004,0.3906 -0.0173,0.5366 -0.0127,0.146 -0.0343,0.2747 -0.0601,0.3779 -0.0215,0.1071 -0.0558,0.1973 -0.0986,0.2747 -0.0431,0.0728 -0.1075,0.1587 -0.2019,0.2534 -0.0901,0.0944 -0.2704,0.2188 -0.5323,0.369 -0.2662,0.146 -0.5882,0.292 -0.9703,0.4295 -0.3821,0.1329 -0.8158,0.2489 -1.3051,0.339 -0.4895,0.0902 -1.0219,0.1375 -1.5928,0.1375 -1.112,0 -2.1166,-0.1718 -3.0138,-0.5153 -0.8974,-0.3433 -1.6616,-0.8587 -2.2884,-1.5412 -0.631,-0.6826 -1.112,-1.5327 -1.4468,-2.5589 -0.3347,-1.0216 -0.5023,-2.211 -0.5023,-3.5677 0,-1.3821 0.1846,-2.6101 0.5539,-3.6833 0.3691,-1.0735 0.8844,-1.9749 1.5455,-2.7048 0.6613,-0.7299 1.4556,-1.2793 2.3828,-1.6571 0.9229,-0.3779 1.9448,-0.5667 3.0611,-0.5667 0.4507,0 0.8844,0.0386 1.3051,0.1157 0.4206,0.0731 0.807,0.1717 1.1633,0.2965 0.3563,0.1202 0.6741,0.2616 0.9618,0.4206 0.2835,0.163 0.485,0.3005 0.5967,0.4122 0.1117,0.1159 0.1891,0.2103 0.2319,0.2832 0.0428,0.0774 0.0774,0.1717 0.0986,0.2877 0.0258,0.1202 0.0474,0.2577 0.0601,0.4164 0.0131,0.159 0.0173,0.3521 0.0173,0.5882 0,0.2491 -0.009,0.4637 -0.0258,0.6398 -0.017,0.176 -0.047,0.3177 -0.0859,0.4249 -0.0428,0.1074 -0.0944,0.189 -0.1502,0.2361 -0.0601,0.0516 -0.1287,0.0774 -0.2018,0.0774 -0.1245,0 -0.2832,-0.0731 -0.4765,-0.2191 -0.1931,-0.146 -0.4422,-0.309 -0.747,-0.4893 -0.305,-0.1803 -0.6698,-0.3436 -1.0947,-0.4895 -0.4209,-0.146 -0.9232,-0.2189 -1.5114,-0.2189 -0.6438,0 -1.2192,0.133 -1.7258,0.3949 -0.5065,0.2662 -0.936,0.6398 -1.2923,1.129 -0.3563,0.4938 -0.6267,1.0863 -0.8113,1.7819 -0.1848,0.6911 -0.2749,1.4768 -0.2749,2.3482 0,0.9533 0.0989,1.7819 0.2962,2.4817 0.1976,0.6954 0.4768,1.2751 0.8416,1.7258 0.3606,0.4507 0.8028,0.79 1.3181,1.0088 0.5151,0.2234 1.0948,0.3351 1.7388,0.3351 0.5836,0 1.0905,-0.0689 1.5196,-0.2061 0.425,-0.1375 0.7901,-0.292 1.0948,-0.4552 0.3092,-0.1676 0.5581,-0.3178 0.7557,-0.4507 0.1973,-0.1333 0.3478,-0.2019 0.4592,-0.2019 0.0816,0 0.1502,0.0173 0.1976,0.0516 0.0516,0.0343 0.0944,0.0987 0.1287,0.2018 0.03,0.0987 0.0558,0.2404 0.0731,0.4207 0.017,0.1845 0.0258,0.4249 0.0258,0.7299 z m 12.0124,1.1591 c 0,0.2446 -0.009,0.4465 -0.0301,0.614 -0.0215,0.163 -0.0516,0.2962 -0.0944,0.3949 -0.043,0.1031 -0.0946,0.176 -0.159,0.2233 -0.0601,0.0471 -0.1329,0.0686 -0.2061,0.0686 h -8.1657 c -0.2747,0 -0.5066,-0.0816 -0.6954,-0.2446 -0.189,-0.1633 -0.2834,-0.4294 -0.2834,-0.7985 v -14.1934 c 0,-0.3693 0.0944,-0.6355 0.2834,-0.7985 0.1888,-0.1633 0.4207,-0.2449 0.6954,-0.2449 h 8.1272 c 0.0728,0 0.1417,0.0215 0.2018,0.0643 0.0559,0.0431 0.1072,0.116 0.1503,0.2192 0.0385,0.1074 0.0728,0.2403 0.0943,0.4036 0.0216,0.1673 0.0301,0.3733 0.0301,0.6268 0,0.2361 -0.008,0.4334 -0.0301,0.6009 -0.0215,0.1633 -0.0515,0.2962 -0.0943,0.3951 -0.0431,0.1029 -0.0944,0.1761 -0.1503,0.2231 -0.0601,0.0474 -0.129,0.0686 -0.2018,0.0686 h -5.8088 v 3.9671 h 4.8943 c 0.0771,0 0.146,0.0216 0.2061,0.0686 0.0644,0.0474 0.1159,0.116 0.1588,0.2146 0.043,0.0947 0.0731,0.2234 0.0943,0.3909 0.0216,0.163 0.0301,0.3606 0.0301,0.5924 0,0.2447 -0.008,0.4465 -0.0301,0.6052 -0.0212,0.1591 -0.0513,0.2878 -0.0943,0.3821 -0.0429,0.099 -0.0944,0.1676 -0.1588,0.2061 -0.0601,0.0431 -0.129,0.0644 -0.2061,0.0644 h -4.8943 v 4.5853 h 5.8473 c 0.0774,0 0.146,0.0215 0.2061,0.0686 0.0644,0.0473 0.116,0.1202 0.159,0.2234 0.0428,0.0986 0.0729,0.2318 0.0944,0.3948 0.0213,0.1676 0.0301,0.3694 0.0301,0.614 z m 16.3528,0.1417 c 0,0.1931 -0.0343,0.3649 -0.0987,0.5194 -0.0689,0.1502 -0.159,0.2749 -0.2749,0.3778 -0.1114,0.0987 -0.2447,0.1718 -0.3992,0.2191 -0.159,0.0471 -0.3135,0.0686 -0.4722,0.0686 h -1.4125 c -0.2962,0 -0.5496,-0.03 -0.7642,-0.0859 -0.2104,-0.0601 -0.4079,-0.1675 -0.5882,-0.322 -0.1846,-0.1545 -0.3563,-0.3648 -0.5239,-0.631 -0.1672,-0.2619 -0.3563,-0.6055 -0.5666,-1.0261 l -4.0399,-7.6119 c -0.2362,-0.4552 -0.4723,-0.9445 -0.7169,-1.4683 -0.2447,-0.5239 -0.4595,-1.0347 -0.6526,-1.5285 h -0.0258 c 0.0343,0.6055 0.0601,1.2065 0.0774,1.8077 0.017,0.5967 0.0258,1.2192 0.0258,1.8544 v 8.5221 c 0,0.0816 -0.0215,0.159 -0.0689,0.2276 -0.047,0.0644 -0.1286,0.1202 -0.2403,0.1675 -0.1117,0.0471 -0.2662,0.0814 -0.4595,0.1072 -0.1931,0.0258 -0.4422,0.0388 -0.7427,0.0388 -0.2962,0 -0.5409,-0.013 -0.7342,-0.0388 -0.193,-0.0258 -0.3433,-0.0601 -0.4507,-0.1072 -0.1117,-0.0431 -0.1888,-0.1031 -0.2276,-0.1675 -0.0428,-0.0686 -0.0644,-0.146 -0.0644,-0.2276 v -14.6313 c 0,-0.3949 0.116,-0.6911 0.3479,-0.8887 0.2276,-0.1973 0.5108,-0.2962 0.8501,-0.2962 h 1.773 c 0.3178,0 0.5882,0.0258 0.8071,0.0816 0.2191,0.0559 0.4121,0.146 0.5839,0.2705 0.1718,0.1244 0.3348,0.3004 0.4853,0.5238 0.1502,0.2188 0.3047,0.498 0.4635,0.8243 l 3.164,5.9548 c 0.1848,0.3605 0.3651,0.7168 0.5454,1.0646 0.1803,0.3479 0.3563,0.6954 0.5196,1.0432 0.1672,0.3478 0.3305,0.6914 0.4892,1.0261 0.1633,0.3391 0.3178,0.6741 0.468,1.0089 h 0.0128 c -0.0255,-0.5882 -0.0471,-1.2022 -0.0601,-1.8374 -0.0128,-0.6398 -0.017,-1.2495 -0.017,-1.8289 v -7.642 c 0,-0.0816 0.0258,-0.159 0.0771,-0.2276 0.0473,-0.0643 0.1332,-0.1244 0.2491,-0.176 0.1202,-0.0516 0.2747,-0.0859 0.468,-0.1072 0.1931,-0.0215 0.4422,-0.03 0.7427,-0.03 0.2877,0 0.5281,0.008 0.7212,0.03 0.1933,0.0213 0.3393,0.0556 0.4464,0.1072 0.1032,0.0516 0.1806,0.1117 0.2191,0.176 0.0428,0.0686 0.0644,0.1417 0.0644,0.2276 z m 14.3651,-13.7641 c 0,0.2449 -0.008,0.4509 -0.03,0.6267 -0.0216,0.1718 -0.0516,0.3093 -0.0944,0.4122 -0.0431,0.1074 -0.0947,0.1848 -0.1591,0.2318 -0.0601,0.0516 -0.1329,0.0774 -0.206,0.0774 h -4.07 v 13.1244 c 0,0.0814 -0.0255,0.1588 -0.0814,0.2274 -0.0558,0.0646 -0.146,0.1204 -0.2707,0.1632 -0.1244,0.0386 -0.2962,0.0729 -0.5108,0.0987 -0.2146,0.0258 -0.4807,0.0388 -0.7985,0.0388 -0.3178,0 -0.5839,-0.013 -0.7985,-0.0388 -0.2146,-0.0258 -0.3864,-0.0601 -0.5108,-0.0987 -0.1248,-0.0428 -0.2149,-0.0986 -0.2705,-0.1632 -0.0558,-0.0686 -0.0816,-0.146 -0.0816,-0.2274 v -13.1244 h -4.07 c -0.0816,0 -0.1545,-0.0258 -0.2146,-0.0774 -0.0558,-0.047 -0.1074,-0.1244 -0.1505,-0.2318 -0.0385,-0.1029 -0.0728,-0.2404 -0.0944,-0.4122 -0.0212,-0.1758 -0.03,-0.3818 -0.03,-0.6267 0,-0.2489 0.009,-0.4635 0.03,-0.6395 0.0216,-0.1761 0.0559,-0.3178 0.0944,-0.421 0.0431,-0.1071 0.0947,-0.1803 0.1505,-0.2273 0.0601,-0.0474 0.133,-0.0689 0.2146,-0.0689 h 11.4628 c 0.0731,0 0.1417,0.0215 0.206,0.0689 0.0644,0.047 0.116,0.1202 0.1591,0.2273 0.0428,0.1032 0.0728,0.2449 0.0944,0.421 0.0215,0.176 0.03,0.3906 0.03,0.6395 z m 11.5702,13.6224 c 0,0.2446 -0.009,0.4465 -0.0301,0.614 -0.0215,0.163 -0.0516,0.2962 -0.0944,0.3949 -0.043,0.1031 -0.0946,0.176 -0.159,0.2233 -0.0601,0.0471 -0.1329,0.0686 -0.2061,0.0686 h -8.1657 c -0.2747,0 -0.5066,-0.0816 -0.6954,-0.2446 -0.189,-0.1633 -0.2834,-0.4294 -0.2834,-0.7985 v -14.1934 c 0,-0.3693 0.0944,-0.6355 0.2834,-0.7985 0.1888,-0.1633 0.4207,-0.2449 0.6954,-0.2449 h 8.1272 c 0.0728,0 0.1417,0.0215 0.2018,0.0643 0.0559,0.0431 0.1072,0.116 0.1502,0.2192 0.0386,0.1074 0.0729,0.2403 0.0944,0.4036 0.0216,0.1673 0.0301,0.3733 0.0301,0.6268 0,0.2361 -0.009,0.4334 -0.0301,0.6009 -0.0215,0.1633 -0.0515,0.2962 -0.0944,0.3951 -0.043,0.1029 -0.0943,0.1761 -0.1502,0.2231 -0.0601,0.0474 -0.129,0.0686 -0.2018,0.0686 h -5.8088 v 3.9671 h 4.8943 c 0.0771,0 0.146,0.0216 0.2061,0.0686 0.0644,0.0474 0.1159,0.116 0.1587,0.2146 0.0431,0.0947 0.0732,0.2234 0.0944,0.3909 0.0216,0.163 0.0301,0.3606 0.0301,0.5924 0,0.2447 -0.009,0.4465 -0.0301,0.6052 -0.0212,0.1591 -0.0513,0.2878 -0.0944,0.3821 -0.0428,0.099 -0.0943,0.1676 -0.1587,0.2061 -0.0601,0.0431 -0.129,0.0644 -0.2061,0.0644 h -4.8943 v 4.5853 h 5.8473 c 0.0774,0 0.146,0.0215 0.2061,0.0686 0.0644,0.0473 0.116,0.1202 0.159,0.2234 0.0428,0.0986 0.0729,0.2318 0.0944,0.3948 0.0213,0.1676 0.0301,0.3694 0.0301,0.614 z m 15.0134,0.8759 c 0,0.0902 -0.0173,0.1673 -0.0516,0.2316 -0.0343,0.0646 -0.1117,0.1159 -0.2361,0.159 -0.1287,0.0386 -0.3093,0.0686 -0.5539,0.0859 -0.2446,0.017 -0.5752,0.0258 -0.9916,0.0258 -0.352,0 -0.6312,-0.009 -0.8416,-0.0258 -0.2103,-0.0173 -0.3778,-0.0473 -0.498,-0.0944 -0.1202,-0.0473 -0.2061,-0.1032 -0.2577,-0.176 -0.047,-0.0731 -0.0901,-0.159 -0.1244,-0.2577 l -1.4684,-3.645 c -0.176,-0.4122 -0.3475,-0.7813 -0.515,-1.099 -0.1676,-0.3221 -0.3563,-0.5882 -0.5624,-0.8028 -0.2061,-0.2146 -0.4465,-0.3736 -0.7169,-0.4853 -0.2662,-0.1071 -0.5797,-0.163 -0.9318,-0.163 h -1.0346 v 6.2209 c 0,0.0814 -0.0258,0.1588 -0.0816,0.2231 -0.0559,0.0689 -0.146,0.1247 -0.2705,0.1675 -0.1244,0.0386 -0.2919,0.0729 -0.5023,0.0987 -0.206,0.0258 -0.4765,0.0388 -0.7985,0.0388 -0.3177,0 -0.5839,-0.013 -0.7985,-0.0388 -0.2146,-0.0258 -0.3821,-0.0601 -0.5066,-0.0987 -0.1244,-0.0428 -0.2148,-0.0986 -0.2619,-0.1632 -0.0516,-0.0686 -0.0774,-0.146 -0.0774,-0.2274 v -14.7858 c 0,-0.3693 0.0944,-0.6355 0.2835,-0.7985 0.1888,-0.1633 0.4207,-0.2449 0.6953,-0.2449 h 4.216 c 0.4252,0 0.7815,0.009 1.0562,0.0258 0.2747,0.0173 0.5281,0.0385 0.7557,0.0601 0.6525,0.0944 1.2407,0.2534 1.7643,0.4807 0.5238,0.2234 0.9703,0.5196 1.3354,0.8844 0.3648,0.3652 0.644,0.7943 0.8371,1.2924 0.1933,0.498 0.2877,1.0689 0.2877,1.7172 0,0.5411 -0.0686,1.0392 -0.2061,1.4856 -0.1417,0.4507 -0.3436,0.8501 -0.614,1.2022 -0.2661,0.3518 -0.5967,0.6568 -0.9918,0.9145 -0.3949,0.2616 -0.8456,0.4677 -1.3479,0.631 0.2446,0.1159 0.4723,0.2576 0.6868,0.4249 0.2146,0.1675 0.4165,0.3736 0.6055,0.6139 0.1888,0.2404 0.3691,0.5109 0.5366,0.8201 0.1673,0.3047 0.3305,0.6525 0.4893,1.0389 l 1.3782,3.2156 c 0.1244,0.3178 0.2103,0.5497 0.2489,0.6999 0.0431,0.146 0.0646,0.2619 0.0646,0.3478 z m -4.2761,-11.0551 c 0,-0.5366 -0.1202,-0.9918 -0.3651,-1.3567 -0.2446,-0.3693 -0.6437,-0.631 -1.1976,-0.7815 -0.1675,-0.0428 -0.3563,-0.0728 -0.5712,-0.0986 -0.2146,-0.0258 -0.5108,-0.0386 -0.8886,-0.0386 h -1.4854 v 4.6109 h 1.6872 c 0.4722,0 0.8801,-0.0559 1.2322,-0.1718 0.3563,-0.1117 0.6483,-0.2704 0.8844,-0.4765 0.2361,-0.2018 0.4122,-0.4507 0.5281,-0.7342 0.1159,-0.2832 0.176,-0.6009 0.176,-0.953 z m 21.6635,-3.4432 c 0,0.2534 -0.008,0.4637 -0.03,0.6355 -0.0216,0.1718 -0.0559,0.309 -0.1029,0.4121 -0.0474,0.0987 -0.0989,0.1761 -0.1548,0.2231 -0.0601,0.0516 -0.1287,0.0774 -0.2015,0.0774 h -5.3323 v 4.379 h 5.0015 c 0.0774,0 0.146,0.0215 0.2018,0.0646 0.0601,0.0386 0.1117,0.1114 0.159,0.2103 0.0471,0.1029 0.0771,0.2362 0.0987,0.4034 0.0215,0.1675 0.0343,0.3779 0.0343,0.6313 0,0.2489 -0.0128,0.4592 -0.0343,0.6267 -0.0216,0.1675 -0.0516,0.3047 -0.0987,0.4164 -0.0473,0.1075 -0.0989,0.1846 -0.159,0.2319 -0.0558,0.0473 -0.1244,0.0686 -0.2018,0.0686 h -5.0015 v 6.0664 c 0,0.0902 -0.0258,0.1718 -0.0774,0.2404 -0.047,0.0644 -0.1372,0.1202 -0.2704,0.1675 -0.1287,0.0471 -0.3005,0.0814 -0.5065,0.1072 -0.2104,0.0258 -0.4808,0.0388 -0.8071,0.0388 -0.3177,0 -0.5839,-0.013 -0.7988,-0.0388 -0.2146,-0.0258 -0.3863,-0.0601 -0.5108,-0.1072 -0.1244,-0.0431 -0.2146,-0.1031 -0.2704,-0.1675 -0.0558,-0.0686 -0.0816,-0.1502 -0.0816,-0.2404 v -14.76 c 0,-0.3693 0.0944,-0.6355 0.2834,-0.7985 0.1888,-0.1633 0.4207,-0.2449 0.6999,-0.2449 h 7.672 c 0.0728,0 0.1414,0.0215 0.2015,0.0689 0.0559,0.047 0.1074,0.1202 0.1548,0.2273 0.047,0.1032 0.0813,0.2449 0.1029,0.421 0.0215,0.176 0.03,0.3906 0.03,0.6395 z m 17.1213,6.5945 c 0,1.3478 -0.1675,2.5543 -0.5023,3.619 -0.3348,1.0647 -0.8328,1.9706 -1.4984,2.709 -0.661,0.7427 -1.4811,1.3096 -2.4557,1.7003 -0.9788,0.3906 -2.1078,0.5839 -3.3916,0.5839 -1.2665,0 -2.3698,-0.1675 -3.31,-0.4981 -0.9445,-0.3305 -1.7303,-0.8331 -2.3613,-1.5156 -0.6267,-0.6784 -1.099,-1.5412 -1.4125,-2.5886 -0.3135,-1.0477 -0.4722,-2.2884 -0.4722,-3.7225 0,-1.3136 0.1675,-2.4984 0.5023,-3.5504 0.3347,-1.0516 0.8328,-1.9448 1.4984,-2.6833 0.661,-0.7384 1.4811,-1.305 2.4556,-1.6956 0.9788,-0.3952 2.1124,-0.5925 3.4044,-0.5925 1.2322,0 2.3185,0.163 3.263,0.4893 0.9402,0.3262 1.7302,0.8285 2.3612,1.5111 0.6356,0.6784 1.1121,1.5327 1.4341,2.5674 0.322,1.0391 0.485,2.2583 0.485,3.6666 z m -3.4776,0.1672 c 0,-0.8543 -0.0686,-1.6313 -0.2018,-2.3312 -0.1329,-0.6996 -0.3605,-1.3008 -0.6826,-1.7989 -0.322,-0.4977 -0.7511,-0.8844 -1.2877,-1.159 -0.5369,-0.2705 -1.2065,-0.408 -2.0092,-0.408 -0.8116,0 -1.4899,0.1548 -2.0308,0.4595 -0.5454,0.3048 -0.9876,0.7169 -1.3223,1.228 -0.3348,0.5108 -0.5709,1.1075 -0.7084,1.7901 -0.1375,0.6868 -0.2061,1.4082 -0.2061,2.1725 0,0.8886 0.0686,1.6871 0.2018,2.3955 0.133,0.7084 0.3606,1.3139 0.6784,1.8204 0.3174,0.5023 0.7426,0.8844 1.2792,1.1506 0.5366,0.2619 1.2107,0.3949 2.0223,0.3949 0.8112,0 1.4896,-0.1503 2.0304,-0.455 0.5454,-0.3007 0.9876,-0.7129 1.3224,-1.2322 0.335,-0.5196 0.5712,-1.1248 0.7084,-1.8162 0.1374,-0.691 0.206,-1.4295 0.206,-2.211 z m 18.3493,7.7366 c 0,0.0902 -0.0173,0.1673 -0.0516,0.2316 -0.0343,0.0646 -0.1117,0.1159 -0.2361,0.159 -0.1287,0.0386 -0.3093,0.0686 -0.5539,0.0859 -0.2447,0.017 -0.5752,0.0258 -0.9916,0.0258 -0.3521,0 -0.6313,-0.009 -0.8416,-0.0258 -0.2103,-0.0173 -0.3779,-0.0473 -0.498,-0.0944 -0.1202,-0.0473 -0.2061,-0.1032 -0.2577,-0.176 -0.0471,-0.0731 -0.0902,-0.159 -0.1245,-0.2577 l -1.4683,-3.645 c -0.176,-0.4122 -0.3475,-0.7813 -0.5151,-1.099 -0.1675,-0.3221 -0.3563,-0.5882 -0.5623,-0.8028 -0.2061,-0.2146 -0.4465,-0.3736 -0.7169,-0.4853 -0.2662,-0.1071 -0.5797,-0.163 -0.9318,-0.163 h -1.0346 v 6.2209 c 0,0.0814 -0.0258,0.1588 -0.0817,0.2231 -0.0558,0.0689 -0.1459,0.1247 -0.2704,0.1675 -0.1244,0.0386 -0.292,0.0729 -0.5023,0.0987 -0.2061,0.0258 -0.4765,0.0388 -0.7985,0.0388 -0.3178,0 -0.5839,-0.013 -0.7985,-0.0388 -0.2146,-0.0258 -0.3821,-0.0601 -0.5066,-0.0987 -0.1244,-0.0428 -0.2148,-0.0986 -0.2619,-0.1632 -0.0516,-0.0686 -0.0774,-0.146 -0.0774,-0.2274 v -14.7858 c 0,-0.3693 0.0944,-0.6355 0.2835,-0.7985 0.1888,-0.1633 0.4206,-0.2449 0.6953,-0.2449 h 4.216 c 0.4252,0 0.7815,0.009 1.0562,0.0258 0.2747,0.0173 0.5281,0.0385 0.7557,0.0601 0.6525,0.0944 1.2407,0.2534 1.7643,0.4807 0.5238,0.2234 0.9703,0.5196 1.3354,0.8844 0.3648,0.3652 0.644,0.7943 0.837,1.2924 0.1934,0.498 0.2878,1.0689 0.2878,1.7172 0,0.5411 -0.0686,1.0392 -0.2061,1.4856 -0.1417,0.4507 -0.3436,0.8501 -0.614,1.2022 -0.2662,0.3518 -0.5967,0.6568 -0.9918,0.9145 -0.3949,0.2616 -0.8456,0.4677 -1.3479,0.631 0.2446,0.1159 0.4722,0.2576 0.6868,0.4249 0.2146,0.1675 0.4164,0.3736 0.6055,0.6139 0.1888,0.2404 0.3691,0.5109 0.5366,0.8201 0.1672,0.3047 0.3305,0.6525 0.4893,1.0389 l 1.3782,3.2156 c 0.1244,0.3178 0.2103,0.5497 0.2488,0.6999 0.0431,0.146 0.0647,0.2619 0.0647,0.3478 z m -4.2761,-11.0551 c 0,-0.5366 -0.1202,-0.9918 -0.3651,-1.3567 -0.2446,-0.3693 -0.6437,-0.631 -1.1976,-0.7815 -0.1676,-0.0428 -0.3563,-0.0728 -0.5712,-0.0986 -0.2146,-0.0258 -0.5108,-0.0386 -0.8887,-0.0386 h -1.4853 v 4.6109 h 1.6872 c 0.4722,0 0.8801,-0.0559 1.2322,-0.1718 0.3563,-0.1117 0.6483,-0.2704 0.8844,-0.4765 0.2361,-0.2018 0.4121,-0.4507 0.5281,-0.7342 0.1159,-0.2832 0.176,-0.6009 0.176,-0.953 z m 24.6002,11.0551 c 0,0.0902 -0.0173,0.1673 -0.0516,0.2316 -0.0343,0.0646 -0.1117,0.1159 -0.2361,0.159 -0.1287,0.0386 -0.3093,0.0686 -0.5539,0.0859 -0.2446,0.017 -0.5752,0.0258 -0.9916,0.0258 -0.352,0 -0.6312,-0.009 -0.8416,-0.0258 -0.2103,-0.0173 -0.3778,-0.0473 -0.498,-0.0944 -0.1202,-0.0473 -0.2061,-0.1032 -0.2577,-0.176 -0.047,-0.0731 -0.0901,-0.159 -0.1244,-0.2577 l -1.4684,-3.645 c -0.176,-0.4122 -0.3475,-0.7813 -0.515,-1.099 -0.1676,-0.3221 -0.3563,-0.5882 -0.5624,-0.8028 -0.2061,-0.2146 -0.4465,-0.3736 -0.7169,-0.4853 -0.2662,-0.1071 -0.5797,-0.163 -0.9318,-0.163 h -1.0346 v 6.2209 c 0,0.0814 -0.0258,0.1588 -0.0816,0.2231 -0.0559,0.0689 -0.146,0.1247 -0.2705,0.1675 -0.1244,0.0386 -0.2919,0.0729 -0.5023,0.0987 -0.206,0.0258 -0.4765,0.0388 -0.7985,0.0388 -0.3177,0 -0.5839,-0.013 -0.7985,-0.0388 -0.2146,-0.0258 -0.3821,-0.0601 -0.5066,-0.0987 -0.1244,-0.0428 -0.2148,-0.0986 -0.2619,-0.1632 -0.0516,-0.0686 -0.0774,-0.146 -0.0774,-0.2274 v -14.7858 c 0,-0.3693 0.0944,-0.6355 0.2835,-0.7985 0.1888,-0.1633 0.4207,-0.2449 0.6953,-0.2449 h 4.216 c 0.4252,0 0.7815,0.009 1.0562,0.0258 0.2747,0.0173 0.5281,0.0385 0.7557,0.0601 0.6526,0.0944 1.2407,0.2534 1.7643,0.4807 0.5238,0.2234 0.9703,0.5196 1.3354,0.8844 0.3648,0.3652 0.644,0.7943 0.8371,1.2924 0.1933,0.498 0.2877,1.0689 0.2877,1.7172 0,0.5411 -0.0686,1.0392 -0.2061,1.4856 -0.1417,0.4507 -0.3435,0.8501 -0.614,1.2022 -0.2661,0.3518 -0.5967,0.6568 -0.9918,0.9145 -0.3949,0.2616 -0.8456,0.4677 -1.3479,0.631 0.2446,0.1159 0.4723,0.2576 0.6868,0.4249 0.2146,0.1675 0.4165,0.3736 0.6055,0.6139 0.1888,0.2404 0.3691,0.5109 0.5366,0.8201 0.1673,0.3047 0.3305,0.6525 0.4893,1.0389 l 1.3782,3.2156 c 0.1244,0.3178 0.2103,0.5497 0.2489,0.6999 0.0431,0.146 0.0646,0.2619 0.0646,0.3478 z m -4.2761,-11.0551 c 0,-0.5366 -0.1202,-0.9918 -0.3651,-1.3567 -0.2446,-0.3693 -0.6437,-0.631 -1.1976,-0.7815 -0.1675,-0.0428 -0.3563,-0.0728 -0.5712,-0.0986 -0.2146,-0.0258 -0.5108,-0.0386 -0.8886,-0.0386 h -1.4854 v 4.6109 h 1.6872 c 0.4722,0 0.8801,-0.0559 1.2322,-0.1718 0.3563,-0.1117 0.6483,-0.2704 0.8844,-0.4765 0.2361,-0.2018 0.4122,-0.4507 0.5281,-0.7342 0.1159,-0.2832 0.176,-0.6009 0.176,-0.953 z m 16.3316,10.1792 c 0,0.2446 -0.009,0.4465 -0.0301,0.614 -0.0215,0.163 -0.0516,0.2962 -0.0944,0.3949 -0.0431,0.1031 -0.0947,0.176 -0.159,0.2233 -0.0601,0.0471 -0.1329,0.0686 -0.2061,0.0686 h -8.1657 c -0.2747,0 -0.5066,-0.0816 -0.6954,-0.2446 -0.1891,-0.1633 -0.2834,-0.4294 -0.2834,-0.7985 v -14.1934 c 0,-0.3693 0.0943,-0.6355 0.2834,-0.7985 0.1888,-0.1633 0.4207,-0.2449 0.6954,-0.2449 h 8.1272 c 0.0728,0 0.1417,0.0215 0.2018,0.0643 0.0558,0.0431 0.1071,0.116 0.1502,0.2192 0.0386,0.1074 0.0729,0.2403 0.0944,0.4036 0.0216,0.1673 0.0301,0.3733 0.0301,0.6268 0,0.2361 -0.009,0.4334 -0.0301,0.6009 -0.0215,0.1633 -0.0516,0.2962 -0.0944,0.3951 -0.0431,0.1029 -0.0944,0.1761 -0.1502,0.2231 -0.0601,0.0474 -0.129,0.0686 -0.2018,0.0686 h -5.8088 v 3.9671 h 4.8943 c 0.0771,0 0.146,0.0216 0.2061,0.0686 0.0643,0.0474 0.1159,0.116 0.1587,0.2146 0.0431,0.0947 0.0732,0.2234 0.0944,0.3909 0.0216,0.163 0.0301,0.3606 0.0301,0.5924 0,0.2447 -0.009,0.4465 -0.0301,0.6052 -0.0212,0.1591 -0.0513,0.2878 -0.0944,0.3821 -0.0428,0.099 -0.0944,0.1676 -0.1587,0.2061 -0.0601,0.0431 -0.129,0.0644 -0.2061,0.0644 h -4.8943 v 4.5853 h 5.8473 c 0.0774,0 0.146,0.0215 0.2061,0.0686 0.0643,0.0473 0.1159,0.1202 0.159,0.2234 0.0428,0.0986 0.0729,0.2318 0.0944,0.3948 0.0213,0.1676 0.0301,0.3694 0.0301,0.614 z m 13.8112,-1.1591 c 0,0.2104 -0.004,0.3906 -0.0173,0.5366 -0.0127,0.146 -0.0343,0.2747 -0.0601,0.3779 -0.0215,0.1071 -0.0558,0.1973 -0.0986,0.2747 -0.0431,0.0728 -0.1075,0.1587 -0.2018,0.2534 -0.0902,0.0944 -0.2705,0.2188 -0.5324,0.369 -0.2662,0.146 -0.5882,0.292 -0.9703,0.4295 -0.3821,0.1329 -0.8158,0.2489 -1.3051,0.339 -0.4895,0.0902 -1.0219,0.1375 -1.5928,0.1375 -1.112,0 -2.1166,-0.1718 -3.0137,-0.5153 -0.8975,-0.3433 -1.6617,-0.8587 -2.2885,-1.5412 -0.6309,-0.6826 -1.112,-1.5327 -1.4468,-2.5589 -0.3347,-1.0216 -0.5023,-2.211 -0.5023,-3.5677 0,-1.3821 0.1846,-2.6101 0.5539,-3.6833 0.3691,-1.0735 0.8844,-1.9749 1.5455,-2.7048 0.6613,-0.7299 1.4556,-1.2793 2.3828,-1.6571 0.9229,-0.3779 1.9448,-0.5667 3.0611,-0.5667 0.4507,0 0.8844,0.0386 1.3051,0.1157 0.4206,0.0731 0.807,0.1717 1.1633,0.2965 0.3563,0.1202 0.6741,0.2616 0.9618,0.4206 0.2835,0.163 0.485,0.3005 0.5967,0.4122 0.1117,0.1159 0.1891,0.2103 0.2319,0.2832 0.0428,0.0774 0.0774,0.1717 0.0986,0.2877 0.0258,0.1202 0.0474,0.2577 0.0601,0.4164 0.0131,0.159 0.0173,0.3521 0.0173,0.5882 0,0.2491 -0.008,0.4637 -0.0258,0.6398 -0.017,0.176 -0.047,0.3177 -0.0859,0.4249 -0.0428,0.1074 -0.0944,0.189 -0.1502,0.2361 -0.0601,0.0516 -0.1287,0.0774 -0.2018,0.0774 -0.1245,0 -0.2832,-0.0731 -0.4765,-0.2191 -0.1931,-0.146 -0.4422,-0.309 -0.747,-0.4893 -0.305,-0.1803 -0.6698,-0.3436 -1.0947,-0.4895 -0.4209,-0.146 -0.9232,-0.2189 -1.5114,-0.2189 -0.6438,0 -1.2192,0.133 -1.7258,0.3949 -0.5065,0.2662 -0.936,0.6398 -1.2923,1.129 -0.3563,0.4938 -0.6267,1.0863 -0.8113,1.7819 -0.1848,0.6911 -0.2749,1.4768 -0.2749,2.3482 0,0.9533 0.0989,1.7819 0.2962,2.4817 0.1976,0.6954 0.4768,1.2751 0.8416,1.7258 0.3606,0.4507 0.8028,0.79 1.3181,1.0088 0.5151,0.2234 1.0948,0.3351 1.7388,0.3351 0.5836,0 1.0905,-0.0689 1.5196,-0.2061 0.425,-0.1375 0.7901,-0.292 1.0948,-0.4552 0.3092,-0.1676 0.5581,-0.3178 0.7557,-0.4507 0.1973,-0.1333 0.3478,-0.2019 0.4592,-0.2019 0.0817,0 0.1502,0.0173 0.1976,0.0516 0.0516,0.0343 0.0944,0.0987 0.1287,0.2018 0.03,0.0987 0.0558,0.2404 0.0731,0.4207 0.017,0.1845 0.0258,0.4249 0.0258,0.7299 z m 16.8208,-5.8688 c 0,1.3478 -0.1675,2.5543 -0.5023,3.619 -0.3348,1.0647 -0.8328,1.9706 -1.4984,2.709 -0.661,0.7427 -1.4811,1.3096 -2.4556,1.7003 -0.9789,0.3906 -2.1079,0.5839 -3.3917,0.5839 -1.2665,0 -2.3698,-0.1675 -3.31,-0.4981 -0.9445,-0.3305 -1.7303,-0.8331 -2.3613,-1.5156 -0.6267,-0.6784 -1.099,-1.5412 -1.4125,-2.5886 -0.3135,-1.0477 -0.4722,-2.2884 -0.4722,-3.7225 0,-1.3136 0.1675,-2.4984 0.5023,-3.5504 0.3347,-1.0516 0.8328,-1.9448 1.4984,-2.6833 0.661,-0.7384 1.4811,-1.305 2.4556,-1.6956 0.9788,-0.3952 2.1124,-0.5925 3.4044,-0.5925 1.2322,0 2.3185,0.163 3.263,0.4893 0.9402,0.3262 1.7302,0.8285 2.3612,1.5111 0.6356,0.6784 1.1121,1.5327 1.4341,2.5674 0.322,1.0391 0.485,2.2583 0.485,3.6666 z m -3.4775,0.1672 c 0,-0.8543 -0.0686,-1.6313 -0.2019,-2.3312 -0.1329,-0.6996 -0.3605,-1.3008 -0.6826,-1.7989 -0.322,-0.4977 -0.7511,-0.8844 -1.2877,-1.159 -0.5369,-0.2705 -1.2065,-0.408 -2.0092,-0.408 -0.8116,0 -1.4899,0.1548 -2.0308,0.4595 -0.5454,0.3048 -0.9876,0.7169 -1.3223,1.228 -0.3348,0.5108 -0.5709,1.1075 -0.7084,1.7901 -0.1375,0.6868 -0.2061,1.4082 -0.2061,2.1725 0,0.8886 0.0686,1.6871 0.2018,2.3955 0.133,0.7084 0.3606,1.3139 0.6784,1.8204 0.3174,0.5023 0.7426,0.8844 1.2792,1.1506 0.5366,0.2619 1.2107,0.3949 2.0223,0.3949 0.8113,0 1.4896,-0.1503 2.0304,-0.455 0.5454,-0.3007 0.9876,-0.7129 1.3224,-1.2322 0.3351,-0.5196 0.5712,-1.1248 0.7084,-1.8162 0.1375,-0.691 0.2061,-1.4295 0.2061,-2.211 z"
         style="fill:#000000;fill-rule:evenodd"
         id="path4782" />
      <path
         inkscape:connector-curvature="0"
         d="m 496.2637,513.6474 c 0,0.2404 -0.008,0.4507 -0.0301,0.6268 -0.0215,0.176 -0.0516,0.3177 -0.0901,0.4209 -0.0388,0.1072 -0.0816,0.1803 -0.1375,0.2189 -0.0558,0.0428 -0.1202,0.0643 -0.193,0.0643 -0.1117,0 -0.2877,-0.0771 -0.5281,-0.2273 -0.2449,-0.1506 -0.5669,-0.3178 -0.9703,-0.4938 -0.4037,-0.1761 -0.8802,-0.3436 -1.4383,-0.4938 -0.5582,-0.1503 -1.2064,-0.2277 -1.9449,-0.2277 -0.7854,0 -1.4984,0.1375 -2.1336,0.408 -0.6398,0.2746 -1.1849,0.6613 -1.6359,1.159 -0.4507,0.5023 -0.7985,1.0993 -1.0431,1.8034 -0.2447,0.6996 -0.3648,1.4724 -0.3648,2.3225 0,0.9317 0.1244,1.7518 0.369,2.4644 0.2492,0.7084 0.5967,1.3008 1.0389,1.7816 0.4468,0.4765 0.9834,0.8373 1.6058,1.082 0.6268,0.2446 1.3179,0.3648 2.0693,0.3648 0.3691,0 0.7342,-0.0428 1.0948,-0.1245 0.3648,-0.0858 0.6999,-0.2145 1.0088,-0.3821 v -3.7953 h -3.0781 c -0.1502,0 -0.2662,-0.0944 -0.3521,-0.2832 -0.0816,-0.189 -0.1244,-0.5065 -0.1244,-0.9617 0,-0.2319 0.008,-0.4292 0.03,-0.5882 0.0216,-0.1588 0.0559,-0.2875 0.0944,-0.3821 0.0428,-0.0987 0.0944,-0.1673 0.1503,-0.2146 0.0601,-0.0474 0.1287,-0.0686 0.2018,-0.0686 h 5.4952 c 0.1333,0 0.2534,0.0212 0.3563,0.0686 0.1075,0.0473 0.1976,0.1159 0.2793,0.2103 0.0771,0.0901 0.1414,0.2018 0.1802,0.3305 0.0428,0.1332 0.0644,0.2835 0.0644,0.451 v 6.4914 c 0,0.2531 -0.0428,0.4722 -0.1332,0.661 -0.0856,0.1888 -0.2662,0.3393 -0.5409,0.4464 -0.2704,0.1117 -0.6097,0.2234 -1.0131,0.3436 -0.4036,0.1159 -0.8201,0.2188 -1.2538,0.3005 -0.4291,0.0859 -0.8671,0.1502 -1.3093,0.1888 -0.4379,0.0431 -0.8801,0.0646 -1.3266,0.0646 -1.3008,0 -2.4644,-0.1891 -3.4945,-0.5624 -1.0262,-0.3736 -1.8978,-0.9145 -2.6105,-1.6228 -0.7126,-0.7084 -1.258,-1.5716 -1.6356,-2.5932 -0.3778,-1.0219 -0.5669,-2.1767 -0.5669,-3.469 0,-1.3351 0.2018,-2.533 0.6055,-3.5935 0.3991,-1.0647 0.9703,-1.9661 1.7087,-2.7088 0.7384,-0.7429 1.6271,-1.3096 2.6745,-1.7044 1.0434,-0.3952 2.2068,-0.5925 3.4863,-0.5925 0.7084,0 1.3479,0.0471 1.9276,0.146 0.5751,0.0986 1.082,0.2146 1.5154,0.3563 0.4294,0.1372 0.79,0.2874 1.0735,0.4465 0.2874,0.163 0.485,0.3004 0.5967,0.4206 0.1159,0.116 0.1975,0.2835 0.2446,0.4981 0.0516,0.2103 0.0774,0.5281 0.0774,0.9487 z m 16.7734,12.5878 c 0,0.1931 -0.0343,0.3649 -0.0986,0.5194 -0.0689,0.1502 -0.159,0.2749 -0.275,0.3778 -0.1114,0.0987 -0.2446,0.1718 -0.3991,0.2191 -0.159,0.0471 -0.3135,0.0686 -0.4722,0.0686 h -1.4125 c -0.2963,0 -0.5497,-0.03 -0.7643,-0.0859 -0.2103,-0.0601 -0.4079,-0.1675 -0.5882,-0.322 -0.1845,-0.1545 -0.3563,-0.3648 -0.5238,-0.631 -0.1672,-0.2619 -0.3563,-0.6055 -0.5666,-1.0261 l -4.04,-7.6119 c -0.2361,-0.4552 -0.4722,-0.9445 -0.7169,-1.4683 -0.2446,-0.5239 -0.4595,-1.0347 -0.6525,-1.5285 h -0.0258 c 0.0343,0.6055 0.0601,1.2065 0.0774,1.8077 0.017,0.5967 0.0258,1.2192 0.0258,1.8544 v 8.5221 c 0,0.0816 -0.0216,0.159 -0.0689,0.2276 -0.047,0.0644 -0.1287,0.1202 -0.2404,0.1675 -0.1117,0.0471 -0.2661,0.0814 -0.4595,0.1072 -0.193,0.0258 -0.4422,0.0388 -0.7426,0.0388 -0.2963,0 -0.5409,-0.013 -0.7342,-0.0388 -0.1931,-0.0258 -0.3433,-0.0601 -0.4507,-0.1072 -0.1117,-0.0431 -0.1888,-0.1031 -0.2276,-0.1675 -0.0429,-0.0686 -0.0644,-0.146 -0.0644,-0.2276 v -14.6313 c 0,-0.3949 0.1159,-0.6911 0.3478,-0.8887 0.2276,-0.1973 0.5108,-0.2962 0.8501,-0.2962 h 1.7731 c 0.3178,0 0.5882,0.0258 0.807,0.0816 0.2191,0.0559 0.4122,0.146 0.584,0.2705 0.1717,0.1244 0.3347,0.3004 0.4852,0.5238 0.1503,0.2188 0.3048,0.498 0.4635,0.8243 l 3.164,5.9548 c 0.1849,0.3605 0.3651,0.7168 0.5454,1.0646 0.1803,0.3479 0.3563,0.6954 0.5196,1.0432 0.1673,0.3478 0.3305,0.6914 0.4893,1.0261 0.1633,0.3391 0.3177,0.6741 0.468,1.0089 h 0.0127 c -0.0255,-0.5882 -0.047,-1.2022 -0.0601,-1.8374 -0.0127,-0.6398 -0.017,-1.2495 -0.017,-1.8289 v -7.642 c 0,-0.0816 0.0258,-0.159 0.0771,-0.2276 0.0474,-0.0643 0.1333,-0.1244 0.2492,-0.176 0.1202,-0.0516 0.2747,-0.0859 0.468,-0.1072 0.193,-0.0215 0.4422,-0.03 0.7427,-0.03 0.2877,0 0.5281,0.008 0.7211,0.03 0.1933,0.0213 0.3393,0.0556 0.4465,0.1072 0.1032,0.0516 0.1805,0.1117 0.2191,0.176 0.0428,0.0686 0.0643,0.1417 0.0643,0.2276 z m 6.8692,0.7084 c 0,0.0814 -0.0258,0.1588 -0.0816,0.2274 -0.0558,0.0646 -0.146,0.1204 -0.2704,0.1632 -0.1245,0.0386 -0.2963,0.0729 -0.5023,0.0987 -0.2104,0.0258 -0.4808,0.0388 -0.8071,0.0388 -0.3177,0 -0.5839,-0.013 -0.7988,-0.0388 -0.2145,-0.0258 -0.3863,-0.0601 -0.5108,-0.0987 -0.1244,-0.0428 -0.2145,-0.0986 -0.2704,-0.1632 -0.0558,-0.0686 -0.0816,-0.146 -0.0816,-0.2274 v -15.3782 c 0,-0.0817 0.0258,-0.159 0.0816,-0.2276 0.0559,-0.0644 0.146,-0.1202 0.2789,-0.1633 0.129,-0.0428 0.2963,-0.0729 0.5069,-0.0987 0.2103,-0.0258 0.4765,-0.0385 0.7942,-0.0385 0.3263,0 0.5967,0.0127 0.8071,0.0385 0.206,0.0258 0.3778,0.0559 0.5023,0.0987 0.1244,0.0431 0.2146,0.0989 0.2704,0.1633 0.0558,0.0686 0.0816,0.1459 0.0816,0.2276 z m 14.3652,-14.4725 c 0,0.2449 -0.008,0.4509 -0.0301,0.6267 -0.0215,0.1718 -0.0516,0.3093 -0.0944,0.4122 -0.0431,0.1074 -0.0947,0.1848 -0.159,0.2318 -0.0601,0.0516 -0.1329,0.0774 -0.2061,0.0774 h -4.07 v 13.1244 c 0,0.0814 -0.0255,0.1588 -0.0813,0.2274 -0.0559,0.0646 -0.146,0.1204 -0.2707,0.1632 -0.1245,0.0386 -0.2962,0.0729 -0.5108,0.0987 -0.2146,0.0258 -0.4808,0.0388 -0.7985,0.0388 -0.3178,0 -0.584,-0.013 -0.7986,-0.0388 -0.2146,-0.0258 -0.3863,-0.0601 -0.5108,-0.0987 -0.1247,-0.0428 -0.2148,-0.0986 -0.2704,-0.1632 -0.0558,-0.0686 -0.0816,-0.146 -0.0816,-0.2274 v -13.1244 h -4.07 c -0.0817,0 -0.1545,-0.0258 -0.2146,-0.0774 -0.0558,-0.047 -0.1074,-0.1244 -0.1505,-0.2318 -0.0386,-0.1029 -0.0729,-0.2404 -0.0944,-0.4122 -0.0213,-0.1758 -0.0301,-0.3818 -0.0301,-0.6267 0,-0.2489 0.009,-0.4635 0.0301,-0.6395 0.0215,-0.1761 0.0558,-0.3178 0.0944,-0.421 0.0431,-0.1071 0.0947,-0.1803 0.1505,-0.2273 0.0601,-0.0474 0.1329,-0.0689 0.2146,-0.0689 h 11.4627 c 0.0732,0 0.1418,0.0215 0.2061,0.0689 0.0643,0.047 0.1159,0.1202 0.159,0.2273 0.0428,0.1032 0.0729,0.2449 0.0944,0.421 0.0216,0.176 0.0301,0.3906 0.0301,0.6395 z m 5.2591,14.4725 c 0,0.0814 -0.0258,0.1588 -0.0817,0.2274 -0.0558,0.0646 -0.1459,0.1204 -0.2704,0.1632 -0.1244,0.0386 -0.2962,0.0729 -0.5023,0.0987 -0.2103,0.0258 -0.4807,0.0388 -0.807,0.0388 -0.3178,0 -0.5839,-0.013 -0.7988,-0.0388 -0.2146,-0.0258 -0.3864,-0.0601 -0.5108,-0.0987 -0.1245,-0.0428 -0.2146,-0.0986 -0.2704,-0.1632 -0.0559,-0.0686 -0.0817,-0.146 -0.0817,-0.2274 v -15.3782 c 0,-0.0817 0.0258,-0.159 0.0817,-0.2276 0.0558,-0.0644 0.1459,-0.1202 0.2789,-0.1633 0.129,-0.0428 0.2962,-0.0729 0.5068,-0.0987 0.2104,-0.0258 0.4765,-0.0385 0.7943,-0.0385 0.3263,0 0.5967,0.0127 0.807,0.0385 0.2061,0.0258 0.3779,0.0559 0.5023,0.0987 0.1245,0.0431 0.2146,0.0989 0.2704,0.1633 0.0559,0.0686 0.0817,0.1459 0.0817,0.2276 z m 18.1774,-7.878 c 0,1.3478 -0.1675,2.5543 -0.5023,3.619 -0.3347,1.0647 -0.8328,1.9706 -1.4984,2.709 -0.661,0.7427 -1.4811,1.3096 -2.4556,1.7003 -0.9788,0.3906 -2.1079,0.5839 -3.3917,0.5839 -1.2665,0 -2.3697,-0.1675 -3.31,-0.4981 -0.9445,-0.3305 -1.7303,-0.8331 -2.3612,-1.5156 -0.6268,-0.6784 -1.099,-1.5412 -1.4125,-2.5886 -0.3136,-1.0477 -0.4723,-2.2884 -0.4723,-3.7225 0,-1.3136 0.1675,-2.4984 0.5023,-3.5504 0.3348,-1.0516 0.8328,-1.9448 1.4984,-2.6833 0.661,-0.7384 1.4811,-1.305 2.4556,-1.6956 0.9788,-0.3952 2.1124,-0.5925 3.4045,-0.5925 1.2322,0 2.3184,0.163 3.2629,0.4893 0.9403,0.3262 1.7303,0.8285 2.3613,1.5111 0.6355,0.6784 1.112,1.5327 1.434,2.5674 0.322,1.0391 0.485,2.2583 0.485,3.6666 z m -3.4775,0.1672 c 0,-0.8543 -0.0686,-1.6313 -0.2018,-2.3312 -0.133,-0.6996 -0.3606,-1.3008 -0.6826,-1.7989 -0.322,-0.4977 -0.7512,-0.8844 -1.2878,-1.159 -0.5369,-0.2705 -1.2064,-0.408 -2.0092,-0.408 -0.8116,0 -1.4899,0.1548 -2.0307,0.4595 -0.5454,0.3048 -0.9876,0.7169 -1.3224,1.228 -0.3348,0.5108 -0.5709,1.1075 -0.7084,1.7901 -0.1375,0.6868 -0.2061,1.4082 -0.2061,2.1725 0,0.8886 0.0686,1.6871 0.2019,2.3955 0.1329,0.7084 0.3605,1.3139 0.6783,1.8204 0.3175,0.5023 0.7427,0.8844 1.2793,1.1506 0.5366,0.2619 1.2107,0.3949 2.0222,0.3949 0.8113,0 1.4896,-0.1503 2.0305,-0.455 0.5454,-0.3007 0.9876,-0.7129 1.3223,-1.2322 0.3351,-0.5196 0.5712,-1.1248 0.7084,-1.8162 0.1375,-0.691 0.2061,-1.4295 0.2061,-2.211 z m 19.6886,7.0024 c 0,0.1931 -0.0343,0.3649 -0.0987,0.5194 -0.0688,0.1502 -0.159,0.2749 -0.2749,0.3778 -0.1114,0.0987 -0.2446,0.1718 -0.3991,0.2191 -0.1591,0.0471 -0.3135,0.0686 -0.4723,0.0686 h -1.4125 c -0.2962,0 -0.5496,-0.03 -0.7642,-0.0859 -0.2103,-0.0601 -0.4079,-0.1675 -0.5882,-0.322 -0.1845,-0.1545 -0.3563,-0.3648 -0.5238,-0.631 -0.1673,-0.2619 -0.3564,-0.6055 -0.5667,-1.0261 l -4.0399,-7.6119 c -0.2362,-0.4552 -0.4723,-0.9445 -0.7169,-1.4683 -0.2446,-0.5239 -0.4595,-1.0347 -0.6525,-1.5285 h -0.0258 c 0.0343,0.6055 0.0601,1.2065 0.0773,1.8077 0.0171,0.5967 0.0258,1.2192 0.0258,1.8544 v 8.5221 c 0,0.0816 -0.0215,0.159 -0.0688,0.2276 -0.0471,0.0644 -0.1287,0.1202 -0.2404,0.1675 -0.1117,0.0471 -0.2662,0.0814 -0.4595,0.1072 -0.1931,0.0258 -0.4422,0.0388 -0.7427,0.0388 -0.2962,0 -0.5408,-0.013 -0.7342,-0.0388 -0.193,-0.0258 -0.3432,-0.0601 -0.4507,-0.1072 -0.1117,-0.0431 -0.1888,-0.1031 -0.2276,-0.1675 -0.0428,-0.0686 -0.0643,-0.146 -0.0643,-0.2276 v -14.6313 c 0,-0.3949 0.1159,-0.6911 0.3478,-0.8887 0.2276,-0.1973 0.5108,-0.2962 0.8501,-0.2962 h 1.773 c 0.3178,0 0.5882,0.0258 0.8071,0.0816 0.2191,0.0559 0.4121,0.146 0.5839,0.2705 0.1718,0.1244 0.3348,0.3004 0.4853,0.5238 0.1502,0.2188 0.3047,0.498 0.4635,0.8243 l 3.164,5.9548 c 0.1848,0.3605 0.3651,0.7168 0.5454,1.0646 0.1803,0.3479 0.3563,0.6954 0.5196,1.0432 0.1672,0.3478 0.3305,0.6914 0.4892,1.0261 0.1633,0.3391 0.3178,0.6741 0.468,1.0089 h 0.0128 c -0.0255,-0.5882 -0.0471,-1.2022 -0.0601,-1.8374 -0.0128,-0.6398 -0.017,-1.2495 -0.017,-1.8289 v -7.642 c 0,-0.0816 0.0258,-0.159 0.0771,-0.2276 0.0473,-0.0643 0.1332,-0.1244 0.2492,-0.176 0.1201,-0.0516 0.2746,-0.0859 0.468,-0.1072 0.193,-0.0215 0.4422,-0.03 0.7426,-0.03 0.2877,0 0.5281,0.008 0.7212,0.03 0.1933,0.0213 0.3393,0.0556 0.4464,0.1072 0.1032,0.0516 0.1806,0.1117 0.2191,0.176 0.0428,0.0686 0.0644,0.1417 0.0644,0.2276 z m -273.1382,31.3702 c 0.0986,0.3005 0.1632,0.5412 0.1887,0.7172 0.0258,0.176 -0.009,0.309 -0.0986,0.3991 -0.0944,0.0859 -0.2577,0.1417 -0.4938,0.1633 -0.2319,0.0212 -0.5581,0.03 -0.9658,0.03 -0.4294,0 -0.7642,-0.005 -1.0003,-0.0173 -0.2404,-0.0127 -0.421,-0.0385 -0.5497,-0.0774 -0.1244,-0.0385 -0.2103,-0.0901 -0.2619,-0.1587 -0.0516,-0.0643 -0.0944,-0.1545 -0.1244,-0.2619 l -1.069,-3.2715 h -6.1392 l -1.0262,3.1813 c -0.0343,0.1202 -0.0774,0.2192 -0.1332,0.2963 -0.0513,0.0816 -0.1415,0.1417 -0.2616,0.189 -0.1205,0.0471 -0.292,0.0771 -0.5154,0.0944 -0.2234,0.017 -0.515,0.0258 -0.8759,0.0258 -0.3863,0 -0.6868,-0.013 -0.9057,-0.0388 -0.2191,-0.0258 -0.3693,-0.0859 -0.4509,-0.1803 -0.0859,-0.0986 -0.116,-0.2361 -0.0902,-0.4122 0.0258,-0.176 0.0902,-0.4079 0.1891,-0.7041 l 5.0145,-14.4465 c 0.047,-0.1417 0.1071,-0.2576 0.176,-0.3435 0.0643,-0.0902 0.1715,-0.1545 0.3175,-0.2019 0.1505,-0.047 0.352,-0.0771 0.614,-0.0901 0.2576,-0.0127 0.6012,-0.017 1.0304,-0.017 0.4938,0 0.8886,0.004 1.1806,0.017 0.2962,0.013 0.5238,0.0431 0.6868,0.0901 0.1633,0.0474 0.2792,0.116 0.3521,0.2061 0.0689,0.0944 0.1332,0.2191 0.1803,0.3779 z m -7.4702,-11.9523 h -0.013 l -2.2666,6.9251 h 4.5677 z m 23.1704,12.0255 c 0,0.193 -0.0343,0.3648 -0.0986,0.5193 -0.0689,0.1502 -0.1591,0.2749 -0.275,0.3778 -0.1114,0.0987 -0.2446,0.1718 -0.3991,0.2191 -0.159,0.0471 -0.3135,0.0686 -0.4723,0.0686 h -1.4125 c -0.2962,0 -0.5496,-0.03 -0.7642,-0.0859 -0.2103,-0.0601 -0.4079,-0.1675 -0.5882,-0.322 -0.1845,-0.1545 -0.3563,-0.3648 -0.5238,-0.631 -0.1673,-0.2619 -0.3563,-0.6054 -0.5667,-1.0261 l -4.0399,-7.6119 c -0.2361,-0.4552 -0.4723,-0.9445 -0.7169,-1.4683 -0.2446,-0.5239 -0.4595,-1.0347 -0.6525,-1.5285 h -0.0258 c 0.0343,0.6055 0.0601,1.2065 0.0774,1.8077 0.017,0.5967 0.0258,1.2192 0.0258,1.8544 v 8.5221 c 0,0.0816 -0.0216,0.159 -0.0689,0.2276 -0.0471,0.0644 -0.1287,0.1202 -0.2404,0.1675 -0.1117,0.0471 -0.2662,0.0814 -0.4595,0.1072 -0.193,0.0258 -0.4422,0.0388 -0.7427,0.0388 -0.2962,0 -0.5408,-0.013 -0.7342,-0.0388 -0.193,-0.0258 -0.3432,-0.0601 -0.4507,-0.1072 -0.1116,-0.043 -0.1887,-0.1031 -0.2276,-0.1675 -0.0428,-0.0686 -0.0643,-0.146 -0.0643,-0.2276 v -14.6313 c 0,-0.3949 0.1159,-0.6911 0.3478,-0.8887 0.2276,-0.1973 0.5108,-0.2962 0.8501,-0.2962 h 1.7731 c 0.3177,0 0.5882,0.0258 0.807,0.0816 0.2191,0.0559 0.4121,0.146 0.5839,0.2705 0.1718,0.1244 0.3348,0.3004 0.4853,0.5238 0.1503,0.2188 0.3047,0.4981 0.4635,0.8243 l 3.164,5.9548 c 0.1848,0.3605 0.3651,0.7168 0.5454,1.0647 0.1803,0.3478 0.3563,0.6953 0.5196,1.0431 0.1672,0.3478 0.3305,0.6914 0.4892,1.0261 0.1633,0.3391 0.3178,0.6741 0.468,1.0089 h 0.0128 c -0.0255,-0.5882 -0.0471,-1.2022 -0.0601,-1.8374 -0.0127,-0.6398 -0.017,-1.2495 -0.017,-1.8289 v -7.642 c 0,-0.0816 0.0258,-0.159 0.0771,-0.2276 0.0473,-0.0643 0.1332,-0.1244 0.2492,-0.176 0.1202,-0.0516 0.2746,-0.0859 0.468,-0.1072 0.193,-0.0215 0.4422,-0.03 0.7426,-0.03 0.2878,0 0.5281,0.009 0.7212,0.03 0.1933,0.0213 0.3393,0.0556 0.4464,0.1072 0.1032,0.0516 0.1806,0.1117 0.2192,0.176 0.0428,0.0686 0.0643,0.1418 0.0643,0.2276 z m 17.07,-7.2213 c 0,1.4941 -0.1934,2.7692 -0.584,3.8338 -0.3906,1.0605 -0.9487,1.9234 -1.6787,2.5974 -0.7299,0.6699 -1.6185,1.1634 -2.6617,1.4769 -1.0434,0.3135 -2.2884,0.4722 -3.731,0.4722 h -3.8851 c -0.2792,0 -0.5111,-0.0816 -0.6999,-0.2446 -0.1891,-0.1633 -0.2835,-0.4294 -0.2835,-0.7985 v -14.1934 c 0,-0.3693 0.0944,-0.6355 0.2835,-0.7985 0.1888,-0.1633 0.4207,-0.2449 0.6999,-0.2449 h 4.1729 c 1.451,0 2.6832,0.1718 3.6921,0.5111 1.0131,0.339 1.8632,0.8413 2.5546,1.5069 0.6911,0.6695 1.2192,1.4938 1.5797,2.4726 0.3606,0.9834 0.5412,2.1167 0.5412,3.409 z m -3.4263,0.1159 c 0,-0.7727 -0.0901,-1.4853 -0.2704,-2.1509 -0.1803,-0.661 -0.468,-1.2322 -0.8671,-1.7172 -0.3994,-0.4853 -0.9102,-0.8674 -1.5327,-1.1379 -0.6268,-0.2704 -1.4426,-0.4079 -2.4599,-0.4079 h -1.6702 v 11.0509 h 1.7215 c 0.9059,0 1.6702,-0.1159 2.2884,-0.3521 0.6182,-0.2318 1.1375,-0.5881 1.5542,-1.0604 0.4122,-0.4723 0.7212,-1.0604 0.9272,-1.7646 0.2061,-0.7041 0.309,-1.5239 0.309,-2.4599 z m 15.2839,7.8137 c 0,0.0814 -0.0258,0.1588 -0.0817,0.2274 -0.0558,0.0646 -0.146,0.1204 -0.2704,0.1632 -0.1244,0.0386 -0.2962,0.0729 -0.5023,0.0987 -0.2103,0.0258 -0.4808,0.0388 -0.807,0.0388 -0.3178,0 -0.584,-0.013 -0.7988,-0.0388 -0.2146,-0.0258 -0.3864,-0.0601 -0.5108,-0.0987 -0.1245,-0.0428 -0.2146,-0.0986 -0.2705,-0.1632 -0.0558,-0.0686 -0.0816,-0.146 -0.0816,-0.2274 v -15.3782 c 0,-0.0816 0.0258,-0.159 0.0816,-0.2276 0.0559,-0.0644 0.146,-0.1202 0.279,-0.1633 0.1289,-0.0428 0.2962,-0.0729 0.5068,-0.0987 0.2103,-0.0257 0.4765,-0.0385 0.7943,-0.0385 0.3262,0 0.5967,0.0128 0.807,0.0385 0.2061,0.0258 0.3779,0.0559 0.5023,0.0987 0.1244,0.0431 0.2146,0.0989 0.2704,0.1633 0.0559,0.0686 0.0817,0.146 0.0817,0.2276 z m 16.9667,-0.7083 c 0,0.193 -0.0343,0.3648 -0.0986,0.5193 -0.0689,0.1502 -0.159,0.2749 -0.275,0.3778 -0.1114,0.0987 -0.2446,0.1718 -0.3991,0.2191 -0.159,0.0471 -0.3135,0.0686 -0.4722,0.0686 h -1.4125 c -0.2963,0 -0.5497,-0.03 -0.7643,-0.0859 -0.2103,-0.0601 -0.4079,-0.1675 -0.5882,-0.322 -0.1845,-0.1545 -0.3563,-0.3648 -0.5238,-0.631 -0.1672,-0.2619 -0.3563,-0.6054 -0.5666,-1.0261 l -4.04,-7.6119 c -0.2361,-0.4552 -0.4722,-0.9445 -0.7169,-1.4683 -0.2446,-0.5239 -0.4595,-1.0347 -0.6525,-1.5285 h -0.0258 c 0.0343,0.6055 0.0601,1.2065 0.0774,1.8077 0.017,0.5967 0.0258,1.2192 0.0258,1.8544 v 8.5221 c 0,0.0816 -0.0216,0.159 -0.0689,0.2276 -0.0471,0.0644 -0.1287,0.1202 -0.2404,0.1675 -0.1117,0.0471 -0.2661,0.0814 -0.4595,0.1072 -0.193,0.0258 -0.4422,0.0388 -0.7426,0.0388 -0.2963,0 -0.5409,-0.013 -0.7342,-0.0388 -0.1931,-0.0258 -0.3433,-0.0601 -0.4507,-0.1072 -0.1117,-0.043 -0.1888,-0.1031 -0.2277,-0.1675 -0.0428,-0.0686 -0.0643,-0.146 -0.0643,-0.2276 v -14.6313 c 0,-0.3949 0.1159,-0.6911 0.3478,-0.8887 0.2276,-0.1973 0.5108,-0.2962 0.8501,-0.2962 h 1.7731 c 0.3178,0 0.5882,0.0258 0.807,0.0816 0.2191,0.0559 0.4122,0.146 0.584,0.2705 0.1717,0.1244 0.3347,0.3004 0.4852,0.5238 0.1503,0.2188 0.3048,0.4981 0.4635,0.8243 l 3.164,5.9548 c 0.1849,0.3605 0.3651,0.7168 0.5454,1.0647 0.1803,0.3478 0.3563,0.6953 0.5196,1.0431 0.1673,0.3478 0.3305,0.6914 0.4893,1.0261 0.1633,0.3391 0.3177,0.6741 0.468,1.0089 h 0.0127 c -0.0255,-0.5882 -0.047,-1.2022 -0.0601,-1.8374 -0.0127,-0.6398 -0.017,-1.2495 -0.017,-1.8289 v -7.642 c 0,-0.0816 0.0258,-0.159 0.0771,-0.2276 0.0474,-0.0643 0.1333,-0.1244 0.2492,-0.176 0.1202,-0.0516 0.2747,-0.0859 0.468,-0.1072 0.193,-0.0215 0.4422,-0.03 0.7427,-0.03 0.2877,0 0.5281,0.009 0.7211,0.03 0.1933,0.0213 0.3393,0.0556 0.4465,0.1072 0.1031,0.0516 0.1805,0.1117 0.2191,0.176 0.0428,0.0686 0.0643,0.1418 0.0643,0.2276 z m 13.2061,-3.7268 c 0,0.8589 -0.159,1.6059 -0.4768,2.2542 -0.3217,0.644 -0.7512,1.1806 -1.2963,1.6143 -0.5496,0.4291 -1.1852,0.7554 -1.9148,0.9745 -0.7299,0.2189 -1.5114,0.3263 -2.3442,0.3263 -0.5624,0 -1.0817,-0.0473 -1.567,-0.1417 -0.4808,-0.0944 -0.906,-0.2061 -1.2751,-0.3393 -0.3693,-0.1287 -0.6783,-0.2662 -0.9275,-0.4122 -0.2488,-0.146 -0.4249,-0.2747 -0.5366,-0.3821 -0.1071,-0.1114 -0.1845,-0.2704 -0.2318,-0.4765 -0.0471,-0.2061 -0.0686,-0.4981 -0.0686,-0.8844 0,-0.2619 0.009,-0.4765 0.0258,-0.6526 0.0173,-0.176 0.0428,-0.3177 0.0816,-0.4291 0.0386,-0.1075 0.0901,-0.1848 0.1502,-0.2319 0.0644,-0.0473 0.1372,-0.0689 0.2231,-0.0689 0.116,0 0.2835,0.0689 0.4981,0.2106 0.2148,0.1372 0.4895,0.2917 0.8243,0.4593 0.335,0.1675 0.7384,0.322 1.2064,0.4594 0.4638,0.1415 1.0046,0.2104 1.6186,0.2104 0.4037,0 0.7642,-0.0474 1.082,-0.1418 0.3217,-0.0986 0.5924,-0.2318 0.8155,-0.4079 0.2234,-0.176 0.3906,-0.3906 0.5111,-0.6482 0.1156,-0.2577 0.176,-0.5451 0.176,-0.8629 0,-0.3694 -0.0989,-0.6868 -0.3007,-0.9488 -0.2019,-0.2661 -0.4635,-0.498 -0.7898,-0.7041 -0.322,-0.2061 -0.6913,-0.3994 -1.1035,-0.5797 -0.4079,-0.1803 -0.8328,-0.369 -1.2708,-0.5709 -0.4379,-0.2018 -0.8628,-0.4294 -1.2707,-0.6868 -0.4122,-0.2534 -0.7813,-0.5581 -1.1033,-0.9145 -0.3262,-0.3563 -0.5882,-0.7772 -0.79,-1.2665 -0.2018,-0.4853 -0.3005,-1.0689 -0.3005,-1.7473 0,-0.7772 0.146,-1.4641 0.4335,-2.0565 0.2877,-0.5882 0.6783,-1.0777 1.1678,-1.4683 0.4938,-0.3907 1.069,-0.6826 1.7345,-0.8759 0.6653,-0.1931 1.3737,-0.2875 2.1209,-0.2875 0.3821,0 0.7685,0.0301 1.1549,0.0902 0.3863,0.0558 0.7469,0.1372 1.0817,0.2361 0.335,0.1029 0.6312,0.2146 0.8932,0.339 0.2573,0.129 0.4291,0.2319 0.515,0.3178 0.0817,0.0816 0.1375,0.1545 0.1675,0.2103 0.0301,0.0601 0.0559,0.1375 0.0771,0.2361 0.0216,0.0944 0.0346,0.2146 0.0431,0.3649 0.008,0.1459 0.0128,0.3265 0.0128,0.5453 0,0.2404 -0.004,0.4465 -0.017,0.614 -0.0131,0.1673 -0.0343,0.3047 -0.0644,0.4164 -0.03,0.1075 -0.0731,0.1888 -0.1247,0.2362 -0.0558,0.0515 -0.1287,0.0771 -0.2231,0.0771 -0.0901,0 -0.2361,-0.0601 -0.4379,-0.1758 -0.2019,-0.1159 -0.4507,-0.2449 -0.7427,-0.3866 -0.2962,-0.1372 -0.6355,-0.2617 -1.0219,-0.3734 -0.3864,-0.1159 -0.807,-0.1717 -1.2708,-0.1717 -0.3605,0 -0.674,0.0428 -0.9445,0.1329 -0.2661,0.0859 -0.4895,0.2106 -0.6698,0.3651 -0.1803,0.1545 -0.3175,0.339 -0.4034,0.5582 -0.0901,0.2188 -0.1332,0.4507 -0.1332,0.691 0,0.3606 0.0989,0.6741 0.2962,0.936 0.1976,0.2662 0.4638,0.5023 0.7943,0.7084 0.3305,0.2018 0.7084,0.3949 1.129,0.5752 0.4164,0.1805 0.8459,0.3736 1.2838,0.5711 0.438,0.2019 0.8672,0.4292 1.2836,0.6869 0.4209,0.2577 0.7942,0.5624 1.125,0.9187 0.3263,0.3563 0.5925,0.7727 0.794,1.258 0.2019,0.4808 0.3008,1.0474 0.3008,1.6999 z m 13.6695,-6.4482 c 0,0.9187 -0.1417,1.7257 -0.4292,2.4298 -0.2834,0.7084 -0.6998,1.3009 -1.2495,1.7819 -0.5451,0.485 -1.2149,0.8498 -2.0092,1.1033 -0.7942,0.2534 -1.73,0.3778 -2.8077,0.3778 h -1.3609 v 5.1905 c 0,0.0859 -0.0258,0.1588 -0.0816,0.2274 -0.0559,0.0646 -0.146,0.1204 -0.2705,0.1632 -0.1244,0.0428 -0.2919,0.0729 -0.5023,0.0987 -0.2061,0.0258 -0.4765,0.0388 -0.7985,0.0388 -0.3178,0 -0.5839,-0.013 -0.7985,-0.0388 -0.2146,-0.0258 -0.3821,-0.0601 -0.5066,-0.0987 -0.1244,-0.0428 -0.2148,-0.0986 -0.2619,-0.1632 -0.0516,-0.0686 -0.0774,-0.146 -0.0774,-0.2274 v -14.6443 c 0,-0.3949 0.1032,-0.6911 0.3093,-0.8887 0.2061,-0.1973 0.4765,-0.2962 0.8113,-0.2962 h 3.8381 c 0.3863,0 0.7557,0.013 1.1035,0.0431 0.3475,0.03 0.7642,0.0944 1.2535,0.1888 0.4853,0.0986 0.9788,0.2747 1.4768,0.5366 0.4981,0.2576 0.9275,0.5882 1.2796,0.9876 0.3521,0.3991 0.6225,0.8628 0.807,1.3994 0.1846,0.5324 0.2747,1.1291 0.2747,1.7904 z m -3.4518,0.2404 c 0,-0.5709 -0.1029,-1.0432 -0.3047,-1.4125 -0.2018,-0.3691 -0.4507,-0.6441 -0.7469,-0.8201 -0.2962,-0.176 -0.6055,-0.2874 -0.9275,-0.3348 -0.3263,-0.0473 -0.661,-0.0686 -1.0089,-0.0686 h -1.4167 v 5.5381 h 1.4941 c 0.5324,0 0.9746,-0.0729 1.3351,-0.2146 0.3564,-0.1417 0.6526,-0.3436 0.8802,-0.6009 0.2273,-0.2535 0.3991,-0.5624 0.5193,-0.9188 0.1159,-0.3563 0.176,-0.7472 0.176,-1.1678 z m 15.6405,9.7928 c 0,0.2446 -0.009,0.4465 -0.0301,0.614 -0.0215,0.163 -0.0516,0.2962 -0.0944,0.3949 -0.043,0.1032 -0.0946,0.176 -0.159,0.2233 -0.0601,0.0471 -0.1329,0.0686 -0.2061,0.0686 h -8.1657 c -0.2747,0 -0.5066,-0.0816 -0.6954,-0.2446 -0.189,-0.1633 -0.2834,-0.4294 -0.2834,-0.7985 v -14.1934 c 0,-0.3693 0.0944,-0.6355 0.2834,-0.7985 0.1888,-0.1633 0.4207,-0.2449 0.6954,-0.2449 h 8.1272 c 0.0728,0 0.1417,0.0215 0.2018,0.0643 0.0559,0.0431 0.1072,0.116 0.1503,0.2192 0.0385,0.1074 0.0728,0.2403 0.0943,0.4036 0.0216,0.1673 0.0301,0.3733 0.0301,0.6268 0,0.2361 -0.009,0.4334 -0.0301,0.6009 -0.0215,0.1633 -0.0515,0.2962 -0.0943,0.3952 -0.0431,0.1029 -0.0944,0.176 -0.1503,0.223 -0.0601,0.0474 -0.129,0.0686 -0.2018,0.0686 h -5.8088 v 3.9671 h 4.8943 c 0.0771,0 0.146,0.0216 0.2061,0.0686 0.0644,0.0474 0.1159,0.116 0.1588,0.2146 0.043,0.0947 0.0731,0.2234 0.0943,0.3909 0.0216,0.163 0.0301,0.3606 0.0301,0.5924 0,0.2447 -0.009,0.4465 -0.0301,0.6052 -0.0212,0.1591 -0.0513,0.2878 -0.0943,0.3822 -0.0429,0.0989 -0.0944,0.1675 -0.1588,0.206 -0.0601,0.0431 -0.129,0.0644 -0.2061,0.0644 h -4.8943 v 4.5853 h 5.8473 c 0.0774,0 0.146,0.0215 0.2061,0.0686 0.0644,0.0473 0.116,0.1202 0.159,0.2234 0.0428,0.0986 0.0729,0.2318 0.0944,0.3948 0.0213,0.1676 0.0301,0.3694 0.0301,0.614 z"
         style="fill:#000000;fill-rule:evenodd"
         id="path4784" />
      <path
         inkscape:connector-curvature="0"
         d="m 415.2509,556.3777 c 0,0.2104 -0.004,0.3906 -0.0173,0.5366 -0.0127,0.146 -0.0343,0.2747 -0.0601,0.3779 -0.0215,0.1071 -0.0558,0.1973 -0.0986,0.2747 -0.0431,0.0728 -0.1074,0.1587 -0.2018,0.2534 -0.0902,0.0944 -0.2705,0.2188 -0.5324,0.3691 -0.2661,0.1459 -0.5882,0.2919 -0.9703,0.4294 -0.3821,0.1329 -0.8158,0.2489 -1.305,0.339 -0.4896,0.0902 -1.0219,0.1375 -1.5928,0.1375 -1.1121,0 -2.1167,-0.1718 -3.0138,-0.5153 -0.8975,-0.3433 -1.6617,-0.8586 -2.2884,-1.5412 -0.631,-0.6826 -1.1121,-1.5327 -1.4468,-2.5589 -0.3348,-1.0216 -0.5023,-2.211 -0.5023,-3.5676 0,-1.3822 0.1845,-2.6102 0.5538,-3.6834 0.3691,-1.0735 0.8845,-1.9749 1.5455,-2.7048 0.6613,-0.7299 1.4556,-1.2793 2.3828,-1.6571 0.923,-0.3779 1.9449,-0.5667 3.0611,-0.5667 0.4507,0 0.8844,0.0386 1.3051,0.1157 0.4207,0.0731 0.807,0.1717 1.1633,0.2965 0.3564,0.1202 0.6741,0.2616 0.9618,0.4206 0.2835,0.163 0.485,0.3005 0.5967,0.4122 0.1117,0.1159 0.1891,0.2103 0.2319,0.2832 0.0428,0.0774 0.0774,0.1718 0.0987,0.2877 0.0257,0.1202 0.0473,0.2577 0.06,0.4164 0.0131,0.159 0.0173,0.3521 0.0173,0.5882 0,0.2492 -0.008,0.4637 -0.0258,0.6398 -0.017,0.176 -0.047,0.3177 -0.0858,0.4249 -0.0428,0.1074 -0.0944,0.1891 -0.1503,0.2361 -0.0601,0.0516 -0.1287,0.0774 -0.2018,0.0774 -0.1245,0 -0.2832,-0.0731 -0.4765,-0.2191 -0.1931,-0.146 -0.4422,-0.309 -0.7469,-0.4893 -0.3051,-0.1803 -0.6699,-0.3435 -1.0948,-0.4895 -0.4209,-0.146 -0.9232,-0.2189 -1.5114,-0.2189 -0.6438,0 -1.2192,0.133 -1.7257,0.3949 -0.5066,0.2662 -0.936,0.6398 -1.2924,1.129 -0.3563,0.4938 -0.6267,1.0863 -0.8112,1.7819 -0.1849,0.6911 -0.275,1.4769 -0.275,2.3482 0,0.9533 0.0989,1.7819 0.2962,2.4818 0.1976,0.6953 0.4768,1.275 0.8416,1.7257 0.3606,0.4507 0.8028,0.79 1.3181,1.0088 0.5151,0.2234 1.0948,0.3351 1.7388,0.3351 0.5837,0 1.0905,-0.0689 1.5197,-0.2061 0.4249,-0.1375 0.79,-0.292 1.0947,-0.4552 0.3093,-0.1676 0.5581,-0.3178 0.7557,-0.4507 0.1973,-0.1333 0.3478,-0.2019 0.4592,-0.2019 0.0817,0 0.1503,0.0173 0.1976,0.0516 0.0516,0.0343 0.0944,0.0987 0.1287,0.2018 0.03,0.0987 0.0558,0.2404 0.0731,0.4207 0.017,0.1845 0.0258,0.4249 0.0258,0.7299 z m 13.3217,-12.4633 c 0,0.2449 -0.009,0.451 -0.03,0.6267 -0.0216,0.1718 -0.0516,0.3093 -0.0944,0.4122 -0.0431,0.1074 -0.0947,0.1848 -0.159,0.2318 -0.0601,0.0516 -0.133,0.0774 -0.2061,0.0774 h -4.07 v 13.1244 c 0,0.0814 -0.0255,0.1588 -0.0814,0.2274 -0.0558,0.0646 -0.1459,0.1204 -0.2707,0.1632 -0.1244,0.0386 -0.2962,0.0729 -0.5108,0.0987 -0.2145,0.0258 -0.4807,0.0388 -0.7985,0.0388 -0.3177,0 -0.5839,-0.013 -0.7985,-0.0388 -0.2146,-0.0258 -0.3864,-0.0601 -0.5108,-0.0987 -0.1247,-0.0428 -0.2149,-0.0986 -0.2704,-0.1632 -0.0559,-0.0686 -0.0817,-0.146 -0.0817,-0.2274 v -13.1244 h -4.07 c -0.0816,0 -0.1544,-0.0258 -0.2145,-0.0774 -0.0559,-0.047 -0.1075,-0.1244 -0.1506,-0.2318 -0.0385,-0.1029 -0.0728,-0.2404 -0.0943,-0.4122 -0.0213,-0.1757 -0.0301,-0.3818 -0.0301,-0.6267 0,-0.2489 0.009,-0.4635 0.0301,-0.6395 0.0215,-0.1761 0.0558,-0.3178 0.0943,-0.421 0.0431,-0.1071 0.0947,-0.1803 0.1506,-0.2273 0.0601,-0.0474 0.1329,-0.0689 0.2145,-0.0689 h 11.4628 c 0.0731,0 0.1417,0.0215 0.2061,0.0689 0.0643,0.047 0.1159,0.1202 0.159,0.2273 0.0428,0.1032 0.0728,0.2449 0.0944,0.421 0.0215,0.176 0.03,0.3906 0.03,0.6395 z m 5.2591,14.4725 c 0,0.0814 -0.0257,0.1588 -0.0816,0.2274 -0.0558,0.0646 -0.146,0.1204 -0.2704,0.1632 -0.1245,0.0386 -0.2962,0.0729 -0.5023,0.0987 -0.2103,0.0258 -0.4808,0.0388 -0.807,0.0388 -0.3178,0 -0.584,-0.013 -0.7988,-0.0388 -0.2146,-0.0258 -0.3864,-0.0601 -0.5108,-0.0987 -0.1245,-0.0428 -0.2146,-0.0986 -0.2705,-0.1632 -0.0558,-0.0686 -0.0816,-0.146 -0.0816,-0.2274 v -15.3782 c 0,-0.0816 0.0258,-0.159 0.0816,-0.2276 0.0559,-0.0644 0.146,-0.1202 0.279,-0.1633 0.1289,-0.0428 0.2962,-0.0729 0.5068,-0.0987 0.2103,-0.0257 0.4765,-0.0385 0.7943,-0.0385 0.3262,0 0.5967,0.0128 0.807,0.0385 0.2061,0.0258 0.3778,0.0559 0.5023,0.0987 0.1244,0.0431 0.2146,0.0989 0.2704,0.1633 0.0559,0.0686 0.0816,0.146 0.0816,0.2276 z m 18.1775,-7.878 c 0,1.3479 -0.1675,2.5543 -0.5023,3.619 -0.3348,1.0647 -0.8328,1.9706 -1.4984,2.709 -0.661,0.7427 -1.4811,1.3097 -2.4556,1.7003 -0.9789,0.3906 -2.1079,0.5839 -3.3917,0.5839 -1.2665,0 -2.3698,-0.1675 -3.31,-0.498 -0.9445,-0.3306 -1.7303,-0.8331 -2.3613,-1.5157 -0.6267,-0.6784 -1.099,-1.5412 -1.4125,-2.5886 -0.3135,-1.0477 -0.4722,-2.2884 -0.4722,-3.7225 0,-1.3136 0.1675,-2.4984 0.5023,-3.5504 0.3347,-1.0516 0.8328,-1.9448 1.4984,-2.6833 0.661,-0.7384 1.4811,-1.305 2.4556,-1.6956 0.9788,-0.3952 2.1124,-0.5925 3.4044,-0.5925 1.2322,0 2.3185,0.163 3.263,0.4893 0.9402,0.3262 1.7302,0.8285 2.3612,1.5111 0.6356,0.6784 1.1121,1.5327 1.4341,2.5674 0.322,1.0391 0.485,2.2583 0.485,3.6666 z m -3.4775,0.1672 c 0,-0.8543 -0.0686,-1.6313 -0.2019,-2.3312 -0.1329,-0.6996 -0.3605,-1.3008 -0.6826,-1.7989 -0.322,-0.4977 -0.7511,-0.8844 -1.2877,-1.159 -0.5369,-0.2705 -1.2065,-0.4079 -2.0092,-0.4079 -0.8116,0 -1.4899,0.1547 -2.0308,0.4595 -0.5454,0.3047 -0.9876,0.7168 -1.3223,1.2279 -0.3348,0.5108 -0.5709,1.1075 -0.7084,1.7901 -0.1375,0.6868 -0.2061,1.4083 -0.2061,2.1725 0,0.8886 0.0686,1.6872 0.2018,2.3955 0.133,0.7084 0.3606,1.3139 0.6784,1.8204 0.3174,0.5023 0.7426,0.8844 1.2792,1.1506 0.5366,0.2619 1.2107,0.3949 2.0223,0.3949 0.8113,0 1.4896,-0.1502 2.0304,-0.455 0.5454,-0.3007 0.9876,-0.7129 1.3224,-1.2322 0.3351,-0.5196 0.5712,-1.1248 0.7084,-1.8162 0.1375,-0.691 0.2061,-1.4295 0.2061,-2.211 z m 19.6886,7.0025 c 0,0.193 -0.0343,0.3648 -0.0987,0.5193 -0.0689,0.1502 -0.159,0.2749 -0.275,0.3778 -0.1114,0.0987 -0.2446,0.1718 -0.3991,0.2191 -0.159,0.0471 -0.3135,0.0686 -0.4722,0.0686 h -1.4125 c -0.2962,0 -0.5497,-0.03 -0.7642,-0.0859 -0.2104,-0.0601 -0.408,-0.1675 -0.5882,-0.322 -0.1846,-0.1545 -0.3564,-0.3648 -0.5239,-0.631 -0.1672,-0.2619 -0.3563,-0.6054 -0.5666,-1.0261 l -4.04,-7.6119 c -0.2361,-0.4552 -0.4722,-0.9445 -0.7168,-1.4683 -0.2447,-0.5239 -0.4595,-1.0347 -0.6526,-1.5285 h -0.0258 c 0.0343,0.6055 0.0601,1.2065 0.0774,1.8077 0.017,0.5967 0.0258,1.2192 0.0258,1.8544 v 8.5221 c 0,0.0816 -0.0215,0.159 -0.0689,0.2276 -0.047,0.0644 -0.1287,0.1202 -0.2404,0.1675 -0.1116,0.0471 -0.2661,0.0814 -0.4595,0.1072 -0.193,0.0258 -0.4422,0.0388 -0.7426,0.0388 -0.2962,0 -0.5409,-0.013 -0.7342,-0.0388 -0.193,-0.0258 -0.3433,-0.0601 -0.4507,-0.1072 -0.1117,-0.043 -0.1888,-0.1031 -0.2276,-0.1675 -0.0428,-0.0686 -0.0644,-0.146 -0.0644,-0.2276 v -14.6313 c 0,-0.3949 0.116,-0.6911 0.3478,-0.8887 0.2277,-0.1973 0.5108,-0.2962 0.8501,-0.2962 h 1.7731 c 0.3178,0 0.5882,0.0258 0.807,0.0816 0.2192,0.0559 0.4122,0.146 0.584,0.2705 0.1718,0.1244 0.3347,0.3004 0.4853,0.5238 0.1502,0.2188 0.3047,0.4981 0.4634,0.8243 l 3.1641,5.9548 c 0.1848,0.3605 0.3651,0.7168 0.5453,1.0647 0.1803,0.3478 0.3564,0.6953 0.5196,1.0431 0.1673,0.3478 0.3306,0.6914 0.4893,1.0261 0.1633,0.3391 0.3178,0.6741 0.468,1.0089 h 0.0128 c -0.0256,-0.5882 -0.0471,-1.2022 -0.0601,-1.8374 -0.0128,-0.6398 -0.017,-1.2495 -0.017,-1.8289 v -7.642 c 0,-0.0816 0.0257,-0.159 0.0771,-0.2276 0.0473,-0.0643 0.1332,-0.1244 0.2491,-0.176 0.1202,-0.0516 0.2747,-0.0859 0.468,-0.1072 0.1931,-0.0215 0.4422,-0.03 0.7427,-0.03 0.2877,0 0.5281,0.009 0.7211,0.03 0.1934,0.0213 0.3393,0.0556 0.4465,0.1072 0.1032,0.0516 0.1806,0.1117 0.2191,0.176 0.0428,0.0686 0.0644,0.1418 0.0644,0.2276 z m 23.9989,-7.1697 c 0,1.3479 -0.1675,2.5543 -0.5023,3.619 -0.3348,1.0647 -0.8328,1.9706 -1.4984,2.709 -0.661,0.7427 -1.4811,1.3097 -2.4556,1.7003 -0.9788,0.3906 -2.1079,0.5839 -3.3917,0.5839 -1.2665,0 -2.3698,-0.1675 -3.31,-0.498 -0.9445,-0.3306 -1.7303,-0.8331 -2.3613,-1.5157 -0.6267,-0.6784 -1.099,-1.5412 -1.4125,-2.5886 -0.3135,-1.0477 -0.4722,-2.2884 -0.4722,-3.7225 0,-1.3136 0.1675,-2.4984 0.5023,-3.5504 0.3348,-1.0516 0.8328,-1.9448 1.4984,-2.6833 0.661,-0.7384 1.4811,-1.305 2.4556,-1.6956 0.9788,-0.3952 2.1124,-0.5925 3.4044,-0.5925 1.2323,0 2.3185,0.163 3.263,0.4893 0.9402,0.3262 1.7303,0.8285 2.3613,1.5111 0.6355,0.6784 1.112,1.5327 1.434,2.5674 0.322,1.0391 0.485,2.2583 0.485,3.6666 z m -3.4775,0.1672 c 0,-0.8543 -0.0686,-1.6313 -0.2019,-2.3312 -0.1329,-0.6996 -0.3605,-1.3008 -0.6825,-1.7989 -0.3221,-0.4977 -0.7512,-0.8844 -1.2878,-1.159 -0.5369,-0.2705 -1.2064,-0.4079 -2.0092,-0.4079 -0.8116,0 -1.4899,0.1547 -2.0308,0.4595 -0.5453,0.3047 -0.9875,0.7168 -1.3223,1.2279 -0.3348,0.5108 -0.5709,1.1075 -0.7084,1.7901 -0.1375,0.6868 -0.2061,1.4083 -0.2061,2.1725 0,0.8886 0.0686,1.6872 0.2019,2.3955 0.1329,0.7084 0.3605,1.3139 0.6783,1.8204 0.3175,0.5023 0.7427,0.8844 1.2793,1.1506 0.5366,0.2619 1.2106,0.3949 2.0222,0.3949 0.8113,0 1.4896,-0.1502 2.0305,-0.455 0.5453,-0.3007 0.9875,-0.7129 1.3223,-1.2322 0.3351,-0.5196 0.5712,-1.1248 0.7084,-1.8162 0.1375,-0.691 0.2061,-1.4295 0.2061,-2.211 z m 15.4125,-6.7617 c 0,0.2534 -0.009,0.4637 -0.03,0.6355 -0.0216,0.1718 -0.0559,0.309 -0.1029,0.4121 -0.0474,0.0987 -0.099,0.1761 -0.1548,0.2231 -0.0601,0.0516 -0.1287,0.0774 -0.2016,0.0774 h -5.3322 v 4.379 h 5.0014 c 0.0774,0 0.146,0.0215 0.2019,0.0646 0.0601,0.0386 0.1117,0.1114 0.159,0.2103 0.047,0.1029 0.0771,0.2362 0.0986,0.4034 0.0216,0.1675 0.0343,0.3779 0.0343,0.6313 0,0.2489 -0.0127,0.4592 -0.0343,0.6267 -0.0215,0.1676 -0.0516,0.3048 -0.0986,0.4164 -0.0473,0.1075 -0.0989,0.1846 -0.159,0.2319 -0.0559,0.0473 -0.1245,0.0686 -0.2019,0.0686 h -5.0014 v 6.0664 c 0,0.0902 -0.0258,0.1718 -0.0774,0.2404 -0.047,0.0644 -0.1372,0.1202 -0.2704,0.1675 -0.1287,0.0471 -0.3005,0.0814 -0.5066,0.1072 -0.2103,0.0258 -0.4807,0.0388 -0.807,0.0388 -0.3178,0 -0.5839,-0.013 -0.7988,-0.0388 -0.2146,-0.0258 -0.3864,-0.0601 -0.5108,-0.1072 -0.1244,-0.043 -0.2146,-0.1031 -0.2704,-0.1675 -0.0559,-0.0686 -0.0817,-0.1502 -0.0817,-0.2404 v -14.76 c 0,-0.3693 0.0944,-0.6355 0.2835,-0.7985 0.1888,-0.1633 0.4207,-0.2449 0.6999,-0.2449 h 7.6719 c 0.0729,0 0.1415,0.0215 0.2016,0.0689 0.0558,0.047 0.1074,0.1202 0.1548,0.2273 0.047,0.1032 0.0813,0.2449 0.1029,0.421 0.0215,0.176 0.03,0.3906 0.03,0.6395 z m 19.7575,12.4633 c 0,0.2104 -0.004,0.3906 -0.0173,0.5366 -0.0128,0.146 -0.0343,0.2747 -0.0601,0.3779 -0.0215,0.1071 -0.0558,0.1973 -0.0986,0.2747 -0.0431,0.0728 -0.1075,0.1587 -0.2019,0.2534 -0.0901,0.0944 -0.2704,0.2188 -0.5323,0.3691 -0.2662,0.1459 -0.5882,0.2919 -0.9703,0.4294 -0.3821,0.1329 -0.8158,0.2489 -1.3051,0.339 -0.4895,0.0902 -1.0219,0.1375 -1.5928,0.1375 -1.112,0 -2.1166,-0.1718 -3.0138,-0.5153 -0.8974,-0.3433 -1.6616,-0.8586 -2.2884,-1.5412 -0.631,-0.6826 -1.112,-1.5327 -1.4468,-2.5589 -0.3348,-1.0216 -0.5023,-2.211 -0.5023,-3.5676 0,-1.3822 0.1846,-2.6102 0.5539,-3.6834 0.3691,-1.0735 0.8844,-1.9749 1.5455,-2.7048 0.6613,-0.7299 1.4555,-1.2793 2.3828,-1.6571 0.9229,-0.3779 1.9448,-0.5667 3.0611,-0.5667 0.4507,0 0.8844,0.0386 1.3051,0.1157 0.4206,0.0731 0.807,0.1717 1.1633,0.2965 0.3563,0.1202 0.6741,0.2616 0.9618,0.4206 0.2835,0.163 0.485,0.3005 0.5967,0.4122 0.1117,0.1159 0.1891,0.2103 0.2319,0.2832 0.0428,0.0774 0.0773,0.1718 0.0986,0.2877 0.0258,0.1202 0.0473,0.2577 0.0601,0.4164 0.013,0.159 0.0173,0.3521 0.0173,0.5882 0,0.2492 -0.009,0.4637 -0.0258,0.6398 -0.017,0.176 -0.0471,0.3177 -0.0859,0.4249 -0.0428,0.1074 -0.0944,0.1891 -0.1502,0.2361 -0.0601,0.0516 -0.1287,0.0774 -0.2019,0.0774 -0.1244,0 -0.2831,-0.0731 -0.4765,-0.2191 -0.193,-0.146 -0.4422,-0.309 -0.7469,-0.4893 -0.305,-0.1803 -0.6698,-0.3435 -1.0947,-0.4895 -0.421,-0.146 -0.9233,-0.2189 -1.5115,-0.2189 -0.6437,0 -1.2191,0.133 -1.7257,0.3949 -0.5065,0.2662 -0.936,0.6398 -1.2923,1.129 -0.3563,0.4938 -0.6267,1.0863 -0.8113,1.7819 -0.1848,0.6911 -0.2749,1.4769 -0.2749,2.3482 0,0.9533 0.0989,1.7819 0.2962,2.4818 0.1976,0.6953 0.4768,1.275 0.8416,1.7257 0.3606,0.4507 0.8028,0.79 1.3181,1.0088 0.515,0.2234 1.0947,0.3351 1.7388,0.3351 0.5836,0 1.0905,-0.0689 1.5196,-0.2061 0.4249,-0.1375 0.79,-0.292 1.0948,-0.4552 0.3092,-0.1676 0.5581,-0.3178 0.7557,-0.4507 0.1973,-0.1333 0.3478,-0.2019 0.4592,-0.2019 0.0816,0 0.1502,0.0173 0.1976,0.0516 0.0516,0.0343 0.0944,0.0987 0.1287,0.2018 0.03,0.0987 0.0558,0.2404 0.0731,0.4207 0.017,0.1845 0.0258,0.4249 0.0258,0.7299 z m 12.0124,1.1591 c 0,0.2446 -0.009,0.4465 -0.0301,0.614 -0.0215,0.163 -0.0516,0.2962 -0.0944,0.3949 -0.0431,0.1032 -0.0947,0.176 -0.159,0.2233 -0.0601,0.0471 -0.1329,0.0686 -0.2061,0.0686 h -8.1657 c -0.2747,0 -0.5066,-0.0816 -0.6954,-0.2446 -0.1891,-0.1633 -0.2834,-0.4294 -0.2834,-0.7985 v -14.1934 c 0,-0.3693 0.0943,-0.6355 0.2834,-0.7985 0.1888,-0.1633 0.4207,-0.2449 0.6954,-0.2449 h 8.1272 c 0.0728,0 0.1417,0.0215 0.2018,0.0643 0.0558,0.0431 0.1071,0.116 0.1502,0.2192 0.0386,0.1074 0.0729,0.2403 0.0944,0.4036 0.0216,0.1673 0.0301,0.3733 0.0301,0.6268 0,0.2361 -0.008,0.4334 -0.0301,0.6009 -0.0215,0.1633 -0.0516,0.2962 -0.0944,0.3952 -0.0431,0.1029 -0.0944,0.176 -0.1502,0.223 -0.0601,0.0474 -0.129,0.0686 -0.2018,0.0686 h -5.8088 v 3.9671 h 4.8943 c 0.0771,0 0.146,0.0216 0.2061,0.0686 0.0643,0.0474 0.1159,0.116 0.1587,0.2146 0.0431,0.0947 0.0732,0.2234 0.0944,0.3909 0.0216,0.163 0.0301,0.3606 0.0301,0.5924 0,0.2447 -0.009,0.4465 -0.0301,0.6052 -0.0212,0.1591 -0.0513,0.2878 -0.0944,0.3822 -0.0428,0.0989 -0.0944,0.1675 -0.1587,0.206 -0.0601,0.0431 -0.129,0.0644 -0.2061,0.0644 h -4.8943 v 4.5853 h 5.8473 c 0.0774,0 0.146,0.0215 0.2061,0.0686 0.0643,0.0473 0.1159,0.1202 0.159,0.2234 0.0428,0.0986 0.0729,0.2318 0.0944,0.3948 0.0213,0.1676 0.0301,0.3694 0.0301,0.614 z m 11.8706,-0.0816 c 0,0.2491 -0.009,0.4637 -0.03,0.6355 -0.0216,0.1718 -0.0559,0.3132 -0.0944,0.4249 -0.0431,0.116 -0.0944,0.1976 -0.1588,0.2447 -0.0646,0.0515 -0.1375,0.0773 -0.2191,0.0773 h -7.4574 c -0.2747,0 -0.5065,-0.0816 -0.6953,-0.2446 -0.1891,-0.1633 -0.2835,-0.4294 -0.2835,-0.7985 v -14.7858 c 0,-0.0816 0.0258,-0.159 0.0817,-0.2276 0.0558,-0.0644 0.1459,-0.1202 0.2704,-0.1633 0.1244,-0.0428 0.2962,-0.0729 0.5108,-0.0987 0.2149,-0.0257 0.481,-0.0385 0.7988,-0.0385 0.3263,0 0.5967,0.0128 0.807,0.0385 0.2061,0.0258 0.3779,0.0559 0.5023,0.0987 0.1245,0.0431 0.2146,0.0989 0.2704,0.1633 0.0559,0.0686 0.0817,0.146 0.0817,0.2276 v 13.0983 h 5.1131 c 0.0816,0 0.159,0.0216 0.2191,0.0689 0.0644,0.0471 0.1157,0.1202 0.1588,0.2276 0.0428,0.1029 0.0728,0.2404 0.0944,0.4164 0.0215,0.1715 0.03,0.3821 0.03,0.6353 z m 10.8919,0 c 0,0.2491 -0.009,0.4637 -0.0301,0.6355 -0.0215,0.1718 -0.0558,0.3132 -0.0944,0.4249 -0.0431,0.116 -0.0944,0.1976 -0.1587,0.2447 -0.0647,0.0515 -0.1375,0.0773 -0.2191,0.0773 h -7.4574 c -0.2747,0 -0.5066,-0.0816 -0.6954,-0.2446 -0.189,-0.1633 -0.2834,-0.4294 -0.2834,-0.7985 v -14.7858 c 0,-0.0816 0.0258,-0.159 0.0816,-0.2276 0.0558,-0.0644 0.146,-0.1202 0.2704,-0.1633 0.1245,-0.0428 0.2962,-0.0729 0.5108,-0.0987 0.2149,-0.0257 0.4811,-0.0385 0.7988,-0.0385 0.3263,0 0.5967,0.0128 0.8071,0.0385 0.206,0.0258 0.3778,0.0559 0.5023,0.0987 0.1244,0.0431 0.2145,0.0989 0.2704,0.1633 0.0558,0.0686 0.0816,0.146 0.0816,0.2276 v 13.0983 h 5.1132 c 0.0816,0 0.159,0.0216 0.2191,0.0689 0.0643,0.0471 0.1156,0.1202 0.1587,0.2276 0.0428,0.1029 0.0729,0.2404 0.0944,0.4164 0.0215,0.1715 0.0301,0.3821 0.0301,0.6353 z m 11.6132,-3.5034 c 0,0.8589 -0.159,1.6059 -0.4768,2.2542 -0.3217,0.644 -0.7512,1.1806 -1.2963,1.6143 -0.5496,0.4291 -1.1851,0.7554 -1.9148,0.9745 -0.7299,0.2189 -1.5114,0.3263 -2.3442,0.3263 -0.5624,0 -1.0817,-0.0473 -1.567,-0.1417 -0.4808,-0.0944 -0.906,-0.2061 -1.275,-0.3393 -0.3694,-0.1287 -0.6784,-0.2662 -0.9275,-0.4122 -0.2489,-0.146 -0.4249,-0.2747 -0.5366,-0.3821 -0.1072,-0.1114 -0.1846,-0.2704 -0.2319,-0.4765 -0.0471,-0.2061 -0.0686,-0.4981 -0.0686,-0.8844 0,-0.2619 0.008,-0.4765 0.0258,-0.6526 0.0173,-0.176 0.0428,-0.3177 0.0816,-0.4291 0.0386,-0.1075 0.0902,-0.1848 0.1503,-0.2319 0.0643,-0.0473 0.1372,-0.0689 0.2231,-0.0689 0.1159,0 0.2834,0.0689 0.498,0.2106 0.2149,0.1372 0.4895,0.2917 0.8243,0.4593 0.3351,0.1675 0.7384,0.322 1.2064,0.4594 0.4638,0.1415 1.0046,0.2104 1.6186,0.2104 0.4037,0 0.7642,-0.0474 1.082,-0.1418 0.3217,-0.0986 0.5925,-0.2318 0.8155,-0.4079 0.2234,-0.176 0.3907,-0.3906 0.5111,-0.6482 0.1157,-0.2577 0.1761,-0.5451 0.1761,-0.8629 0,-0.3694 -0.099,-0.6868 -0.3008,-0.9488 -0.2018,-0.2661 -0.4635,-0.498 -0.7897,-0.7041 -0.322,-0.2061 -0.6914,-0.3994 -1.1036,-0.5797 -0.4079,-0.1803 -0.8328,-0.369 -1.2707,-0.5709 -0.438,-0.2018 -0.8629,-0.4294 -1.2708,-0.6868 -0.4122,-0.2534 -0.7812,-0.5581 -1.1032,-0.9145 -0.3263,-0.3563 -0.5882,-0.7772 -0.7901,-1.2665 -0.2018,-0.4853 -0.3004,-1.0689 -0.3004,-1.7473 0,-0.7772 0.146,-1.4641 0.4334,-2.0565 0.2877,-0.5882 0.6783,-1.0777 1.1679,-1.4683 0.4938,-0.3907 1.0689,-0.6826 1.7345,-0.8759 0.6653,-0.1931 1.3736,-0.2875 2.1209,-0.2875 0.3821,0 0.7684,0.0301 1.1548,0.0902 0.3864,0.0558 0.7469,0.1372 1.0817,0.2361 0.3351,0.1029 0.6313,0.2146 0.8932,0.339 0.2574,0.129 0.4292,0.2319 0.515,0.3178 0.0817,0.0816 0.1375,0.1545 0.1676,0.2103 0.03,0.0601 0.0558,0.1375 0.0771,0.2361 0.0215,0.0944 0.0346,0.2146 0.0431,0.3649 0.009,0.1459 0.0127,0.3265 0.0127,0.5453 0,0.2404 -0.004,0.4465 -0.017,0.614 -0.013,0.1673 -0.0343,0.3047 -0.0643,0.4164 -0.0301,0.1075 -0.0732,0.1888 -0.1248,0.2362 -0.0558,0.0515 -0.1287,0.0771 -0.223,0.0771 -0.0902,0 -0.2362,-0.0601 -0.438,-0.1758 -0.2018,-0.1159 -0.4507,-0.2449 -0.7427,-0.3866 -0.2962,-0.1372 -0.6355,-0.2617 -1.0219,-0.3734 -0.3863,-0.1159 -0.807,-0.1717 -1.2707,-0.1717 -0.3606,0 -0.6741,0.0428 -0.9445,0.1329 -0.2662,0.0859 -0.4896,0.2106 -0.6699,0.3651 -0.1803,0.1545 -0.3174,0.339 -0.4033,0.5582 -0.0902,0.2188 -0.1333,0.4507 -0.1333,0.691 0,0.3606 0.099,0.6741 0.2963,0.936 0.1975,0.2662 0.4637,0.5023 0.7942,0.7084 0.3305,0.2018 0.7084,0.3949 1.1291,0.5752 0.4164,0.1805 0.8458,0.3736 1.2838,0.5711 0.4379,0.2019 0.8671,0.4292 1.2835,0.6869 0.4209,0.2577 0.7943,0.5624 1.1251,0.9187 0.3262,0.3563 0.5924,0.7727 0.794,1.258 0.2018,0.4808 0.3007,1.0474 0.3007,1.6999 z"
         style="fill:#000000;fill-rule:evenodd"
         id="path4786" />
    </g>
    <g
       id="g15778">
      <g
         id="g15733">
        <path
           inkscape:connector-curvature="0"
           d="m 183.46728,102.7869 a 7.6212,7.6212 0 0 1 7.6212,7.6212 7.6212,7.6212 0 1 1 -7.6212,-7.6212 z"
           style="fill:#000000;fill-opacity:1;fill-rule:evenodd;stroke:#000000;stroke-width:0.56690001;stroke-linecap:butt;stroke-linejoin:miter;stroke-dasharray:none;stroke-opacity:1"
           id="path4789" />
        <path
           inkscape:connector-curvature="0"
           d="m 136.95868,33.1977 a 10.4808,10.4808 0 0 1 10.4808,10.4809 10.4808,10.4808 0 1 1 -10.4808,-10.4809 z"
           style="fill:#000000;fill-opacity:1;fill-rule:evenodd;stroke:#000000;stroke-width:0.56690001;stroke-linecap:butt;stroke-linejoin:miter;stroke-dasharray:none;stroke-opacity:1"
           id="path4791" />
        <path
           inkscape:connector-curvature="0"
           d="m 169.98658,36.635 a 10.4139,10.4139 0 0 1 10.4139,10.4139 10.4139,10.4139 0 1 1 -10.4139,-10.4139 z"
           style="fill:#000000;fill-opacity:1;fill-rule:evenodd;stroke:#000000;stroke-width:0.56690001;stroke-linecap:butt;stroke-linejoin:miter;stroke-dasharray:none;stroke-opacity:1"
           id="path4793" />
        <path
           inkscape:connector-curvature="0"
           d="m 198.29588,44.8932 a 10.9179,10.9179 0 0 1 10.9179,10.9179 10.9179,10.9179 0 1 1 -10.9179,-10.9179 z"
           style="fill:#000000;fill-opacity:1;fill-rule:evenodd;stroke:#000000;stroke-width:0.56690001;stroke-linecap:butt;stroke-linejoin:miter;stroke-dasharray:none;stroke-opacity:1"
           id="path4795" />
        <path
           inkscape:connector-curvature="0"
           d="m 226.60578,70.024 a 10.7266,10.7266 0 0 1 10.7266,10.7266 10.7266,10.7266 0 1 1 -10.7266,-10.7266 z"
           style="fill:#000000;fill-opacity:1;fill-rule:evenodd;stroke:#000000;stroke-width:0.56690001;stroke-linecap:butt;stroke-linejoin:miter;stroke-dasharray:none;stroke-opacity:1"
           id="path4797" />
        <path
           inkscape:connector-curvature="0"
           d="m 241.43438,99.4868 a 12.2695,12.2695 0 0 1 12.2695,12.2695 12.2695,12.2695 0 1 1 -12.2695,-12.2695 z"
           style="fill:#000000;fill-opacity:1;fill-rule:evenodd;stroke:#000000;stroke-width:0.56690001;stroke-linecap:butt;stroke-linejoin:miter;stroke-dasharray:none;stroke-opacity:1"
           id="path4799" />
        <path
           inkscape:connector-curvature="0"
           d="m 215.82108,99.6234 a 5.3923,5.3923 0 0 1 5.3924,5.3924 5.3923,5.3923 0 1 1 -5.3924,-5.3924 z"
           style="fill:#000000;fill-opacity:1;fill-rule:evenodd;stroke:#000000;stroke-width:0.56690001;stroke-linecap:butt;stroke-linejoin:miter;stroke-dasharray:none;stroke-opacity:1"
           id="path4801" />
        <path
           inkscape:connector-curvature="0"
           d="m 194.92578,77.3221 a 8.1468,8.1468 0 0 1 8.1468,8.1468 8.1468,8.1468 0 1 1 -8.1468,-8.1468 z"
           style="fill:#000000;fill-opacity:1;fill-rule:evenodd;stroke:#000000;stroke-width:0.56690001;stroke-linecap:butt;stroke-linejoin:miter;stroke-dasharray:none;stroke-opacity:1"
           id="path4803" />
        <path
           inkscape:connector-curvature="0"
           d="m 161.89788,70.6057 a 10.819,10.819 0 0 1 10.819,10.819 10.819,10.819 0 1 1 -10.819,-10.819 z"
           style="fill:#000000;fill-opacity:1;fill-rule:evenodd;stroke:#000000;stroke-width:0.56690001;stroke-linecap:butt;stroke-linejoin:miter;stroke-dasharray:none;stroke-opacity:1"
           id="path4805" />
        <path
           inkscape:connector-curvature="0"
           d="m 128.19598,64.2672 a 10.417,10.417 0 0 1 10.417,10.417 10.417,10.417 0 1 1 -10.417,-10.417 z"
           style="fill:#000000;fill-opacity:1;fill-rule:evenodd;stroke:#000000;stroke-width:0.56690001;stroke-linecap:butt;stroke-linejoin:miter;stroke-dasharray:none;stroke-opacity:1"
           id="path4807" />
        <path
           inkscape:connector-curvature="0"
           d="m 106.37828,39.3356 a 10.6495,10.6495 0 0 1 10.6495,10.6495 10.6495,10.6495 0 1 1 -10.6495,-10.6495 z"
           style="fill:#000000;fill-opacity:1;fill-rule:evenodd;stroke:#000000;stroke-width:0.56690001;stroke-linecap:butt;stroke-linejoin:miter;stroke-dasharray:none;stroke-opacity:1"
           id="path4809" />
        <path
           inkscape:connector-curvature="0"
           d="m 76.969382,53.7645 a 10.8094,10.8094 0 0 1 10.8093,10.8094 10.8094,10.8094 0 1 1 -10.8093,-10.8094 z"
           style="fill:#000000;fill-opacity:1;fill-rule:evenodd;stroke:#000000;stroke-width:0.56690001;stroke-linecap:butt;stroke-linejoin:miter;stroke-dasharray:none;stroke-opacity:1"
           id="path4811" />
        <path
           inkscape:connector-curvature="0"
           d="M 97.190282,79.6482 A 10.5386,10.5386 0 0 1 107.72898,90.1869 10.5386,10.5386 0 1 1 97.190282,79.6482 Z"
           style="fill:#000000;fill-opacity:1;fill-rule:evenodd;stroke:#000000;stroke-width:0.56690001;stroke-linecap:butt;stroke-linejoin:miter;stroke-dasharray:none;stroke-opacity:1"
           id="path4813" />
        <path
           inkscape:connector-curvature="0"
           d="m 112.69328,106.8206 a 4.9357,4.9357 0 0 1 4.9357,4.9357 4.9357,4.9357 0 1 1 -4.9357,-4.9357 z"
           style="fill:#000000;fill-opacity:1;fill-rule:evenodd;stroke:#000000;stroke-width:0.56690001;stroke-linecap:butt;stroke-linejoin:miter;stroke-dasharray:none;stroke-opacity:1"
           id="path4815" />
        <path
           inkscape:connector-curvature="0"
           d="m 54.051882,79.2366 a 10.9502,10.9502 0 0 1 10.9502,10.9503 10.9502,10.9502 0 1 1 -10.9502,-10.9503 z"
           style="fill:#000000;fill-opacity:1;fill-rule:evenodd;stroke:#000000;stroke-width:0.56690001;stroke-linecap:butt;stroke-linejoin:miter;stroke-dasharray:none;stroke-opacity:1"
           id="path4817" />
        <path
           inkscape:connector-curvature="0"
           d="m 73.598982,103.6679 a 6.0661,6.0661 0 0 1 6.0661,6.0661 6.0661,6.0661 0 1 1 -6.0661,-6.0661 z"
           style="fill:#000000;fill-opacity:1;fill-rule:evenodd;stroke:#000000;stroke-width:0.56690001;stroke-linecap:butt;stroke-linejoin:miter;stroke-dasharray:none;stroke-opacity:1"
           id="path4819" />
        <path
           inkscape:connector-curvature="0"
           d="m 37.875082,112.2367 a 6.9338,6.9338 0 0 1 6.9338,6.9339 6.9338,6.9338 0 1 1 -6.9338,-6.9339 z"
           style="fill:#000000;fill-opacity:1;fill-rule:evenodd;stroke:#000000;stroke-width:0.56690001;stroke-linecap:butt;stroke-linejoin:miter;stroke-dasharray:none;stroke-opacity:1"
           id="path4821" />
        <path
           inkscape:connector-curvature="0"
           d="m 35.852882,142.0921 a 10.7802,10.7802 0 0 1 10.7801,10.7801 10.7802,10.7802 0 1 1 -10.7801,-10.7801 z"
           style="fill:#000000;fill-opacity:1;fill-rule:evenodd;stroke:#000000;stroke-width:0.56690001;stroke-linecap:butt;stroke-linejoin:miter;stroke-dasharray:none;stroke-opacity:1"
           id="path4823" />
        <path
           inkscape:connector-curvature="0"
           d="m 43.267382,170.5922 a 11.9375,11.9375 0 0 1 11.9376,11.9375 11.9375,11.9375 0 1 1 -11.9376,-11.9375 z"
           style="fill:#000000;fill-opacity:1;fill-rule:evenodd;stroke:#000000;stroke-width:0.56690001;stroke-linecap:butt;stroke-linejoin:miter;stroke-dasharray:none;stroke-opacity:1"
           id="path4825" />
        <path
           inkscape:connector-curvature="0"
           d="m 53.377782,202.6577 a 9.5298,9.5298 0 0 1 9.5298,9.5298 9.5298,9.5298 0 1 1 -9.5298,-9.5298 z"
           style="fill:#000000;fill-opacity:1;fill-rule:evenodd;stroke:#000000;stroke-width:0.56690001;stroke-linecap:butt;stroke-linejoin:miter;stroke-dasharray:none;stroke-opacity:1"
           id="path4827" />
        <path
           inkscape:connector-curvature="0"
           d="m 76.969382,189.599 a 7.0855,7.0855 0 0 1 7.0855,7.0855 7.0855,7.0855 0 1 1 -7.0855,-7.0855 z"
           style="fill:#000000;fill-opacity:1;fill-rule:evenodd;stroke:#000000;stroke-width:0.56690001;stroke-linecap:butt;stroke-linejoin:miter;stroke-dasharray:none;stroke-opacity:1"
           id="path4829" />
        <path
           inkscape:connector-curvature="0"
           d="m 100.56068,204.3775 a 10.506,10.506 0 0 1 10.5061,10.506 10.506,10.506 0 1 1 -10.5061,-10.506 z"
           style="fill:#000000;fill-opacity:1;fill-rule:evenodd;stroke:#000000;stroke-width:0.56690001;stroke-linecap:butt;stroke-linejoin:miter;stroke-dasharray:none;stroke-opacity:1"
           id="path4831" />
        <path
           inkscape:connector-curvature="0"
           d="m 76.969382,223.5952 a 10.8354,10.8354 0 0 1 10.8354,10.8354 10.8354,10.8354 0 1 1 -10.8354,-10.8354 z"
           style="fill:#000000;fill-opacity:1;fill-rule:evenodd;stroke:#000000;stroke-width:0.56690001;stroke-linecap:butt;stroke-linejoin:miter;stroke-dasharray:none;stroke-opacity:1"
           id="path4833" />
        <path
           inkscape:connector-curvature="0"
           d="m 134.26238,194.0327 a 12.0883,12.0883 0 0 1 12.0883,12.0883 12.0883,12.0883 0 1 1 -12.0883,-12.0883 z"
           style="fill:#000000;fill-opacity:1;fill-rule:evenodd;stroke:#000000;stroke-width:0.56690001;stroke-linecap:butt;stroke-linejoin:miter;stroke-dasharray:none;stroke-opacity:1"
           id="path4835" />
        <path
           inkscape:connector-curvature="0"
           d="m 122.12978,227.6575 a 6.099,6.099 0 0 1 6.0991,6.0991 6.099,6.099 0 1 1 -6.0991,-6.0991 z"
           style="fill:#000000;fill-opacity:1;fill-rule:evenodd;stroke:#000000;stroke-width:0.56690001;stroke-linecap:butt;stroke-linejoin:miter;stroke-dasharray:none;stroke-opacity:1"
           id="path4837" />
        <path
           inkscape:connector-curvature="0"
           d="m 103.93078,243.8672 a 6.7405,6.7405 0 0 1 6.7405,6.7405 6.7405,6.7405 0 1 1 -6.7405,-6.7405 z"
           style="fill:#000000;fill-opacity:1;fill-rule:evenodd;stroke:#000000;stroke-width:0.56690001;stroke-linecap:butt;stroke-linejoin:miter;stroke-dasharray:none;stroke-opacity:1"
           id="path4839" />
        <path
           inkscape:connector-curvature="0"
           d="m 130.89228,246.5632 a 10.1106,10.1106 0 0 1 10.1106,10.1106 10.1106,10.1106 0 1 1 -10.1106,-10.1106 z"
           style="fill:#000000;fill-opacity:1;fill-rule:evenodd;stroke:#000000;stroke-width:0.56690001;stroke-linecap:butt;stroke-linejoin:miter;stroke-dasharray:none;stroke-opacity:1"
           id="path4841" />
        <path
           inkscape:connector-curvature="0"
           d="m 155.15738,225.4077 a 8.3489,8.3489 0 0 1 8.3489,8.3489 8.3489,8.3489 0 1 1 -8.3489,-8.3489 z"
           style="fill:#000000;fill-opacity:1;fill-rule:evenodd;stroke:#000000;stroke-width:0.56690001;stroke-linecap:butt;stroke-linejoin:miter;stroke-dasharray:none;stroke-opacity:1"
           id="path4843" />
        <path
           inkscape:connector-curvature="0"
           d="m 163.92018,247.0326 a 9.6412,9.6412 0 0 1 9.6412,9.6412 9.6412,9.6412 0 1 1 -9.6412,-9.6412 z"
           style="fill:#000000;fill-opacity:1;fill-rule:evenodd;stroke:#000000;stroke-width:0.56690001;stroke-linecap:butt;stroke-linejoin:miter;stroke-dasharray:none;stroke-opacity:1"
           id="path4845" />
        <path
           inkscape:connector-curvature="0"
           d="m 174.03078,197.7826 a 12.3829,12.3829 0 0 1 12.3828,12.3829 12.3829,12.3829 0 1 1 -12.3828,-12.3829 z"
           style="fill:#000000;fill-opacity:1;fill-rule:evenodd;stroke:#000000;stroke-width:0.56690001;stroke-linecap:butt;stroke-linejoin:miter;stroke-dasharray:none;stroke-opacity:1"
           id="path4847" />
        <path
           inkscape:connector-curvature="0"
           d="m 195.59988,231.5328 a 10.3124,10.3124 0 0 1 10.3124,10.3124 10.3124,10.3124 0 1 1 -10.3124,-10.3124 z"
           style="fill:#000000;fill-opacity:1;fill-rule:evenodd;stroke:#000000;stroke-width:0.56690001;stroke-linecap:butt;stroke-linejoin:miter;stroke-dasharray:none;stroke-opacity:1"
           id="path4849" />
        <path
           inkscape:connector-curvature="0"
           d="m 221.88748,208.4078 a 11.8681,11.8681 0 0 1 11.8681,11.868 11.8681,11.8681 0 1 1 -11.8681,-11.868 z"
           style="fill:#000000;fill-opacity:1;fill-rule:evenodd;stroke:#000000;stroke-width:0.56690001;stroke-linecap:butt;stroke-linejoin:miter;stroke-dasharray:none;stroke-opacity:1"
           id="path4851" />
        <path
           inkscape:connector-curvature="0"
           d="m 204.36258,190.9075 a 6.4511,6.4511 0 0 1 6.4511,6.4511 6.4511,6.4511 0 1 1 -6.4511,-6.4511 z"
           style="fill:#000000;fill-opacity:1;fill-rule:evenodd;stroke:#000000;stroke-width:0.56690001;stroke-linecap:butt;stroke-linejoin:miter;stroke-dasharray:none;stroke-opacity:1"
           id="path4853" />
        <path
           inkscape:connector-curvature="0"
           d="m 245.47888,183.2038 a 5.3926,5.3926 0 0 1 5.3926,5.3926 5.3926,5.3926 0 1 1 -5.3926,-5.3926 z"
           style="fill:#000000;fill-opacity:1;fill-rule:evenodd;stroke:#000000;stroke-width:0.56690001;stroke-linecap:butt;stroke-linejoin:miter;stroke-dasharray:none;stroke-opacity:1"
           id="path4855" />
        <path
           inkscape:connector-curvature="0"
           d="m 54.051882,125.2367 a 5.3926,5.3926 0 0 1 5.3926,5.3926 5.3926,5.3926 0 1 1 -5.3926,-5.3926 z"
           style="fill:#000000;fill-opacity:1;fill-rule:evenodd;stroke:#000000;stroke-width:0.56690001;stroke-linecap:butt;stroke-linejoin:miter;stroke-dasharray:none;stroke-opacity:1"
           id="path4857" />
        <path
           inkscape:connector-curvature="0"
           d="m 250.87088,135.9454 a 14.2308,14.2308 0 0 1 14.2308,14.2308 14.2308,14.2308 0 1 1 -14.2308,-14.2308 z"
           style="fill:#000000;fill-opacity:1;fill-rule:evenodd;stroke:#000000;stroke-width:0.56690001;stroke-linecap:butt;stroke-linejoin:miter;stroke-dasharray:none;stroke-opacity:1"
           id="path4859" />
        <path
           inkscape:connector-curvature="0"
           d="m 140.32878,97.5708 a 8.7931,8.7931 0 0 1 8.7931,8.7931 8.7931,8.7931 0 1 1 -8.7931,-8.7931 z"
           style="fill:#000000;fill-opacity:1;fill-rule:evenodd;stroke:#000000;stroke-width:0.56690001;stroke-linecap:butt;stroke-linejoin:miter;stroke-dasharray:none;stroke-opacity:1"
           id="path4861" />
      </g>
      <g
         id="Layer1003"
         transform="translate(1.3109824,-383.0765)"
         style="fill:#000000">
        <path
           inkscape:connector-curvature="0"
           d="m 105.9101,556.2166 c 0,0.7861 -0.0241,1.4559 -0.0715,2.0057 -0.0465,0.5505 -0.118,1.0229 -0.2119,1.4156 -0.0943,0.3939 -0.221,0.731 -0.3773,1.0143 -0.1579,0.2834 -0.4093,0.6058 -0.755,0.9678 -0.3469,0.3623 -1.0151,0.826 -2.0057,1.3916 -0.991,0.5667 -2.2022,1.1094 -3.6333,1.6287 -1.4319,0.5186 -3.0674,0.9508 -4.9085,1.2973 -1.8399,0.3461 -3.8298,0.519 -5.9693,0.519 -4.1839,0 -7.9585,-0.6445 -11.3242,-1.9354 -3.3673,-1.2886 -6.2294,-3.215 -8.5883,-5.7799 -2.3605,-2.5634 -4.1701,-5.7642 -5.4267,-9.6027 -1.259,-3.8373 -1.8877,-8.3046 -1.8877,-13.4013 0,-5.1906 0.6919,-9.7988 2.076,-13.826 1.3844,-4.0267 3.3183,-7.4086 5.8039,-10.1457 2.4852,-2.7374 5.4662,-4.8133 8.9428,-6.2294 3.4754,-1.4145 7.3057,-2.1229 11.4903,-2.1229 1.6979,0 3.3334,0.1417 4.9073,0.4247 1.5727,0.2837 3.0279,0.6527 4.365,1.1094 1.3364,0.4554 2.5401,0.9831 3.6096,1.5802 1.0688,0.5975 1.8171,1.1098 2.2413,1.5329 0.4251,0.4247 0.7156,0.7799 0.8734,1.0625 0.1571,0.2825 0.283,0.646 0.3777,1.0861 0.0944,0.4396 0.1646,0.959 0.2124,1.5565 0.0465,0.5988 0.0702,1.3376 0.0702,2.2181 0,0.9432 -0.0316,1.746 -0.0939,2.4066 -0.0636,0.6595 -0.1733,1.1951 -0.3303,1.604 -0.1575,0.4088 -0.347,0.7076 -0.5668,0.8967 -0.2202,0.1882 -0.4716,0.2833 -0.7546,0.2833 -0.4716,0 -1.0699,-0.2754 -1.7934,-0.826 -0.7238,-0.5498 -1.6591,-1.1635 -2.808,-1.8399 -1.1485,-0.6761 -2.5168,-1.2894 -4.1049,-1.8412 -1.5886,-0.5497 -3.4846,-0.8256 -5.686,-0.8256 -2.4225,0 -4.586,0.4957 -6.4883,1.4867 -1.9035,0.9906 -3.5244,2.4063 -4.8611,4.2474 -1.3368,1.8399 -2.3511,4.0659 -3.0437,6.6766 -0.6923,2.6111 -1.0376,5.5533 -1.0376,8.8243 0,3.5868 0.369,6.6928 1.109,9.3189 0.7392,2.6277 1.793,4.7905 3.1613,6.4891 1.3683,1.6991 3.02,2.9656 4.9554,3.7983 1.9343,0.8343 4.1121,1.2511 6.5349,1.2511 2.2023,0 4.1058,-0.2601 5.7101,-0.7791 1.6039,-0.5182 2.9797,-1.0928 4.1286,-1.7219 1.1485,-0.6287 2.0917,-1.1955 2.8313,-1.6994 0.7392,-0.5021 1.3135,-0.755 1.7224,-0.755 0.3145,0 0.5667,0.0635 0.7553,0.1894 0.1891,0.1263 0.3454,0.3773 0.4721,0.7546 0.1251,0.3777 0.2198,0.9046 0.2833,1.5806 0.0616,0.6765 0.0944,1.5811 0.0944,2.7134 z"
           style="fill:#000000;fill-rule:evenodd"
           id="path4864" />
        <path
           inkscape:connector-curvature="0"
           d="m 158.1963,563.8617 c 0,0.3461 -0.0639,0.637 -0.1894,0.873 -0.1263,0.236 -0.4247,0.4321 -0.8963,0.5896 -0.472,0.1563 -1.1639,0.2668 -2.076,0.3303 -0.9132,0.062 -2.156,0.0948 -3.7284,0.0948 -1.3213,0 -2.3747,-0.0328 -3.1613,-0.0948 -0.7865,-0.0635 -1.4085,-0.1811 -1.8636,-0.3544 -0.4566,-0.1717 -0.7791,-0.3927 -0.9681,-0.6599 -0.1883,-0.2675 -0.3461,-0.5904 -0.4716,-0.9677 l -5.4741,-13.6369 c -0.6602,-1.5416 -1.3059,-2.9099 -1.9338,-4.1065 -0.6307,-1.1947 -1.3304,-2.1932 -2.1004,-2.9955 -0.7712,-0.8028 -1.6596,-1.4074 -2.6668,-1.8171 -1.0068,-0.4085 -2.1707,-0.6133 -3.4916,-0.6133 h -3.8697 v 23.2632 c 0,0.3154 -0.1015,0.5984 -0.3063,0.8502 -0.2052,0.2518 -0.5427,0.4562 -1.0147,0.6133 -0.4716,0.1578 -1.1019,0.2833 -1.8873,0.3777 -0.7873,0.0939 -1.7929,0.1417 -3.02,0.1417 -1.1958,0 -2.1943,-0.0478 -2.9967,-0.1417 -0.8015,-0.0944 -1.4389,-0.2199 -1.9117,-0.3777 -0.4717,-0.1571 -0.8016,-0.3615 -0.9903,-0.6133 -0.1886,-0.2518 -0.2833,-0.5348 -0.2833,-0.8502 V 508.321 c 0,-1.3841 0.3544,-2.3838 1.062,-2.9963 0.7073,-0.6141 1.5811,-0.9204 2.6182,-0.9204 h 15.808 c 1.6055,0 2.9261,0.0324 3.9645,0.0947 1.0379,0.0628 1.982,0.1409 2.8317,0.2353 2.4532,0.3469 4.6626,0.944 6.6292,1.7933 1.9662,0.8493 3.6341,1.9576 5.0024,3.3263 1.3683,1.3687 2.4142,2.9892 3.1376,4.8607 0.7238,1.8727 1.0861,4.0193 1.0861,6.4417 0,2.0448 -0.2593,3.9088 -0.7786,5.5913 -0.5194,1.6836 -1.2827,3.1857 -2.2887,4.5067 -1.008,1.3213 -2.25,2.4702 -3.7284,3.4446 -1.4785,0.9761 -3.1621,1.7622 -5.049,2.3594 0.9121,0.4412 1.7697,0.9752 2.5716,1.6051 0.802,0.6291 1.5578,1.3916 2.2654,2.2882 0.7077,0.8971 1.3762,1.9189 2.0053,3.0666 0.6287,1.1497 1.2428,2.4469 1.8412,3.8942 l 5.1425,12.033 c 0.472,1.1946 0.7861,2.0688 0.9436,2.6186 0.1579,0.5506 0.2368,0.9827 0.2368,1.2977 z m -15.9974,-41.4318 c 0,-2.0128 -0.4562,-3.7114 -1.3683,-5.0963 -0.9125,-1.3837 -2.4067,-2.3589 -4.483,-2.9257 -0.6295,-0.157 -1.3447,-0.2825 -2.1474,-0.3773 -0.8024,-0.0947 -1.911,-0.142 -3.3267,-0.142 h -5.5683 v 17.3187 h 6.3233 c 1.7618,0 3.3034,-0.2123 4.6247,-0.6366 1.3214,-0.4254 2.4221,-1.0226 3.3038,-1.7937 0.8801,-0.77 1.54,-1.6904 1.9812,-2.7603 0.4405,-1.0696 0.6607,-2.265 0.6607,-3.5868 z"
           style="fill:#000000;fill-rule:evenodd"
           id="path4866" />
        <path
           inkscape:connector-curvature="0"
           d="m 175.8951,563.7665 c 0,0.3154 -0.103,0.5984 -0.3062,0.8502 -0.2045,0.2518 -0.5415,0.4562 -1.0147,0.6133 -0.472,0.1578 -1.1015,0.2833 -1.8869,0.3777 -0.7866,0.0939 -1.793,0.1417 -3.0212,0.1417 -1.1958,0 -2.1927,-0.0478 -2.9947,-0.1417 -0.8036,-0.0944 -1.4398,-0.2199 -1.9118,-0.3777 -0.472,-0.1571 -0.8102,-0.3615 -1.0147,-0.6133 -0.2048,-0.2518 -0.3066,-0.5348 -0.3066,-0.8502 V 506.103 c 0,-0.313 0.1018,-0.5972 0.3066,-0.8494 0.2045,-0.2518 0.5498,-0.4566 1.0384,-0.6137 0.4874,-0.1574 1.1236,-0.2829 1.9118,-0.3773 0.7854,-0.0947 1.7752,-0.1409 2.971,-0.1409 1.2282,0 2.2346,0.0462 3.0212,0.1409 0.7854,0.0944 1.4149,0.2199 1.8869,0.3773 0.4732,0.1571 0.8102,0.3619 1.0147,0.6137 0.2032,0.2522 0.3062,0.5364 0.3062,0.8494 z"
           style="fill:#000000;fill-rule:evenodd"
           id="path4868" />
        <path
           inkscape:connector-curvature="0"
           d="m 227.5705,556.2166 c 0,0.7861 -0.0237,1.4559 -0.0711,2.0057 -0.0473,0.5505 -0.1184,1.0229 -0.2115,1.4156 -0.0947,0.3939 -0.2214,0.731 -0.3773,1.0143 -0.1587,0.2834 -0.4093,0.6058 -0.7562,0.9678 -0.3465,0.3623 -1.0151,0.826 -2.0049,1.3916 -0.9914,0.5667 -2.2027,1.1094 -3.6337,1.6287 -1.4315,0.5186 -3.0674,0.9508 -4.9081,1.2973 -1.8403,0.3461 -3.8302,0.519 -5.9701,0.519 -4.1823,0 -7.9585,-0.6445 -11.3234,-1.9354 -3.3681,-1.2886 -6.2294,-3.215 -8.5891,-5.7799 -2.3586,-2.5634 -4.1685,-5.7642 -5.4259,-9.6027 -1.2586,-3.8373 -1.8881,-8.3046 -1.8881,-13.4013 0,-5.1906 0.6922,-9.7988 2.0759,-13.826 1.3857,-4.0267 3.3196,-7.4086 5.8048,-10.1457 2.4852,-2.7374 5.4661,-4.8133 8.9428,-6.2294 3.475,-1.4145 7.3052,-2.1229 11.4903,-2.1229 1.6974,0 3.3333,0.1417 4.9065,0.4247 1.5735,0.2837 3.0283,0.6527 4.3662,1.1094 1.3351,0.4554 2.5397,0.9831 3.6088,1.5802 1.068,0.5975 1.8171,1.1098 2.2417,1.5329 0.4247,0.4247 0.7156,0.7799 0.873,1.0625 0.1575,0.2825 0.2826,0.646 0.3773,1.0861 0.0948,0.4396 0.1642,0.959 0.2116,1.5565 0.0473,0.5988 0.071,1.3376 0.071,2.2181 0,0.9432 -0.0304,1.746 -0.0931,2.4066 -0.064,0.6595 -0.1741,1.1951 -0.33,1.604 -0.1586,0.4088 -0.3481,0.7076 -0.5683,0.8967 -0.2198,0.1882 -0.4704,0.2833 -0.7546,0.2833 -0.4704,0 -1.0691,-0.2754 -1.793,-0.826 -0.7242,-0.5498 -1.6584,-1.1635 -2.8068,-1.8399 -1.1489,-0.6761 -2.5176,-1.2894 -4.1061,-1.8412 -1.5886,-0.5497 -3.485,-0.8256 -5.686,-0.8256 -2.4229,0 -4.5864,0.4957 -6.4883,1.4867 -1.9031,0.9906 -3.524,2.4063 -4.8604,4.2474 -1.3379,1.8399 -2.3518,4.0659 -3.0436,6.6766 -0.6935,2.6111 -1.0372,5.5533 -1.0372,8.8243 0,3.5868 0.369,6.6928 1.1082,9.3189 0.7392,2.6277 1.7934,4.7905 3.1621,6.4891 1.3671,1.6991 3.0196,2.9656 4.955,3.7983 1.9339,0.8343 4.1113,1.2511 6.5341,1.2511 2.2027,0 4.1057,-0.2601 5.7097,-0.7791 1.6039,-0.5182 2.9809,-1.0928 4.1298,-1.7219 1.1484,-0.6287 2.0909,-1.1955 2.8317,-1.6994 0.738,-0.5021 1.3131,-0.755 1.7207,-0.755 0.3162,0 0.5668,0.0635 0.7562,0.1894 0.1895,0.1263 0.3454,0.3773 0.4721,0.7546 0.1251,0.3777 0.2198,0.9046 0.2841,1.5806 0.0612,0.6765 0.0932,1.5811 0.0932,2.7134 z"
           style="fill:#000000;fill-rule:evenodd"
           id="path4870" />
      </g>
    </g>
  </g>
  <g
     id="Layer1004"
     transform="translate(0,-541.88977)" />
</svg>
