<?xml version="1.0" encoding="UTF-8" standalone="no"?>
<svg
   xmlns:dc="http://purl.org/dc/elements/1.1/"
   xmlns:cc="http://creativecommons.org/ns#"
   xmlns:rdf="http://www.w3.org/1999/02/22-rdf-syntax-ns#"
   xmlns:svg="http://www.w3.org/2000/svg"
   xmlns="http://www.w3.org/2000/svg"
   xmlns:sodipodi="http://sodipodi.sourceforge.net/DTD/sodipodi-0.dtd"
   xmlns:inkscape="http://www.inkscape.org/namespaces/inkscape"
   viewBox="0 0 400 400.00001"
   height="400"
   width="400"
   xml:space="preserve"
   id="svg4766"
   version="1.1"
   sodipodi:docname="cric_icon.svg"
   inkscape:version="0.92.4 5da689c313, 2019-01-14"><sodipodi:namedview
     pagecolor="#ffffff"
     bordercolor="#666666"
     borderopacity="1"
     objecttolerance="10"
     gridtolerance="10"
     guidetolerance="10"
     inkscape:pageopacity="0"
     inkscape:pageshadow="2"
     inkscape:window-width="3200"
     inkscape:window-height="1688"
     id="namedview5463"
     showgrid="false"
     inkscape:zoom="1.668772"
     inkscape:cx="485.01836"
     inkscape:cy="81.63212"
     inkscape:window-x="0"
     inkscape:window-y="38"
     inkscape:window-maximized="1"
     inkscape:current-layer="svg4766" /><metadata
     id="metadata4772"><rdf:RDF><cc:Work
         rdf:about=""><dc:format>image/svg+xml</dc:format><dc:type
           rdf:resource="http://purl.org/dc/dcmitype/StillImage" /><dc:title></dc:title></cc:Work></rdf:RDF></metadata><defs
     id="defs4770" /><g
     id="g4784"
     transform="matrix(1.3333333,0,0,-1.3333333,8.2984048,611.76286)"><g
       id="g4786"><path
         d="m 182.1563,340.7839 c -4.2092,0 -7.6212,3.4121 -7.6212,7.6213 0,4.2091 3.412,7.6212 7.6212,7.6212 4.2092,0 7.6212,-3.4121 7.6212,-7.6212 0,-4.2092 -3.412,-7.6213 -7.6212,-7.6213 z"
         style="fill:#339fad;fill-opacity:1;fill-rule:evenodd;stroke:#339fad;stroke-width:0.56690001;stroke-linecap:butt;stroke-linejoin:miter;stroke-miterlimit:22.92558479;stroke-dasharray:none;stroke-opacity:1"
         id="path4788"
         inkscape:connector-curvature="0" /><path
         d="m 135.6477,404.6539 c -5.7883,0 -10.4808,4.6925 -10.4808,10.4808 0,5.7884 4.6925,10.4808 10.4808,10.4808 5.7884,0 10.4808,-4.6924 10.4808,-10.4808 0,-5.7883 -4.6924,-10.4808 -10.4808,-10.4808 z"
         style="fill:#339fad;fill-opacity:1;fill-rule:evenodd;stroke:#339fad;stroke-width:0.56690001;stroke-linecap:butt;stroke-linejoin:miter;stroke-miterlimit:22.92558479;stroke-dasharray:none;stroke-opacity:1"
         id="path4790"
         inkscape:connector-curvature="0" /><path
         d="m 168.6756,401.3504 c -5.7515,0 -10.4139,4.6624 -10.4139,10.4139 0,5.7515 4.6624,10.4139 10.4139,10.4139 5.7515,0 10.4139,-4.6624 10.4139,-10.4139 0,-5.7515 -4.6624,-10.4139 -10.4139,-10.4139 z"
         style="fill:#339fad;fill-opacity:1;fill-rule:evenodd;stroke:#339fad;stroke-width:0.56690001;stroke-linecap:butt;stroke-linejoin:miter;stroke-miterlimit:22.92558479;stroke-dasharray:none;stroke-opacity:1"
         id="path4792"
         inkscape:connector-curvature="0" /><path
         d="m 196.9849,392.0842 c -6.0298,0 -10.9179,4.8881 -10.9179,10.9179 0,6.0299 4.8881,10.918 10.9179,10.918 6.0299,0 10.9179,-4.8881 10.9179,-10.918 0,-6.0298 -4.888,-10.9179 -10.9179,-10.9179 z"
         style="fill:#339fad;fill-opacity:1;fill-rule:evenodd;stroke:#339fad;stroke-width:0.56690001;stroke-linecap:butt;stroke-linejoin:miter;stroke-miterlimit:22.92558479;stroke-dasharray:none;stroke-opacity:1"
         id="path4794"
         inkscape:connector-curvature="0" /><path
         d="m 225.2948,367.3361 c -5.9241,0 -10.7266,4.8024 -10.7266,10.7265 0,5.9242 4.8025,10.7266 10.7266,10.7266 5.9241,0 10.7266,-4.8024 10.7266,-10.7266 0,-5.9241 -4.8025,-10.7265 -10.7266,-10.7265 z"
         style="fill:#339fad;fill-opacity:1;fill-rule:evenodd;stroke:#339fad;stroke-width:0.56690001;stroke-linecap:butt;stroke-linejoin:miter;stroke-miterlimit:22.92558479;stroke-dasharray:none;stroke-opacity:1"
         id="path4796"
         inkscape:connector-curvature="0" /><path
         d="m 240.1234,334.7875 c -6.7762,0 -12.2695,5.4933 -12.2695,12.2695 0,6.7762 5.4933,12.2695 12.2695,12.2695 6.7762,0 12.2695,-5.4933 12.2695,-12.2695 0,-6.7762 -5.4933,-12.2695 -12.2695,-12.2695 z"
         style="fill:#339fad;fill-opacity:1;fill-rule:evenodd;stroke:#339fad;stroke-width:0.56690001;stroke-linecap:butt;stroke-linejoin:miter;stroke-miterlimit:22.92558479;stroke-dasharray:none;stroke-opacity:1"
         id="path4798"
         inkscape:connector-curvature="0" /><path
         d="m 214.5101,348.4052 c -2.9781,0 -5.3923,2.4142 -5.3923,5.3923 0,2.9781 2.4142,5.3924 5.3923,5.3924 2.9781,0 5.3924,-2.4143 5.3924,-5.3924 0,-2.9781 -2.4143,-5.3923 -5.3924,-5.3923 z"
         style="fill:#339fad;fill-opacity:1;fill-rule:evenodd;stroke:#339fad;stroke-width:0.56690001;stroke-linecap:butt;stroke-linejoin:miter;stroke-miterlimit:22.92558479;stroke-dasharray:none;stroke-opacity:1"
         id="path4800"
         inkscape:connector-curvature="0" /><path
         d="m 193.6148,365.1976 c -4.4994,0 -8.1468,3.6473 -8.1468,8.1468 0,4.4994 3.6474,8.1467 8.1468,8.1467 4.4994,0 8.1468,-3.6473 8.1468,-8.1467 0,-4.4995 -3.6474,-8.1468 -8.1468,-8.1468 z"
         style="fill:#339fad;fill-opacity:1;fill-rule:evenodd;stroke:#339fad;stroke-width:0.56690001;stroke-linecap:butt;stroke-linejoin:miter;stroke-miterlimit:22.92558479;stroke-dasharray:none;stroke-opacity:1"
         id="path4802"
         inkscape:connector-curvature="0" /><path
         d="m 160.5869,366.5696 c -5.9751,0 -10.819,4.8438 -10.819,10.819 0,5.9751 4.8439,10.819 10.819,10.819 5.9752,0 10.819,-4.8439 10.819,-10.819 0,-5.9752 -4.8438,-10.819 -10.819,-10.819 z"
         style="fill:#339fad;fill-opacity:1;fill-rule:evenodd;stroke:#339fad;stroke-width:0.56690001;stroke-linecap:butt;stroke-linejoin:miter;stroke-miterlimit:22.92558479;stroke-dasharray:none;stroke-opacity:1"
         id="path4804"
         inkscape:connector-curvature="0" /><path
         d="m 126.885,373.712 c -5.7532,0 -10.4171,4.6639 -10.4171,10.4171 0,5.7532 4.6639,10.417 10.4171,10.417 5.7532,0 10.417,-4.6638 10.417,-10.417 0,-5.7532 -4.6638,-10.4171 -10.417,-10.4171 z"
         style="fill:#339fad;fill-opacity:1;fill-rule:evenodd;stroke:#339fad;stroke-width:0.56690001;stroke-linecap:butt;stroke-linejoin:miter;stroke-miterlimit:22.92558479;stroke-dasharray:none;stroke-opacity:1"
         id="path4806"
         inkscape:connector-curvature="0" /><path
         d="m 105.0673,398.1787 c -5.8816,0 -10.6495,4.7679 -10.6495,10.6495 0,5.8816 4.7679,10.6495 10.6495,10.6495 5.8816,0 10.6495,-4.7679 10.6495,-10.6495 0,-5.8816 -4.7679,-10.6495 -10.6495,-10.6495 z"
         style="fill:#339fad;fill-opacity:1;fill-rule:evenodd;stroke:#339fad;stroke-width:0.56690001;stroke-linecap:butt;stroke-linejoin:miter;stroke-miterlimit:22.92558479;stroke-dasharray:none;stroke-opacity:1"
         id="path4808"
         inkscape:connector-curvature="0" /><path
         d="m 75.6584,405.0488 c 5.9698,0 10.8093,-4.8396 10.8093,-10.8094 0,-5.9698 -4.8395,-10.8094 -10.8093,-10.8094 -5.9698,0 -10.8094,4.8396 -10.8094,10.8094 0,5.9698 4.8396,10.8094 10.8094,10.8094 z"
         style="fill:#339fad;fill-opacity:1;fill-rule:evenodd;stroke:#339fad;stroke-width:0.56690001;stroke-linecap:butt;stroke-linejoin:miter;stroke-miterlimit:22.92558479;stroke-dasharray:none;stroke-opacity:1"
         id="path4810"
         inkscape:connector-curvature="0" /><path
         d="m 95.8793,379.165 c 5.8204,0 10.5387,-4.7182 10.5387,-10.5386 0,-5.8204 -4.7183,-10.5387 -10.5387,-10.5387 -5.8203,0 -10.5386,4.7183 -10.5386,10.5387 0,5.8204 4.7183,10.5386 10.5386,10.5386 z"
         style="fill:#339fad;fill-opacity:1;fill-rule:evenodd;stroke:#339fad;stroke-width:0.56690001;stroke-linecap:butt;stroke-linejoin:miter;stroke-miterlimit:22.92558479;stroke-dasharray:none;stroke-opacity:1"
         id="path4812"
         inkscape:connector-curvature="0" /><path
         d="m 111.3823,351.9927 c 2.7258,0 4.9357,-2.2099 4.9357,-4.9357 0,-2.7258 -2.2099,-4.9357 -4.9357,-4.9357 -2.7258,0 -4.9357,2.2099 -4.9357,4.9357 0,2.7258 2.2099,4.9357 4.9357,4.9357 z"
         style="fill:#339fad;fill-opacity:1;fill-rule:evenodd;stroke:#339fad;stroke-width:0.56690001;stroke-linecap:butt;stroke-linejoin:miter;stroke-miterlimit:22.92558479;stroke-dasharray:none;stroke-opacity:1"
         id="path4814"
         inkscape:connector-curvature="0" /><path
         d="m 52.7409,357.6762 c -6.0478,0 -10.9503,4.9025 -10.9503,10.9502 0,6.0477 4.9025,10.9502 10.9503,10.9502 6.0477,0 10.9502,-4.9025 10.9502,-10.9502 0,-6.0477 -4.9025,-10.9502 -10.9502,-10.9502 z"
         style="fill:#339fad;fill-opacity:1;fill-rule:evenodd;stroke:#339fad;stroke-width:0.56690001;stroke-linecap:butt;stroke-linejoin:miter;stroke-miterlimit:22.92558479;stroke-dasharray:none;stroke-opacity:1"
         id="path4816"
         inkscape:connector-curvature="0" /><path
         d="m 72.288,355.1454 c 3.3503,0 6.0661,-2.7159 6.0661,-6.0662 0,-3.3502 -2.7158,-6.0661 -6.0661,-6.0661 -3.3503,0 -6.0661,2.7159 -6.0661,6.0661 0,3.3503 2.7158,6.0662 6.0661,6.0662 z"
         style="fill:#339fad;fill-opacity:1;fill-rule:evenodd;stroke:#339fad;stroke-width:0.56690001;stroke-linecap:butt;stroke-linejoin:miter;stroke-miterlimit:22.92558479;stroke-dasharray:none;stroke-opacity:1"
         id="path4818"
         inkscape:connector-curvature="0" /><path
         d="m 36.5641,332.7089 c -3.8293,0 -6.9338,3.1045 -6.9338,6.9338 0,3.8293 3.1045,6.9338 6.9338,6.9338 3.8293,0 6.9338,-3.1045 6.9338,-6.9338 0,-3.8293 -3.1045,-6.9338 -6.9338,-6.9338 z"
         style="fill:#339fad;fill-opacity:1;fill-rule:evenodd;stroke:#339fad;stroke-width:0.56690001;stroke-linecap:butt;stroke-linejoin:miter;stroke-miterlimit:22.92558479;stroke-dasharray:none;stroke-opacity:1"
         id="path4820"
         inkscape:connector-curvature="0" /><path
         d="m 34.5419,295.1609 c -5.9536,0 -10.7802,4.8265 -10.7802,10.7801 0,5.9536 4.8266,10.7802 10.7802,10.7802 5.9536,0 10.7801,-4.8266 10.7801,-10.7802 0,-5.9536 -4.8265,-10.7801 -10.7801,-10.7801 z"
         style="fill:#339fad;fill-opacity:1;fill-rule:evenodd;stroke:#339fad;stroke-width:0.56690001;stroke-linecap:butt;stroke-linejoin:miter;stroke-miterlimit:22.92558479;stroke-dasharray:none;stroke-opacity:1"
         id="path4822"
         inkscape:connector-curvature="0" /><path
         d="m 41.9564,264.346 c -6.5928,0 -11.9375,5.3447 -11.9375,11.9376 0,6.5928 5.3447,11.9375 11.9375,11.9375 6.5929,0 11.9376,-5.3447 11.9376,-11.9375 0,-6.5929 -5.3447,-11.9376 -11.9376,-11.9376 z"
         style="fill:#339fad;fill-opacity:1;fill-rule:evenodd;stroke:#339fad;stroke-width:0.56690001;stroke-linecap:butt;stroke-linejoin:miter;stroke-miterlimit:22.92558479;stroke-dasharray:none;stroke-opacity:1"
         id="path4824"
         inkscape:connector-curvature="0" /><path
         d="m 52.0668,237.096 c -5.2631,0 -9.5298,4.2667 -9.5298,9.5298 0,5.2631 4.2667,9.5298 9.5298,9.5298 5.2631,0 9.5298,-4.2667 9.5298,-9.5298 0,-5.2631 -4.2667,-9.5298 -9.5298,-9.5298 z"
         style="fill:#339fad;fill-opacity:1;fill-rule:evenodd;stroke:#339fad;stroke-width:0.56690001;stroke-linecap:butt;stroke-linejoin:miter;stroke-miterlimit:22.92558479;stroke-dasharray:none;stroke-opacity:1"
         id="path4826"
         inkscape:connector-curvature="0" /><path
         d="m 75.6584,269.2142 c 3.9132,0 7.0855,-3.1722 7.0855,-7.0854 0,-3.9133 -3.1723,-7.0855 -7.0855,-7.0855 -3.9132,0 -7.0855,3.1722 -7.0855,7.0855 0,3.9132 3.1723,7.0854 7.0855,7.0854 z"
         style="fill:#339fad;fill-opacity:1;fill-rule:evenodd;stroke:#339fad;stroke-width:0.56690001;stroke-linecap:butt;stroke-linejoin:miter;stroke-miterlimit:22.92558479;stroke-dasharray:none;stroke-opacity:1"
         id="path4828"
         inkscape:connector-curvature="0" /><path
         d="m 99.2497,233.4237 c -5.8022,0 -10.506,4.7038 -10.506,10.5061 0,5.8022 4.7038,10.506 10.506,10.506 5.8023,0 10.5061,-4.7038 10.5061,-10.506 0,-5.8023 -4.7038,-10.5061 -10.5061,-10.5061 z"
         style="fill:#339fad;fill-opacity:1;fill-rule:evenodd;stroke:#339fad;stroke-width:0.56690001;stroke-linecap:butt;stroke-linejoin:miter;stroke-miterlimit:22.92558479;stroke-dasharray:none;stroke-opacity:1"
         id="path4830"
         inkscape:connector-curvature="0" /><path
         d="m 75.6584,213.5472 c -5.9842,0 -10.8354,4.8512 -10.8354,10.8354 0,5.9842 4.8512,10.8354 10.8354,10.8354 5.9842,0 10.8354,-4.8512 10.8354,-10.8354 0,-5.9842 -4.8512,-10.8354 -10.8354,-10.8354 z"
         style="fill:#339fad;fill-opacity:1;fill-rule:evenodd;stroke:#339fad;stroke-width:0.56690001;stroke-linecap:butt;stroke-linejoin:miter;stroke-miterlimit:22.92558479;stroke-dasharray:none;stroke-opacity:1"
         id="path4832"
         inkscape:connector-curvature="0" /><path
         d="m 132.9514,240.6039 c -6.6762,0 -12.0883,5.4122 -12.0883,12.0883 0,6.6762 5.4121,12.0884 12.0883,12.0884 6.6762,0 12.0883,-5.4122 12.0883,-12.0884 0,-6.6761 -5.4121,-12.0883 -12.0883,-12.0883 z"
         style="fill:#339fad;fill-opacity:1;fill-rule:evenodd;stroke:#339fad;stroke-width:0.56690001;stroke-linecap:butt;stroke-linejoin:miter;stroke-miterlimit:22.92558479;stroke-dasharray:none;stroke-opacity:1"
         id="path4834"
         inkscape:connector-curvature="0" /><path
         d="m 120.8188,218.9577 c -3.3684,0 -6.099,2.7306 -6.099,6.099 0,3.3684 2.7306,6.099 6.099,6.099 3.3684,0 6.0991,-2.7306 6.0991,-6.099 0,-3.3684 -2.7307,-6.099 -6.0991,-6.099 z"
         style="fill:#339fad;fill-opacity:1;fill-rule:evenodd;stroke:#339fad;stroke-width:0.56690001;stroke-linecap:butt;stroke-linejoin:miter;stroke-miterlimit:22.92558479;stroke-dasharray:none;stroke-opacity:1"
         id="path4836"
         inkscape:connector-curvature="0" /><path
         d="m 102.6198,201.4651 c -3.7227,0 -6.7405,3.0177 -6.7405,6.7405 0,3.7227 3.0178,6.7405 6.7405,6.7405 3.7228,0 6.7405,-3.0178 6.7405,-6.7405 0,-3.7228 -3.0177,-6.7405 -6.7405,-6.7405 z"
         style="fill:#339fad;fill-opacity:1;fill-rule:evenodd;stroke:#339fad;stroke-width:0.56690001;stroke-linecap:butt;stroke-linejoin:miter;stroke-miterlimit:22.92558479;stroke-dasharray:none;stroke-opacity:1"
         id="path4838"
         inkscape:connector-curvature="0" /><path
         d="m 129.5813,192.0288 c -5.584,0 -10.1106,4.5267 -10.1106,10.1106 0,5.584 4.5266,10.1106 10.1106,10.1106 5.584,0 10.1106,-4.5266 10.1106,-10.1106 0,-5.5839 -4.5266,-10.1106 -10.1106,-10.1106 z"
         style="fill:#339fad;fill-opacity:1;fill-rule:evenodd;stroke:#339fad;stroke-width:0.56690001;stroke-linecap:butt;stroke-linejoin:miter;stroke-miterlimit:22.92558479;stroke-dasharray:none;stroke-opacity:1"
         id="path4840"
         inkscape:connector-curvature="0" /><path
         d="m 153.8464,216.7078 c -4.6108,0 -8.3489,3.7381 -8.3489,8.3489 0,4.6108 3.7381,8.3489 8.3489,8.3489 4.6109,0 8.3489,-3.7381 8.3489,-8.3489 0,-4.6108 -3.738,-8.3489 -8.3489,-8.3489 z"
         style="fill:#339fad;fill-opacity:1;fill-rule:evenodd;stroke:#339fad;stroke-width:0.56690001;stroke-linecap:butt;stroke-linejoin:miter;stroke-miterlimit:22.92558479;stroke-dasharray:none;stroke-opacity:1"
         id="path4842"
         inkscape:connector-curvature="0" /><path
         d="m 162.6092,192.4982 c -5.3246,0 -9.6412,4.3166 -9.6412,9.6412 0,5.3246 4.3166,9.6412 9.6412,9.6412 5.3246,0 9.6412,-4.3166 9.6412,-9.6412 0,-5.3246 -4.3166,-9.6412 -9.6412,-9.6412 z"
         style="fill:#339fad;fill-opacity:1;fill-rule:evenodd;stroke:#339fad;stroke-width:0.56690001;stroke-linecap:butt;stroke-linejoin:miter;stroke-miterlimit:22.92558479;stroke-dasharray:none;stroke-opacity:1"
         id="path4844"
         inkscape:connector-curvature="0" /><path
         d="m 172.7198,236.2649 c -6.8389,0 -12.3829,5.544 -12.3829,12.3828 0,6.8389 5.544,12.3829 12.3829,12.3829 6.8388,0 12.3828,-5.544 12.3828,-12.3829 0,-6.8388 -5.544,-12.3828 -12.3828,-12.3828 z"
         style="fill:#339fad;fill-opacity:1;fill-rule:evenodd;stroke:#339fad;stroke-width:0.56690001;stroke-linecap:butt;stroke-linejoin:miter;stroke-miterlimit:22.92558479;stroke-dasharray:none;stroke-opacity:1"
         id="path4846"
         inkscape:connector-curvature="0" /><path
         d="m 194.2889,206.6556 c -5.6954,0 -10.3125,4.6171 -10.3125,10.3124 0,5.6954 4.6171,10.3125 10.3125,10.3125 5.6954,0 10.3124,-4.6171 10.3124,-10.3125 0,-5.6953 -4.617,-10.3124 -10.3124,-10.3124 z"
         style="fill:#339fad;fill-opacity:1;fill-rule:evenodd;stroke:#339fad;stroke-width:0.56690001;stroke-linecap:butt;stroke-linejoin:miter;stroke-miterlimit:22.92558479;stroke-dasharray:none;stroke-opacity:1"
         id="path4848"
         inkscape:connector-curvature="0" /><path
         d="m 220.5765,226.6693 c -6.5545,0 -11.8681,5.3136 -11.8681,11.8681 0,6.5546 5.3136,11.8681 11.8681,11.8681 6.5546,0 11.8681,-5.3135 11.8681,-11.8681 0,-6.5545 -5.3135,-11.8681 -11.8681,-11.8681 z"
         style="fill:#339fad;fill-opacity:1;fill-rule:evenodd;stroke:#339fad;stroke-width:0.56690001;stroke-linecap:butt;stroke-linejoin:miter;stroke-miterlimit:22.92558479;stroke-dasharray:none;stroke-opacity:1"
         id="path4850"
         inkscape:connector-curvature="0" /><path
         d="m 203.0516,255.0036 c -3.5628,0 -6.4511,2.8882 -6.4511,6.4511 0,3.5628 2.8883,6.4511 6.4511,6.4511 3.5629,0 6.4511,-2.8883 6.4511,-6.4511 0,-3.5629 -2.8882,-6.4511 -6.4511,-6.4511 z"
         style="fill:#339fad;fill-opacity:1;fill-rule:evenodd;stroke:#339fad;stroke-width:0.56690001;stroke-linecap:butt;stroke-linejoin:miter;stroke-miterlimit:22.92558479;stroke-dasharray:none;stroke-opacity:1"
         id="path4852"
         inkscape:connector-curvature="0" /><path
         d="m 244.1679,264.8242 c -2.9784,0 -5.3927,2.4143 -5.3927,5.3927 0,2.9783 2.4143,5.3926 5.3927,5.3926 2.9783,0 5.3926,-2.4143 5.3926,-5.3926 0,-2.9784 -2.4143,-5.3927 -5.3926,-5.3927 z"
         style="fill:#339fad;fill-opacity:1;fill-rule:evenodd;stroke:#339fad;stroke-width:0.56690001;stroke-linecap:butt;stroke-linejoin:miter;stroke-miterlimit:22.92558479;stroke-dasharray:none;stroke-opacity:1"
         id="path4854"
         inkscape:connector-curvature="0" /><path
         d="m 52.7409,333.5766 c 2.9783,0 5.3926,-2.4143 5.3926,-5.3927 0,-2.9783 -2.4143,-5.3926 -5.3926,-5.3926 -2.9784,0 -5.3927,2.4143 -5.3927,5.3926 0,2.9784 2.4143,5.3927 5.3927,5.3927 z"
         style="fill:#339fad;fill-opacity:1;fill-rule:evenodd;stroke:#339fad;stroke-width:0.56690001;stroke-linecap:butt;stroke-linejoin:miter;stroke-miterlimit:22.92558479;stroke-dasharray:none;stroke-opacity:1"
         id="path4856"
         inkscape:connector-curvature="0" /><path
         d="m 249.5599,322.8678 c 7.8594,0 14.2308,-6.3714 14.2308,-14.2307 0,-7.8594 -6.3714,-14.2308 -14.2308,-14.2308 -7.8593,0 -14.2307,6.3714 -14.2307,14.2308 0,7.8593 6.3714,14.2307 14.2307,14.2307 z"
         style="fill:#f04e4d;fill-opacity:1;fill-rule:evenodd;stroke:#f04e4d;stroke-width:0.56690001;stroke-linecap:butt;stroke-linejoin:miter;stroke-miterlimit:22.92558479;stroke-dasharray:none;stroke-opacity:1"
         id="path4858"
         inkscape:connector-curvature="0" /><path
         d="m 139.0178,361.2424 c 4.8563,0 8.7931,-3.9367 8.7931,-8.793 0,-4.8564 -3.9368,-8.7931 -8.7931,-8.7931 -4.8563,0 -8.793,3.9367 -8.793,8.7931 0,4.8563 3.9367,8.793 8.793,8.793 z"
         style="fill:#339fad;fill-opacity:1;fill-rule:evenodd;stroke:#339fad;stroke-width:0.56690001;stroke-linecap:butt;stroke-linejoin:miter;stroke-miterlimit:22.92558479;stroke-dasharray:none;stroke-opacity:1"
         id="path4860"
         inkscape:connector-curvature="0" /></g><g
       id="g4862"><path
         d="m 105.91,285.6733 c 0,-0.7863 -0.0241,-1.4561 -0.0714,-2.0058 -0.0465,-0.5505 -0.1179,-1.023 -0.212,-1.4156 -0.0942,-0.394 -0.2209,-0.731 -0.3773,-1.0142 -0.1576,-0.2835 -0.4091,-0.6061 -0.7549,-0.9678 -0.347,-0.3625 -1.0151,-0.826 -2.0058,-1.3918 -0.991,-0.5666 -2.2022,-1.1092 -3.6332,-1.6288 -1.4317,-0.5184 -3.0673,-0.9507 -4.9084,-1.2971 -1.84,-0.3461 -3.8299,-0.519 -5.9695,-0.519 -4.1837,0 -7.9583,0.6446 -11.3241,1.9355 -3.3673,1.2886 -6.2295,3.2147 -8.5885,5.7798 -2.3604,2.5634 -4.17,5.7643 -5.4266,9.6026 -1.2589,3.8373 -1.8876,8.3047 -1.8876,13.4014 0,5.1905 0.6919,9.7988 2.0758,13.826 1.3847,4.0266 3.3185,7.4086 5.8042,10.1458 2.4852,2.7374 5.4661,4.8132 8.9428,6.2294 3.4753,1.4145 7.3054,2.1228 11.4902,2.1228 1.698,0 3.3333,-0.1417 4.9074,-0.4246 1.5726,-0.2837 3.0276,-0.6528 4.365,-1.1095 1.3363,-0.4555 2.5399,-0.983 3.6097,-1.5803 1.0686,-0.5975 1.817,-1.1098 2.241,-1.533 0.4252,-0.4246 0.7158,-0.7798 0.8737,-1.0624 0.157,-0.2826 0.2829,-0.646 0.3775,-1.0859 0.0944,-0.4397 0.1647,-0.9593 0.2124,-1.5565 0.0465,-0.599 0.0703,-1.3377 0.0703,-2.2182 0,-0.9433 -0.0318,-1.7461 -0.0941,-2.4066 -0.0635,-0.6596 -0.1732,-1.1951 -0.3303,-1.6041 -0.1573,-0.4088 -0.3469,-0.7075 -0.5666,-0.8966 -0.2203,-0.1882 -0.4717,-0.2835 -0.7546,-0.2835 -0.4717,0 -1.0701,0.2756 -1.7935,0.8261 -0.7237,0.5499 -1.6591,1.1636 -2.808,1.8399 -1.1486,0.6761 -2.5169,1.2895 -4.1048,1.8411 -1.5886,0.5499 -3.4847,0.8258 -5.6861,0.8258 -2.4224,0 -4.5861,-0.4958 -6.4885,-1.4868 -1.9034,-0.9904 -3.5243,-2.4063 -4.8608,-4.2474 -1.3368,-1.84 -2.3511,-4.0658 -3.0439,-6.6765 -0.6922,-2.6113 -1.0374,-5.5533 -1.0374,-8.8242 0,-3.587 0.369,-6.6929 1.1089,-9.3189 0.7393,-2.6278 1.7929,-4.7906 3.1612,-6.4894 1.3685,-1.6988 3.02,-2.9653 4.9555,-3.7981 1.9344,-0.8343 4.1119,-1.2512 6.535,-1.2512 2.2022,0 4.1057,0.2602 5.7101,0.7792 1.6038,0.5182 2.9795,1.0928 4.1284,1.7218 1.1486,0.6287 2.0919,1.1956 2.8315,1.6996 0.739,0.502 1.3133,0.7549 1.7223,0.7549 0.3144,0 0.5667,-0.0635 0.7555,-0.1894 0.1888,-0.1264 0.3452,-0.3773 0.4719,-0.7546 0.125,-0.3778 0.2197,-0.9045 0.2832,-1.5806 0.0618,-0.6766 0.0944,-1.5811 0.0944,-2.7133"
         style="fill:#329fae;fill-opacity:1;fill-rule:nonzero;stroke:none"
         id="path4864"
         inkscape:connector-curvature="0" /><path
         d="m 158.1962,278.028 c 0,-0.3461 -0.0638,-0.6369 -0.1894,-0.8728 -0.1261,-0.2361 -0.4246,-0.4323 -0.8963,-0.5899 -0.4719,-0.1562 -1.1639,-0.2667 -2.0758,-0.3302 -0.9133,-0.0618 -2.156,-0.0947 -3.7284,-0.0947 -1.3215,0 -2.3749,0.0329 -3.1615,0.0947 -0.7863,0.0635 -1.4085,0.1811 -1.8635,0.3543 -0.4566,0.1718 -0.7789,0.3929 -0.968,0.6599 -0.1882,0.2676 -0.3461,0.5905 -0.4717,0.9678 l -5.474,13.6369 c -0.6605,1.5417 -1.3059,2.91 -1.9341,4.1065 -0.6304,1.1948 -1.3303,2.1932 -2.1001,2.9957 -0.7714,0.8028 -1.6597,1.4074 -2.6669,1.817 -1.0068,0.4085 -2.1708,0.6131 -3.4917,0.6131 h -3.8696 v -23.2631 c 0,-0.3155 -0.1015,-0.5983 -0.3064,-0.8501 -0.2052,-0.2517 -0.5425,-0.4563 -1.0145,-0.6134 -0.4717,-0.1579 -1.1021,-0.2832 -1.8873,-0.3776 -0.7875,-0.0941 -1.7929,-0.1417 -3.0201,-0.1417 -1.1959,0 -2.1943,0.0476 -2.9967,0.1417 -0.8014,0.0944 -1.4389,0.2197 -1.9117,0.3776 -0.4717,0.1571 -0.8017,0.3617 -0.9902,0.6134 -0.1888,0.2518 -0.2834,0.5346 -0.2834,0.8501 v 55.4457 c 0,1.3839 0.3543,2.3837 1.0621,2.9962 0.7073,0.614 1.5809,0.9204 2.6181,0.9204 h 15.808 c 1.6055,0 2.9262,-0.0326 3.9645,-0.0946 1.038,-0.063 1.982,-0.1412 2.8318,-0.2353 2.4531,-0.347 4.6624,-0.9442 6.6291,-1.7935 1.9661,-0.8492 3.634,-1.9576 5.0023,-3.3262 1.3683,-1.3688 2.4143,-2.9891 3.1377,-4.8608 0.7239,-1.8726 1.0862,-4.0193 1.0862,-6.4417 0,-2.0447 -0.2594,-3.9087 -0.7787,-5.5911 -0.5196,-1.6838 -1.2826,-3.1859 -2.2887,-4.5068 -1.008,-1.3212 -2.2501,-2.4701 -3.7284,-3.4447 -1.4785,-0.9759 -3.162,-1.7623 -5.049,-2.3592 0.9121,-0.4414 1.7696,-0.9754 2.5715,-1.6053 0.802,-0.629 1.558,-1.3915 2.2655,-2.2881 0.7078,-0.8972 1.3762,-1.9191 2.0052,-3.0665 0.6288,-1.1498 1.243,-2.4472 1.8411,-3.8943 l 5.1426,-12.0331 c 0.472,-1.1945 0.7864,-2.0687 0.9437,-2.6186 0.1579,-0.5505 0.2367,-0.9828 0.2367,-1.2977 z m -15.9973,41.4317 c 0,2.0129 -0.4561,3.7114 -1.3683,5.0965 -0.9125,1.3835 -2.4066,2.3589 -4.483,2.9256 -0.6296,0.157 -1.3448,0.2826 -2.1475,0.3773 -0.8022,0.0947 -1.9109,0.142 -3.3265,0.142 h -5.5684 v -17.3185 h 6.3233 c 1.7617,0 3.3035,0.2123 4.6247,0.6363 1.3215,0.4255 2.4222,1.0228 3.3038,1.7938 0.8801,0.7702 1.54,1.6906 1.9811,2.7604 0.4405,1.0695 0.6608,2.2649 0.6608,3.5866"
         style="fill:#329fae;fill-opacity:1;fill-rule:nonzero;stroke:none"
         id="path4866"
         inkscape:connector-curvature="0" /><path
         d="m 175.8951,278.1232 c 0,-0.3155 -0.1028,-0.5983 -0.3061,-0.8501 -0.2047,-0.2517 -0.5417,-0.4563 -1.0148,-0.6134 -0.472,-0.1579 -1.1015,-0.2832 -1.887,-0.3776 -0.7863,-0.0941 -1.7929,-0.1417 -3.0212,-0.1417 -1.1956,0 -2.1926,0.0476 -2.9945,0.1417 -0.8036,0.0944 -1.4397,0.2197 -1.912,0.3776 -0.4719,0.1571 -0.8101,0.3617 -1.0145,0.6134 -0.2049,0.2518 -0.3067,0.5346 -0.3067,0.8501 v 57.6635 c 0,0.313 0.1018,0.5973 0.3067,0.8493 0.2044,0.252 0.5496,0.4567 1.0383,0.6137 0.4873,0.1576 1.1237,0.2832 1.9117,0.3773 0.7855,0.095 1.7754,0.1412 2.971,0.1412 1.2283,0 2.2349,-0.0462 3.0212,-0.1412 0.7855,-0.0941 1.415,-0.2197 1.887,-0.3773 0.4731,-0.157 0.8101,-0.3617 1.0148,-0.6137 0.2033,-0.252 0.3061,-0.5363 0.3061,-0.8493 z"
         style="fill:#329fae;fill-opacity:1;fill-rule:nonzero;stroke:none"
         id="path4868"
         inkscape:connector-curvature="0" /><path
         d="m 227.5705,285.6733 c 0,-0.7863 -0.0239,-1.4561 -0.0712,-2.0058 -0.0473,-0.5505 -0.1182,-1.023 -0.2115,-1.4156 -0.0946,-0.394 -0.2213,-0.731 -0.3772,-1.0142 -0.1588,-0.2835 -0.4094,-0.6061 -0.7563,-0.9678 -0.3464,-0.3625 -1.0151,-0.826 -2.0047,-1.3918 -0.9916,-0.5666 -2.2028,-1.1092 -3.6337,-1.6288 -1.4315,-0.5184 -3.0674,-0.9507 -4.9082,-1.2971 -1.8403,-0.3461 -3.8302,-0.519 -5.9701,-0.519 -4.1822,0 -7.9585,0.6446 -11.3235,1.9355 -3.3679,1.2886 -6.2294,3.2147 -8.589,5.7798 -2.3587,2.5634 -4.1686,5.7643 -5.4258,9.6026 -1.2586,3.8373 -1.8882,8.3047 -1.8882,13.4014 0,5.1905 0.6923,9.7988 2.0759,13.826 1.3858,4.0266 3.3196,7.4086 5.8047,10.1458 2.4852,2.7374 5.4664,4.8132 8.9428,6.2294 3.475,1.4145 7.3054,2.1228 11.4905,2.1228 1.6974,0 3.3333,-0.1417 4.9065,-0.4246 1.5735,-0.2837 3.0282,-0.6528 4.3662,-1.1095 1.3351,-0.4555 2.5396,-0.983 3.6088,-1.5803 1.0678,-0.5975 1.817,-1.1098 2.2416,-1.533 0.4247,-0.4246 0.7155,-0.7798 0.8731,-1.0624 0.1573,-0.2826 0.2826,-0.646 0.3773,-1.0859 0.0947,-0.4397 0.1641,-0.9593 0.2115,-1.5565 0.0473,-0.599 0.0711,-1.3377 0.0711,-2.2182 0,-0.9433 -0.0306,-1.7461 -0.0933,-2.4066 -0.0637,-0.6596 -0.174,-1.1951 -0.3299,-1.6041 -0.1588,-0.4088 -0.3481,-0.7075 -0.5684,-0.8966 -0.2196,-0.1882 -0.4702,-0.2835 -0.7545,-0.2835 -0.4703,0 -1.0693,0.2756 -1.793,0.8261 -0.7242,0.5499 -1.6582,1.1636 -2.8068,1.8399 -1.1489,0.6761 -2.5178,1.2895 -4.1063,1.8411 -1.5885,0.5499 -3.4846,0.8258 -5.6857,0.8258 -2.4231,0 -4.5865,-0.4958 -6.4885,-1.4868 -1.9029,-0.9904 -3.5241,-2.4063 -4.8603,-4.2474 -1.338,-1.84 -2.3519,-4.0658 -3.0436,-6.6765 -0.6933,-2.6113 -1.0372,-5.5533 -1.0372,-8.8242 0,-3.587 0.3691,-6.6929 1.1081,-9.3189 0.7393,-2.6278 1.7935,-4.7906 3.162,-6.4894 1.3672,-1.6988 3.0198,-2.9653 4.9553,-3.7981 1.9338,-0.8343 4.1111,-1.2512 6.5341,-1.2512 2.2026,0 4.1057,0.2602 5.7096,0.7792 1.6038,0.5182 2.9809,1.0928 4.1298,1.7218 1.1486,0.6287 2.0908,1.1956 2.8318,1.6996 0.7378,0.502 1.313,0.7549 1.7206,0.7549 0.3161,0 0.5667,-0.0635 0.7563,-0.1894 0.1894,-0.1264 0.3453,-0.3773 0.472,-0.7546 0.125,-0.3778 0.2197,-0.9045 0.284,-1.5806 0.0612,-0.6766 0.0933,-1.5811 0.0933,-2.7133"
         style="fill:#329fae;fill-opacity:1;fill-rule:nonzero;stroke:none"
         id="path4870"
         inkscape:connector-curvature="0" /></g></g></svg>